GrazhdanskiyShrift.ufo
<glyph name="exclam" format="1">
  <advance width="411"/>
  <unicode hex="0021"/>
  <outline>
    <contour>
      <point x="264" y="683" type="curve" smooth="yes"/>
      <point x="251" y="560"/>
      <point x="236" y="381"/>
      <point x="230" y="231" type="curve"/>
      <point x="218" y="226"/>
      <point x="202" y="225"/>
      <point x="185" y="225" type="curve"/>
      <point x="174" y="416"/>
      <point x="163" y="543"/>
      <point x="145" y="681" type="curve"/>
      <point x="172" y="687"/>
      <point x="224" y="702"/>
      <point x="246" y="714" type="curve"/>
      <point x="258.25" y="709.625"/>
      <point x="264.375" y="702.188"/>
      <point x="264.375" y="689.008" type="curve" smooth="yes"/>
      <point x="264.375" y="687.125"/>
      <point x="264.25" y="685.125"/>
    </contour>
    <contour>
      <point x="266" y="50" type="curve" smooth="yes"/>
      <point x="266" y="10"/>
      <point x="238" y="-8"/>
      <point x="207" y="-8" type="curve" smooth="yes"/>
      <point x="171" y="-8"/>
      <point x="150" y="14"/>
      <point x="150" y="45" type="curve" smooth="yes"/>
      <point x="150" y="76"/>
      <point x="175" y="102"/>
      <point x="211" y="102" type="curve" smooth="yes"/>
      <point x="245" y="102"/>
      <point x="266" y="73"/>
    </contour>
  </outline>
</glyph>
<glyph name="quotedbl" format="1">
  <advance width="343"/>
  <unicode hex="0022"/>
  <outline>
    <contour>
      <point x="136" y="681" type="curve" smooth="yes"/>
      <point x="135" y="677"/>
      <point x="135" y="672"/>
      <point x="134" y="667" type="curve" smooth="yes"/>
      <point x="128" y="614"/>
      <point x="124" y="554"/>
      <point x="118" y="479" type="curve"/>
      <point x="105" y="479"/>
      <point x="85" y="482"/>
      <point x="79" y="488" type="curve"/>
      <point x="76" y="557"/>
      <point x="70" y="628"/>
      <point x="60" y="693" type="curve"/>
      <point x="78" y="696"/>
      <point x="103" y="704"/>
      <point x="116" y="714" type="curve"/>
      <point x="128.571" y="711.306"/>
      <point x="136.304" y="701.356"/>
      <point x="136.304" y="686.322" type="curve" smooth="yes"/>
      <point x="136.304" y="684.613"/>
      <point x="136.204" y="682.838"/>
    </contour>
    <contour>
      <point x="283" y="687" type="curve" smooth="yes"/>
      <point x="283" y="681" type="line"/>
      <point x="276" y="624"/>
      <point x="271" y="563"/>
      <point x="265" y="478" type="curve"/>
      <point x="251" y="478"/>
      <point x="231" y="481"/>
      <point x="224" y="487" type="curve"/>
      <point x="221" y="556"/>
      <point x="216" y="628"/>
      <point x="206" y="693" type="curve"/>
      <point x="224" y="696"/>
      <point x="249" y="705"/>
      <point x="263" y="714" type="curve"/>
      <point x="275" y="711"/>
      <point x="283" y="702"/>
    </contour>
  </outline>
</glyph>
<glyph name="numbersign" format="1">
  <advance width="592"/>
  <unicode hex="0023"/>
  <outline>
    <contour>
      <point x="363" y="263" type="line"/>
      <point x="401" y="443" type="line"/>
      <point x="241" y="443" type="line"/>
      <point x="203" y="263" type="line"/>
    </contour>
    <contour>
      <point x="484" y="443" type="line"/>
      <point x="449" y="443" type="line"/>
      <point x="411" y="263" type="line"/>
      <point x="520" y="263" type="line"/>
      <point x="520" y="243"/>
      <point x="518" y="232"/>
      <point x="508" y="214" type="curve"/>
      <point x="411" y="214" type="line"/>
      <point x="401" y="214" type="line"/>
      <point x="354" y="-8" type="line"/>
      <point x="329" y="-4"/>
      <point x="320" y="3"/>
      <point x="310" y="14" type="curve"/>
      <point x="353" y="214" type="line"/>
      <point x="288" y="214"/>
      <point x="236" y="214"/>
      <point x="193" y="213" type="curve"/>
      <point x="146" y="-8" type="line"/>
      <point x="124" y="-5"/>
      <point x="111" y="3"/>
      <point x="103" y="18" type="curve"/>
      <point x="144" y="213" type="line"/>
      <point x="86" y="212"/>
      <point x="52" y="212"/>
      <point x="30" y="212" type="curve"/>
      <point x="30" y="227"/>
      <point x="34" y="246"/>
      <point x="42" y="263" type="curve"/>
      <point x="155" y="263" type="line"/>
      <point x="193" y="442" type="line"/>
      <point x="154" y="442"/>
      <point x="118" y="442"/>
      <point x="83" y="441" type="curve"/>
      <point x="83" y="456"/>
      <point x="86" y="475"/>
      <point x="95" y="492" type="curve"/>
      <point x="204" y="492" type="line"/>
      <point x="251" y="714" type="line"/>
      <point x="269" y="711"/>
      <point x="283" y="706"/>
      <point x="294" y="692" type="curve"/>
      <point x="252" y="492" type="line"/>
      <point x="412" y="492" type="line"/>
      <point x="459" y="714" type="line"/>
      <point x="479" y="710"/>
      <point x="493" y="704"/>
      <point x="502" y="694" type="curve"/>
      <point x="459" y="492" type="line"/>
      <point x="562" y="492" type="line"/>
      <point x="562" y="472"/>
      <point x="560" y="460"/>
      <point x="550" y="443" type="curve"/>
    </contour>
  </outline>
</glyph>
<glyph name="dollar" format="1">
  <advance width="552"/>
  <unicode hex="0024"/>
  <outline>
    <contour>
      <point x="300" y="39" type="curve"/>
      <point x="381" y="44"/>
      <point x="413" y="88"/>
      <point x="413" y="143" type="curve" smooth="yes"/>
      <point x="413" y="213"/>
      <point x="361" y="248"/>
      <point x="299" y="278" type="curve"/>
      <point x="299" y="193"/>
      <point x="299" y="122"/>
    </contour>
    <contour>
      <point x="167" y="542" type="curve" smooth="yes"/>
      <point x="167" y="482"/>
      <point x="205" y="447"/>
      <point x="255" y="418" type="curve"/>
      <point x="255" y="639" type="line"/>
      <point x="199" y="632"/>
      <point x="167" y="597"/>
    </contour>
    <contour>
      <point x="499" y="183" type="curve" smooth="yes"/>
      <point x="499" y="89"/>
      <point x="438" y="3"/>
      <point x="300" y="-8" type="curve"/>
      <point x="300" y="-34"/>
      <point x="301" y="-61"/>
      <point x="301" y="-91" type="curve"/>
      <point x="286" y="-91"/>
      <point x="264" y="-86"/>
      <point x="255" y="-80" type="curve"/>
      <point x="255" y="-9" type="line"/>
      <point x="181" y="-6"/>
      <point x="128" y="19"/>
      <point x="68" y="55" type="curve"/>
      <point x="76" y="105"/>
      <point x="77" y="160"/>
      <point x="77" y="197" type="curve"/>
      <point x="92" y="201"/>
      <point x="114" y="203"/>
      <point x="131" y="203" type="curve"/>
      <point x="136" y="111"/>
      <point x="170" y="52"/>
      <point x="255" y="41" type="curve"/>
      <point x="255" y="299" type="line"/>
      <point x="169" y="340"/>
      <point x="80" y="385"/>
      <point x="80" y="505" type="curve" smooth="yes"/>
      <point x="80" y="609"/>
      <point x="146" y="675"/>
      <point x="255" y="684" type="curve"/>
      <point x="255" y="744" type="line"/>
      <point x="275" y="744"/>
      <point x="287" y="742"/>
      <point x="301" y="733" type="curve"/>
      <point x="301" y="717"/>
      <point x="300" y="701"/>
      <point x="300" y="684" type="curve"/>
      <point x="362" y="681"/>
      <point x="416" y="662"/>
      <point x="448" y="641" type="curve"/>
      <point x="448" y="602"/>
      <point x="449" y="545"/>
      <point x="454" y="509" type="curve"/>
      <point x="439" y="503"/>
      <point x="416" y="500"/>
      <point x="398" y="500" type="curve"/>
      <point x="380" y="602"/>
      <point x="348" y="634"/>
      <point x="300" y="640" type="curve"/>
      <point x="299" y="560"/>
      <point x="299" y="478"/>
      <point x="299" y="395" type="curve"/>
      <point x="392" y="350"/>
      <point x="499" y="308"/>
    </contour>
  </outline>
</glyph>
<glyph name="percent" format="1">
  <advance width="863"/>
  <unicode hex="0025"/>
  <outline>
    <contour>
      <point x="624" y="34" type="curve" smooth="yes"/>
      <point x="657" y="34"/>
      <point x="697" y="71"/>
      <point x="697" y="145" type="curve" smooth="yes"/>
      <point x="697" y="217"/>
      <point x="662" y="268"/>
      <point x="613" y="268" type="curve" smooth="yes"/>
      <point x="571" y="268"/>
      <point x="537" y="221"/>
      <point x="537" y="158" type="curve" smooth="yes"/>
      <point x="537" y="86"/>
      <point x="570" y="34"/>
    </contour>
    <contour>
      <point x="616" y="-8" type="curve" smooth="yes"/>
      <point x="512" y="-8"/>
      <point x="460" y="69"/>
      <point x="460" y="145" type="curve" smooth="yes"/>
      <point x="460" y="231"/>
      <point x="516" y="310"/>
      <point x="626" y="310" type="curve" smooth="yes"/>
      <point x="723" y="310"/>
      <point x="773" y="231"/>
      <point x="773" y="159" type="curve" smooth="yes"/>
      <point x="773" y="69"/>
      <point x="717" y="-8"/>
    </contour>
    <contour>
      <point x="254" y="401" type="curve" smooth="yes"/>
      <point x="287" y="401"/>
      <point x="327" y="438"/>
      <point x="327" y="512" type="curve" smooth="yes"/>
      <point x="327" y="584"/>
      <point x="292" y="635"/>
      <point x="243" y="635" type="curve" smooth="yes"/>
      <point x="201" y="635"/>
      <point x="167" y="588"/>
      <point x="167" y="525" type="curve" smooth="yes"/>
      <point x="167" y="453"/>
      <point x="200" y="401"/>
    </contour>
    <contour>
      <point x="246" y="359" type="curve" smooth="yes"/>
      <point x="142" y="359"/>
      <point x="90" y="436"/>
      <point x="90" y="512" type="curve" smooth="yes"/>
      <point x="90" y="598"/>
      <point x="146" y="677"/>
      <point x="256" y="677" type="curve" smooth="yes"/>
      <point x="353" y="677"/>
      <point x="403" y="598"/>
      <point x="403" y="526" type="curve" smooth="yes"/>
      <point x="403" y="436"/>
      <point x="347" y="359"/>
    </contour>
    <contour>
      <point x="174" y="-7" type="line"/>
      <point x="156" y="3"/>
      <point x="142" y="17"/>
      <point x="138" y="30" type="curve"/>
      <point x="691" y="686" type="line"/>
      <point x="710" y="682"/>
      <point x="721" y="671"/>
      <point x="733" y="657" type="curve"/>
    </contour>
  </outline>
</glyph>
<glyph name="ampersand" format="1">
  <advance width="742"/>
  <unicode hex="0026"/>
  <outline>
    <contour>
      <point x="572" y="102" type="curve" smooth="yes"/>
      <point x="605" y="67"/>
      <point x="627" y="59"/>
      <point x="687" y="55" type="curve"/>
      <point x="687" y="42"/>
      <point x="686" y="24"/>
      <point x="681" y="10" type="curve"/>
      <point x="643" y="10"/>
      <point x="568" y="1"/>
      <point x="535" y="-9" type="curve"/>
      <point x="509" y="26"/>
      <point x="483" y="58"/>
      <point x="457" y="89" type="curve"/>
      <point x="400" y="19"/>
      <point x="342" y="-10"/>
      <point x="268" y="-10" type="curve" smooth="yes"/>
      <point x="108" y="-10"/>
      <point x="54" y="106"/>
      <point x="54" y="208" type="curve" smooth="yes"/>
      <point x="54" y="301"/>
      <point x="110" y="372"/>
      <point x="182" y="421" type="curve"/>
      <point x="156" y="468"/>
      <point x="142" y="514"/>
      <point x="142" y="568" type="curve" smooth="yes"/>
      <point x="142" y="644"/>
      <point x="201" y="717"/>
      <point x="306" y="717" type="curve" smooth="yes"/>
      <point x="363" y="717"/>
      <point x="400" y="706"/>
      <point x="442" y="682" type="curve"/>
      <point x="438.292" y="656.042"/>
      <point x="436.234" y="626.234"/>
      <point x="436.234" y="596.246" type="curve" smooth="yes"/>
      <point x="436.234" y="585.801"/>
      <point x="436.483" y="575.334"/>
      <point x="437" y="565" type="curve"/>
      <point x="421" y="558"/>
      <point x="400" y="557"/>
      <point x="384" y="557" type="curve"/>
      <point x="379" y="642"/>
      <point x="354" y="673"/>
      <point x="300" y="673" type="curve" smooth="yes"/>
      <point x="254" y="673"/>
      <point x="221" y="641"/>
      <point x="221" y="587" type="curve" smooth="yes"/>
      <point x="221" y="528"/>
      <point x="238" y="487"/>
      <point x="315" y="391" type="curve" smooth="yes"/>
      <point x="348" y="350"/>
      <point x="391" y="298"/>
      <point x="485" y="196" type="curve"/>
      <point x="518" y="251"/>
      <point x="537" y="293"/>
      <point x="547" y="334" type="curve" smooth="yes"/>
      <point x="549.556" y="344.223"/>
      <point x="550.913" y="353.17"/>
      <point x="550.913" y="361.054" type="curve" smooth="yes"/>
      <point x="550.913" y="393.277"/>
      <point x="528.239" y="407.752"/>
      <point x="472" y="419" type="curve"/>
      <point x="468" y="432"/>
      <point x="465" y="448"/>
      <point x="465" y="461" type="curve"/>
      <point x="493" y="459"/>
      <point x="534" y="458"/>
      <point x="567" y="458" type="curve" smooth="yes"/>
      <point x="600" y="458"/>
      <point x="644" y="459"/>
      <point x="667" y="461" type="curve"/>
      <point x="667" y="449"/>
      <point x="666" y="432"/>
      <point x="663" y="420" type="curve"/>
      <point x="622" y="405"/>
      <point x="607" y="385"/>
      <point x="594" y="338" type="curve" smooth="yes"/>
      <point x="578" y="281"/>
      <point x="556" y="230"/>
      <point x="517" y="161" type="curve"/>
      <point x="534" y="143"/>
      <point x="552" y="123"/>
    </contour>
    <contour>
      <point x="281" y="67" type="curve" smooth="yes"/>
      <point x="336" y="67"/>
      <point x="378" y="84"/>
      <point x="424" y="127" type="curve"/>
      <point x="371" y="188"/>
      <point x="318" y="245"/>
      <point x="265" y="307" type="curve" smooth="yes"/>
      <point x="241" y="336"/>
      <point x="220" y="362"/>
      <point x="202" y="389" type="curve"/>
      <point x="167" y="352"/>
      <point x="138" y="305"/>
      <point x="138" y="237" type="curve" smooth="yes"/>
      <point x="138" y="126"/>
      <point x="203" y="67"/>
    </contour>
  </outline>
</glyph>
<glyph name="quotesingle" format="1">
  <advance width="198"/>
  <unicode hex="0027"/>
  <outline>
    <contour>
      <point x="138" y="690" type="curve" smooth="yes"/>
      <point x="138" y="681" type="line"/>
      <point x="130" y="623"/>
      <point x="126" y="564"/>
      <point x="120" y="477" type="curve"/>
      <point x="106" y="477"/>
      <point x="86" y="480"/>
      <point x="80" y="487" type="curve"/>
      <point x="77" y="557"/>
      <point x="71" y="627"/>
      <point x="60" y="693" type="curve"/>
      <point x="79" y="696"/>
      <point x="103" y="705"/>
      <point x="117" y="714" type="curve"/>
      <point x="129" y="712"/>
      <point x="137" y="703"/>
    </contour>
  </outline>
</glyph>
<glyph name="parenleft" format="1">
  <advance width="291"/>
  <unicode hex="0028"/>
  <outline>
    <contour>
      <point x="250" y="729" type="curve"/>
      <point x="156" y="588"/>
      <point x="120.001" y="442"/>
      <point x="120.001" y="240" type="curve" smooth="yes"/>
      <point x="120.001" y="33"/>
      <point x="161.001" y="-117"/>
      <point x="256.001" y="-266" type="curve"/>
      <point x="250.136" y="-270.562"/>
      <point x="241.723" y="-272.15"/>
      <point x="233.252" y="-272.15" type="curve" smooth="yes"/>
      <point x="228.725" y="-272.15"/>
      <point x="224.181" y="-271.696"/>
      <point x="220.001" y="-271" type="curve" smooth="yes"/>
      <point x="103.001" y="-115"/>
      <point x="35.001" y="45"/>
      <point x="35.001" y="240" type="curve" smooth="yes"/>
      <point x="35.001" y="414"/>
      <point x="87.001" y="556"/>
      <point x="215.001" y="741" type="curve" smooth="yes"/>
      <point x="217.509" y="741.295"/>
      <point x="219.799" y="741.438"/>
      <point x="221.916" y="741.438" type="curve" smooth="yes"/>
      <point x="234.152" y="741.438"/>
      <point x="240.623" y="736.672"/>
    </contour>
  </outline>
</glyph>
<glyph name="parenright" format="1">
  <advance width="291"/>
  <unicode hex="0029"/>
  <outline>
    <contour>
      <point x="76" y="741" type="curve" smooth="yes"/>
      <point x="204" y="556"/>
      <point x="256.002" y="414.001"/>
      <point x="256.002" y="240.001" type="curve" smooth="yes"/>
      <point x="256.002" y="45.001"/>
      <point x="188.002" y="-114.999"/>
      <point x="71.002" y="-270.999" type="curve" smooth="yes"/>
      <point x="67.1699" y="-271.695"/>
      <point x="62.7314" y="-272.149"/>
      <point x="58.1934" y="-272.149" type="curve" smooth="yes"/>
      <point x="49.7041" y="-272.149"/>
      <point x="40.8662" y="-270.561"/>
      <point x="35.001" y="-265.999" type="curve"/>
      <point x="130.001" y="-116.999"/>
      <point x="171.001" y="33.001"/>
      <point x="171.001" y="240.001" type="curve" smooth="yes"/>
      <point x="171.001" y="442.001"/>
      <point x="135.001" y="588.001"/>
      <point x="41.001" y="729.001" type="curve"/>
      <point x="49.2344" y="736.319"/>
      <point x="58.3047" y="741.127"/>
      <point x="72.041" y="741.127" type="curve" smooth="yes"/>
      <point x="73.3193" y="741.127"/>
      <point x="74.6377" y="741.085"/>
    </contour>
  </outline>
</glyph>
<glyph name="asterisk" format="1">
  <advance width="443"/>
  <unicode hex="002A"/>
  <outline>
    <contour>
      <point x="233" y="603" type="curve"/>
      <point x="281" y="611"/>
      <point x="322" y="621"/>
      <point x="373" y="635" type="curve"/>
      <point x="378.856" y="622.555"/>
      <point x="382.569" y="603.679"/>
      <point x="382.569" y="586.219" type="curve" smooth="yes"/>
      <point x="382.569" y="579.828"/>
      <point x="382.072" y="573.627"/>
      <point x="381" y="568" type="curve"/>
      <point x="338" y="571"/>
      <point x="285" y="573"/>
      <point x="236" y="574" type="curve"/>
      <point x="259" y="530"/>
      <point x="281" y="495"/>
      <point x="309" y="451" type="curve"/>
      <point x="293" y="436"/>
      <point x="275" y="427"/>
      <point x="248" y="424" type="curve"/>
      <point x="239" y="464"/>
      <point x="224" y="515"/>
      <point x="209" y="561" type="curve"/>
      <point x="175" y="527"/>
      <point x="148" y="495"/>
      <point x="116" y="455" type="curve"/>
      <point x="99" y="464"/>
      <point x="77" y="484"/>
      <point x="71" y="505" type="curve"/>
      <point x="106" y="526"/>
      <point x="150" y="556"/>
      <point x="190" y="585" type="curve"/>
      <point x="147" y="606"/>
      <point x="108" y="622"/>
      <point x="60" y="640" type="curve"/>
      <point x="64" y="659"/>
      <point x="75" y="685"/>
      <point x="93" y="698" type="curve"/>
      <point x="124" y="671"/>
      <point x="166" y="639"/>
      <point x="205" y="610" type="curve"/>
      <point x="212" y="658"/>
      <point x="215" y="699"/>
      <point x="217" y="751" type="curve"/>
      <point x="220.537" y="751.372"/>
      <point x="224.454" y="751.571"/>
      <point x="228.605" y="751.571" type="curve" smooth="yes"/>
      <point x="246.753" y="751.571"/>
      <point x="269.351" y="747.766"/>
      <point x="284" y="738" type="curve"/>
      <point x="267" y="699"/>
      <point x="249" y="649"/>
    </contour>
  </outline>
</glyph>
<glyph name="plus" format="1">
  <advance width="550"/>
  <unicode hex="002B"/>
  <outline>
    <contour>
      <point x="501" y="283" type="line"/>
      <point x="501" y="263"/>
      <point x="500" y="247"/>
      <point x="491" y="233" type="curve"/>
      <point x="402" y="234"/>
      <point x="359" y="234"/>
      <point x="298" y="234" type="curve"/>
      <point x="298" y="13" type="line"/>
      <point x="289" y="7"/>
      <point x="263" y="3"/>
      <point x="248" y="3" type="curve"/>
      <point x="249" y="71"/>
      <point x="250" y="161"/>
      <point x="250" y="234" type="curve"/>
      <point x="186" y="234"/>
      <point x="111" y="233"/>
      <point x="49" y="232" type="curve"/>
      <point x="49" y="246"/>
      <point x="52" y="274"/>
      <point x="58" y="283" type="curve"/>
      <point x="250" y="283" type="line"/>
      <point x="250" y="349"/>
      <point x="250" y="397"/>
      <point x="249" y="493" type="curve"/>
      <point x="263" y="502"/>
      <point x="278" y="503"/>
      <point x="298" y="503" type="curve"/>
      <point x="298" y="283" type="line"/>
    </contour>
  </outline>
</glyph>
<glyph name="hyphen" format="1">
  <advance width="419"/>
  <unicode hex="002D"/>
  <outline>
    <contour>
      <point x="359" y="294" type="line"/>
      <point x="359" y="273"/>
      <point x="355" y="247"/>
      <point x="346" y="229" type="curve"/>
      <point x="273" y="229"/>
      <point x="131" y="227"/>
      <point x="60" y="225" type="curve"/>
      <point x="60" y="248"/>
      <point x="67" y="277"/>
      <point x="76" y="294" type="curve"/>
    </contour>
  </outline>
</glyph>
<glyph name="period" format="1">
  <advance width="236"/>
  <unicode hex="002E"/>
  <outline>
    <contour>
      <point x="116" y="-10" type="curve" smooth="yes"/>
      <point x="73" y="-10"/>
      <point x="48" y="17"/>
      <point x="48" y="54" type="curve" smooth="yes"/>
      <point x="48" y="91"/>
      <point x="78" y="122"/>
      <point x="121" y="122" type="curve" smooth="yes"/>
      <point x="162" y="122"/>
      <point x="187" y="88"/>
      <point x="187" y="60" type="curve" smooth="yes"/>
      <point x="187" y="12"/>
      <point x="154" y="-10"/>
    </contour>
  </outline>
</glyph>
<glyph name="slash" format="1">
  <advance width="365"/>
  <unicode hex="002F"/>
  <outline>
    <contour>
      <point x="76" y="-9" type="line"/>
      <point x="57" y="-3"/>
      <point x="40" y="8"/>
      <point x="33" y="17" type="curve"/>
      <point x="291" y="713" type="line"/>
      <point x="305" y="709"/>
      <point x="325" y="697"/>
      <point x="334" y="687" type="curve"/>
    </contour>
  </outline>
</glyph>
<glyph name="zero" format="1">
  <advance width="601"/>
  <unicode hex="0030"/>
  <outline>
    <contour>
      <point x="304.879" y="394" type="curve" smooth="yes"/>
      <point x="416.37" y="394"/>
      <point x="506.855" y="303.515"/>
      <point x="506.855" y="191.977" type="curve" smooth="yes"/>
      <point x="506.855" y="80.4854"/>
      <point x="416.37" y="-10"/>
      <point x="304.855" y="-10" type="curve" smooth="yes"/>
      <point x="193.397" y="-9.96777"/>
      <point x="102.938" y="80.5176"/>
      <point x="102.938" y="192.023" type="curve" smooth="yes"/>
      <point x="102.938" y="303.482"/>
      <point x="193.397" y="393.968"/>
    </contour>
    <contour>
      <point x="175.661" y="191.991" type="curve" smooth="yes"/>
      <point x="175.661" y="120.675"/>
      <point x="233.54" y="62.7646"/>
      <point x="304.869" y="62.7256" type="curve" smooth="yes"/>
      <point x="376.223" y="62.7256"/>
      <point x="434.134" y="120.637"/>
      <point x="434.134" y="192.013" type="curve" smooth="yes"/>
      <point x="434.134" y="263.367"/>
      <point x="376.223" y="321.278"/>
      <point x="304.869" y="321.278" type="curve" smooth="yes"/>
      <point x="233.54" y="321.239"/>
      <point x="175.661" y="263.329"/>
    </contour>
  </outline>
</glyph>
<glyph name="one" format="1">
  <advance width="326"/>
  <unicode hex="0031"/>
  <outline>
    <contour>
      <point x="100" y="0" type="line" smooth="yes"/>
      <point x="94" y="0"/>
      <point x="90" y="10"/>
      <point x="90" y="16" type="curve" smooth="yes"/>
      <point x="90" y="22"/>
      <point x="94" y="32"/>
      <point x="100" y="32" type="curve" smooth="yes"/>
      <point x="115" y="32" type="line" smooth="yes"/>
      <point x="121" y="32"/>
      <point x="125" y="36"/>
      <point x="125" y="42" type="curve" smooth="yes"/>
      <point x="125" y="342" type="line" smooth="yes"/>
      <point x="125" y="347.996"/>
      <point x="121" y="352"/>
      <point x="115" y="352" type="curve" smooth="yes"/>
      <point x="100" y="352" type="line" smooth="yes"/>
      <point x="94" y="352"/>
      <point x="90" y="362"/>
      <point x="90" y="368" type="curve" smooth="yes"/>
      <point x="90" y="374"/>
      <point x="94" y="384"/>
      <point x="100" y="384" type="curve" smooth="yes"/>
      <point x="226" y="384" type="line" smooth="yes"/>
      <point x="232" y="384"/>
      <point x="236" y="374"/>
      <point x="236" y="368" type="curve" smooth="yes"/>
      <point x="236" y="362"/>
      <point x="232" y="352"/>
      <point x="226" y="352" type="curve" smooth="yes"/>
      <point x="211" y="352" type="line" smooth="yes"/>
      <point x="205" y="352"/>
      <point x="201" y="347.996"/>
      <point x="201" y="342" type="curve" smooth="yes"/>
      <point x="201" y="42" type="line" smooth="yes"/>
      <point x="201" y="36"/>
      <point x="205" y="32"/>
      <point x="211" y="32" type="curve" smooth="yes"/>
      <point x="226" y="32" type="line" smooth="yes"/>
      <point x="232" y="32"/>
      <point x="236" y="22"/>
      <point x="236" y="16" type="curve" smooth="yes"/>
      <point x="236" y="10"/>
      <point x="232" y="0"/>
      <point x="226" y="0" type="curve" smooth="yes"/>
    </contour>
  </outline>
</glyph>
<glyph name="two" format="1">
  <advance width="482"/>
  <unicode hex="0032"/>
  <outline>
    <contour>
      <point x="247" y="394" type="curve" smooth="yes"/>
      <point x="338" y="394"/>
      <point x="356" y="329"/>
      <point x="356" y="269" type="curve" smooth="yes"/>
      <point x="356" y="221"/>
      <point x="276" y="137"/>
      <point x="202" y="88" type="curve"/>
      <point x="202" y="78" type="line"/>
      <point x="214" y="82"/>
      <point x="237" y="82"/>
      <point x="245" y="82" type="curve" smooth="yes"/>
      <point x="259" y="82"/>
      <point x="274" y="70"/>
      <point x="298" y="70" type="curve" smooth="yes"/>
      <point x="319" y="70"/>
      <point x="327" y="77"/>
      <point x="344" y="105" type="curve" smooth="yes"/>
      <point x="347" y="110"/>
      <point x="348" y="117"/>
      <point x="376" y="117" type="curve" smooth="yes"/>
      <point x="388" y="117"/>
      <point x="392" y="99"/>
      <point x="392" y="84" type="curve" smooth="yes"/>
      <point x="392" y="68"/>
      <point x="378" y="39"/>
      <point x="371" y="25" type="curve"/>
      <point x="356" y="-3"/>
      <point x="330" y="-7"/>
      <point x="316" y="-7" type="curve" smooth="yes"/>
      <point x="271" y="-7"/>
      <point x="256" y="39"/>
      <point x="228" y="39" type="curve" smooth="yes"/>
      <point x="198" y="39"/>
      <point x="178" y="-6"/>
      <point x="129" y="-6" type="curve" smooth="yes"/>
      <point x="106" y="-6"/>
      <point x="95" y="32"/>
      <point x="95" y="41" type="curve"/>
      <point x="109" y="57"/>
      <point x="122" y="73"/>
      <point x="143" y="90" type="curve" smooth="yes"/>
      <point x="197" y="133" type="line" smooth="yes"/>
      <point x="234" y="162"/>
      <point x="280" y="217"/>
      <point x="280" y="258" type="curve"/>
      <point x="280" y="303"/>
      <point x="252" y="322"/>
      <point x="223" y="322" type="curve" smooth="yes"/>
      <point x="177" y="322"/>
      <point x="144" y="268"/>
      <point x="133" y="250" type="curve"/>
      <point x="122" y="252"/>
      <point x="108" y="255"/>
      <point x="90" y="264" type="curve"/>
      <point x="115" y="315"/>
      <point x="156" y="394"/>
    </contour>
  </outline>
</glyph>
<glyph name="three" format="1">
  <advance width="513"/>
  <unicode hex="0033"/>
  <outline>
    <contour>
      <point x="168.134" y="283.678" type="curve"/>
      <point x="116.99" y="282.038" type="line"/>
      <point x="137.756" y="332.232"/>
      <point x="170" y="394"/>
      <point x="272" y="394" type="curve" smooth="yes"/>
      <point x="316" y="394"/>
      <point x="379.556" y="357.609"/>
      <point x="379.556" y="277.337" type="curve" smooth="yes"/>
      <point x="379.556" y="213.776"/>
      <point x="351.091" y="168.387"/>
      <point x="298.662" y="122.401" type="curve"/>
      <point x="353.401" y="114.712"/>
      <point x="391.483" y="60.2718"/>
      <point x="391.483" y="13.9072" type="curve" smooth="yes"/>
      <point x="391.483" y="-83.8037"/>
      <point x="290.787" y="-187.948"/>
      <point x="205.938" y="-187.948" type="curve" smooth="yes"/>
      <point x="179.358" y="-187.948"/>
      <point x="166.502" y="-185.933"/>
      <point x="144.092" y="-184.235" type="curve"/>
      <point x="133.285" y="-149.469" type="line"/>
      <point x="141.729" y="-149.667"/>
      <point x="157.938" y="-151.523"/>
      <point x="165.665" y="-151.523" type="curve" smooth="yes"/>
      <point x="261.156" y="-151.523"/>
      <point x="299.987" y="-72.9258"/>
      <point x="299.987" y="17.9951" type="curve" smooth="yes"/>
      <point x="299.987" y="45.1865"/>
      <point x="287.352" y="81.3389"/>
      <point x="254.347" y="81.3389" type="curve" smooth="yes"/>
      <point x="222.76" y="81.3389"/>
      <point x="191.303" y="70.7461"/>
      <point x="161.332" y="56.459" type="curve"/>
      <point x="161.332" y="88.4482" type="line"/>
      <point x="181.733" y="96.7363"/>
      <point x="209.994" y="109.833"/>
      <point x="235.079" y="127.026" type="curve"/>
      <point x="272.282" y="163.674"/>
      <point x="283.959" y="180.105"/>
      <point x="283.959" y="281.723" type="curve" smooth="yes"/>
      <point x="283.959" y="304.016"/>
      <point x="274.408" y="332.257"/>
      <point x="241.956" y="332.257" type="curve" smooth="yes"/>
      <point x="197.694" y="332.257"/>
      <point x="177.846" y="305.596"/>
    </contour>
  </outline>
</glyph>
<glyph name="four" format="1">
  <advance width="597"/>
  <unicode hex="0034"/>
  <outline>
    <contour>
      <point x="172" y="7" type="line"/>
      <point x="128" y="7" type="line"/>
      <point x="128" y="53" type="line"/>
      <point x="127" y="53" type="line"/>
      <point x="307" y="384" type="line"/>
      <point x="351" y="384" type="line"/>
      <point x="390" y="384" type="line"/>
      <point x="394.908" y="77" type="line"/>
      <point x="481" y="77" type="line"/>
      <point x="481" y="7" type="line"/>
      <point x="396.027" y="7" type="line"/>
      <point x="397.865" y="-108" type="line"/>
      <point x="422" y="-108" type="line"/>
      <point x="422" y="-179" type="line"/>
      <point x="399" y="-179" type="line"/>
      <point x="311" y="-179" type="line"/>
      <point x="294" y="-179" type="line"/>
      <point x="298.295" y="7" type="line"/>
    </contour>
    <contour>
      <point x="171" y="77" type="line"/>
      <point x="299.911" y="77" type="line"/>
      <point x="305.196" y="305.879" type="line"/>
    </contour>
  </outline>
</glyph>
<glyph name="five" format="1">
  <advance width="488"/>
  <unicode hex="0035"/>
  <outline>
    <contour>
      <point x="140" y="344" type="line"/>
      <point x="272" y="367" type="line" smooth="yes"/>
      <point x="298" y="372"/>
      <point x="379" y="409"/>
      <point x="400" y="422" type="curve"/>
      <point x="413" y="390"/>
      <point x="428" y="365"/>
      <point x="448" y="325" type="curve"/>
      <point x="448" y="307"/>
      <point x="407" y="270"/>
      <point x="365" y="270" type="curve" smooth="yes"/>
      <point x="361" y="270"/>
      <point x="375" y="279"/>
      <point x="296" y="292" type="curve"/>
      <point x="162" y="266" type="line"/>
      <point x="152" y="237" type="line"/>
      <point x="253" y="208"/>
      <point x="366" y="122"/>
      <point x="366" y="-40" type="curve" smooth="yes"/>
      <point x="366" y="-216"/>
      <point x="196" y="-299"/>
      <point x="124" y="-329" type="curve" smooth="yes"/>
      <point x="94" y="-341"/>
      <point x="64" y="-348"/>
      <point x="50" y="-349" type="curve"/>
      <point x="50" y="-340"/>
      <point x="52" y="-329"/>
      <point x="54" y="-323" type="curve"/>
      <point x="69" y="-316"/>
      <point x="103" y="-299"/>
      <point x="129" y="-279" type="curve" smooth="yes"/>
      <point x="162" y="-253"/>
      <point x="255" y="-208"/>
      <point x="255" y="-67" type="curve" smooth="yes"/>
      <point x="255" y="64"/>
      <point x="142" y="138"/>
      <point x="90" y="146" type="curve"/>
      <point x="79" y="153"/>
      <point x="70" y="167"/>
      <point x="73" y="177" type="curve" smooth="yes"/>
    </contour>
  </outline>
</glyph>
<glyph name="six" format="1">
  <advance width="503"/>
  <unicode hex="0036"/>
  <outline>
    <contour>
      <point x="303" y="636" type="curve" smooth="yes"/>
      <point x="334" y="655"/>
      <point x="377" y="679"/>
      <point x="423" y="698" type="curve"/>
      <point x="430.759" y="698"/>
      <point x="443.102" y="691.159"/>
      <point x="448" y="679" type="curve" smooth="yes"/>
      <point x="451" y="671.552"/>
      <point x="451.94" y="664.864"/>
      <point x="452" y="656" type="curve"/>
      <point x="398.556" y="629.802"/>
      <point x="369.883" y="611.04"/>
      <point x="335" y="585" type="curve" smooth="yes"/>
      <point x="272.795" y="538.563"/>
      <point x="213.849" y="460.047"/>
      <point x="190" y="394" type="curve"/>
      <point x="379.736" y="394"/>
      <point x="453" y="291.984"/>
      <point x="453" y="198" type="curve" smooth="yes"/>
      <point x="453" y="54"/>
      <point x="356.462" y="-10"/>
      <point x="251" y="-10" type="curve" smooth="yes"/>
      <point x="122" y="-10"/>
      <point x="50" y="87.2757"/>
      <point x="50" y="213" type="curve" smooth="yes"/>
      <point x="50" y="423.03"/>
      <point x="169.869" y="554.404"/>
    </contour>
    <contour>
      <point x="171" y="349" type="curve"/>
      <point x="163.606" y="328.408"/>
      <point x="150" y="257.902"/>
      <point x="150" y="204" type="curve" smooth="yes"/>
      <point x="150" y="138"/>
      <point x="180.537" y="37"/>
      <point x="247" y="37" type="curve" smooth="yes"/>
      <point x="297.777" y="37"/>
      <point x="338.24" y="77"/>
      <point x="343" y="197" type="curve"/>
      <point x="343" y="297.523"/>
      <point x="269.533" y="349"/>
    </contour>
  </outline>
</glyph>
<glyph name="seven" format="1">
  <advance width="421"/>
  <unicode hex="0037"/>
  <outline>
    <contour>
      <point x="70" y="404" type="curve"/>
      <point x="72.667" y="404.739"/>
      <point x="75.333" y="405"/>
      <point x="78" y="405" type="curve" smooth="yes"/>
      <point x="79.9492" y="405"/>
      <point x="84" y="404.53"/>
      <point x="87" y="404" type="curve"/>
      <point x="87" y="394.667"/>
      <point x="94" y="384"/>
      <point x="111" y="384" type="curve"/>
      <point x="361" y="384" type="line"/>
      <point x="361" y="319" type="line"/>
      <point x="316" y="277" type="line"/>
      <point x="74" y="277" type="line" smooth="yes"/>
      <point x="60.0811" y="277"/>
      <point x="50" y="303.667"/>
      <point x="50" y="341" type="curve" smooth="yes"/>
      <point x="50" y="352.433"/>
      <point x="57.7129" y="386.116"/>
    </contour>
    <contour>
      <point x="296" y="384" type="line"/>
      <point x="361" y="384" type="line"/>
      <point x="361" y="319" type="line"/>
      <point x="285.559" y="162.647"/>
      <point x="213.206" y="7.54688"/>
      <point x="153" y="-170" type="curve"/>
      <point x="120" y="-170"/>
      <point x="91.667" y="-156.664"/>
      <point x="61" y="-127" type="curve"/>
      <point x="146.111" y="9.9502"/>
      <point x="226.663" y="148.372"/>
      <point x="286" y="276" type="curve"/>
    </contour>
  </outline>
</glyph>
<glyph name="eight" format="1">
  <advance width="508"/>
  <unicode hex="0038"/>
  <outline>
    <contour>
      <point x="66" y="545" type="curve" smooth="yes"/>
      <point x="66" y="636"/>
      <point x="146" y="698"/>
      <point x="254" y="698" type="curve" smooth="yes"/>
      <point x="320" y="698"/>
      <point x="434" y="638"/>
      <point x="434" y="532" type="curve" smooth="yes"/>
      <point x="434" y="434"/>
      <point x="401" y="419"/>
      <point x="322" y="361" type="curve"/>
      <point x="391" y="316"/>
      <point x="445" y="256"/>
      <point x="445" y="173" type="curve" smooth="yes"/>
      <point x="445" y="61"/>
      <point x="323" y="-10"/>
      <point x="254" y="-10" type="curve" smooth="yes"/>
      <point x="160" y="-10"/>
      <point x="52" y="42"/>
      <point x="52" y="148" type="curve" smooth="yes"/>
      <point x="52" y="241"/>
      <point x="91" y="296"/>
      <point x="166" y="342" type="curve"/>
      <point x="109" y="399"/>
      <point x="66" y="469"/>
    </contour>
    <contour>
      <point x="334" y="543" type="curve" smooth="yes"/>
      <point x="334" y="584.539"/>
      <point x="297.808" y="638.013"/>
      <point x="238" y="638.013" type="curve" smooth="yes"/>
      <point x="201" y="638.013"/>
      <point x="169" y="597.427"/>
      <point x="169" y="543" type="curve" smooth="yes"/>
      <point x="169" y="486"/>
      <point x="223" y="428"/>
      <point x="267" y="392" type="curve"/>
      <point x="313" y="441"/>
      <point x="334" y="470"/>
    </contour>
    <contour>
      <point x="211" y="303" type="curve"/>
      <point x="172" y="265"/>
      <point x="159" y="216"/>
      <point x="159" y="169" type="curve" smooth="yes"/>
      <point x="159" y="104"/>
      <point x="219" y="48"/>
      <point x="268" y="48" type="curve" smooth="yes"/>
      <point x="304" y="48"/>
      <point x="332" y="94"/>
      <point x="334" y="163" type="curve" smooth="yes"/>
      <point x="334" y="211"/>
      <point x="280" y="255"/>
    </contour>
  </outline>
</glyph>
<glyph name="nine" format="1">
  <advance width="530"/>
  <unicode hex="0039"/>
  <outline>
    <contour>
      <point x="285" y="394" type="curve" smooth="yes"/>
      <point x="415.143" y="394"/>
      <point x="470" y="311.484"/>
      <point x="470" y="210" type="curve" smooth="yes"/>
      <point x="470" y="120.223"/>
      <point x="442.758" y="56.2764"/>
      <point x="388" y="-18" type="curve" smooth="yes"/>
      <point x="290.091" y="-122.118"/>
      <point x="187.865" y="-202"/>
      <point x="96" y="-250" type="curve"/>
      <point x="72.5215" y="-250"/>
      <point x="60" y="-214"/>
      <point x="60" y="-191" type="curve"/>
      <point x="162.642" y="-121.677"/>
      <point x="240.951" y="-55.7734"/>
      <point x="297" y="7" type="curve"/>
      <point x="153.746" y="36"/>
      <point x="96" y="98"/>
      <point x="96" y="200" type="curve" smooth="yes"/>
      <point x="96" y="307"/>
      <point x="172.022" y="394"/>
    </contour>
    <contour>
      <point x="295" y="346" type="curve" smooth="yes"/>
      <point x="226.8" y="346"/>
      <point x="185" y="284.327"/>
      <point x="185" y="200" type="curve" smooth="yes"/>
      <point x="185" y="124.615"/>
      <point x="220" y="83"/>
      <point x="325" y="53" type="curve"/>
      <point x="361.519" y="93"/>
      <point x="383" y="144.564"/>
      <point x="383" y="200" type="curve" smooth="yes"/>
      <point x="383" y="274.259"/>
      <point x="348.777" y="346"/>
    </contour>
  </outline>
</glyph>
<glyph name="colon" format="1">
  <advance width="236"/>
  <unicode hex="003A"/>
  <outline>
    <contour>
      <point x="117" y="25" type="curve" smooth="yes"/>
      <point x="81" y="25"/>
      <point x="60" y="47"/>
      <point x="60" y="78" type="curve" smooth="yes"/>
      <point x="60" y="109"/>
      <point x="85" y="135"/>
      <point x="121" y="135" type="curve" smooth="yes"/>
      <point x="155" y="135"/>
      <point x="176" y="106"/>
      <point x="176" y="83" type="curve" smooth="yes"/>
      <point x="176" y="43"/>
      <point x="148" y="25"/>
    </contour>
    <contour>
      <point x="117" y="311" type="curve" smooth="yes"/>
      <point x="81" y="311"/>
      <point x="60" y="333"/>
      <point x="60" y="364" type="curve" smooth="yes"/>
      <point x="60" y="395"/>
      <point x="85" y="421"/>
      <point x="121" y="421" type="curve" smooth="yes"/>
      <point x="155" y="421"/>
      <point x="176" y="392"/>
      <point x="176" y="369" type="curve" smooth="yes"/>
      <point x="176" y="329"/>
      <point x="148" y="311"/>
    </contour>
  </outline>
</glyph>
<glyph name="semicolon" format="1">
  <advance width="259"/>
  <unicode hex="003B"/>
  <outline>
    <contour>
      <point x="199" y="25" type="curve" smooth="yes"/>
      <point x="199" y="-54"/>
      <point x="149" y="-130"/>
      <point x="92" y="-185" type="curve"/>
      <point x="80" y="-185"/>
      <point x="67" y="-179"/>
      <point x="60" y="-170" type="curve"/>
      <point x="101" y="-124"/>
      <point x="124" y="-77"/>
      <point x="124" y="-43" type="curve" smooth="yes"/>
      <point x="124" y="-15"/>
      <point x="109" y="3"/>
      <point x="77" y="7" type="curve"/>
      <point x="77" y="20"/>
      <point x="79" y="50"/>
      <point x="85" y="67" type="curve"/>
      <point x="115" y="73"/>
      <point x="143" y="83"/>
      <point x="165" y="97" type="curve"/>
      <point x="188" y="88"/>
      <point x="199" y="63"/>
    </contour>
    <contour>
      <point x="139" y="311" type="curve" smooth="yes"/>
      <point x="103" y="311"/>
      <point x="82" y="333"/>
      <point x="82" y="364" type="curve" smooth="yes"/>
      <point x="82" y="395"/>
      <point x="107" y="421"/>
      <point x="143" y="421" type="curve" smooth="yes"/>
      <point x="177" y="421"/>
      <point x="198" y="392"/>
      <point x="198" y="369" type="curve" smooth="yes"/>
      <point x="198" y="329"/>
      <point x="170" y="311"/>
    </contour>
  </outline>
</glyph>
<glyph name="less" format="1">
  <advance width="550"/>
  <unicode hex="003C"/>
  <outline>
    <contour>
      <point x="456" y="18" type="curve"/>
      <point x="323" y="97"/>
      <point x="187" y="172"/>
      <point x="66" y="234" type="curve"/>
      <point x="64.7335" y="240.332"/>
      <point x="64.0685" y="246.464"/>
      <point x="64.0685" y="252.364" type="curve" smooth="yes"/>
      <point x="64.0685" y="265.098"/>
      <point x="67.1662" y="276.749"/>
      <point x="74" y="287" type="curve"/>
      <point x="435" y="505" type="line"/>
      <point x="452" y="499"/>
      <point x="462" y="490"/>
      <point x="473" y="472" type="curve"/>
      <point x="117" y="260" type="line"/>
      <point x="466" y="74" type="line"/>
      <point x="467.033" y="69.0915"/>
      <point x="467.533" y="63.7158"/>
      <point x="467.533" y="58.2522" type="curve" smooth="yes"/>
      <point x="467.533" y="42.5673"/>
      <point x="463.417" y="26.1582"/>
    </contour>
  </outline>
</glyph>
<glyph name="equal" format="1">
  <advance width="550"/>
  <unicode hex="003D"/>
  <outline>
    <contour>
      <point x="57" y="313" type="curve"/>
      <point x="57" y="328"/>
      <point x="62" y="353"/>
      <point x="68" y="362" type="curve"/>
      <point x="493" y="362" type="line"/>
      <point x="493" y="342"/>
      <point x="491" y="328"/>
      <point x="483" y="314" type="curve"/>
      <point x="405" y="315"/>
      <point x="367" y="315"/>
      <point x="283" y="315" type="curve" smooth="yes"/>
      <point x="197" y="315"/>
      <point x="146" y="315"/>
    </contour>
    <contour>
      <point x="57" y="147" type="curve"/>
      <point x="57" y="162"/>
      <point x="61" y="188"/>
      <point x="67" y="197" type="curve"/>
      <point x="494" y="197" type="line"/>
      <point x="494" y="176"/>
      <point x="492" y="162"/>
      <point x="484" y="148" type="curve"/>
      <point x="406" y="149"/>
      <point x="367" y="149"/>
      <point x="283" y="149" type="curve" smooth="yes"/>
      <point x="197" y="149"/>
      <point x="145" y="149"/>
    </contour>
  </outline>
</glyph>
<glyph name="greater" format="1">
  <advance width="550"/>
  <unicode hex="003E"/>
  <outline>
    <contour>
      <point x="486" y="277" type="line" smooth="yes"/>
      <point x="486.75" y="272.75"/>
      <point x="487.126" y="268.501"/>
      <point x="487.126" y="264.282" type="curve" smooth="yes"/>
      <point x="487.126" y="251.626"/>
      <point x="483.751" y="239.251"/>
      <point x="477.001" y="228.001" type="curve"/>
      <point x="329.001" y="153.001"/>
      <point x="237.001" y="98.001"/>
      <point x="96.001" y="14.001" type="curve"/>
      <point x="88.584" y="22.9004"/>
      <point x="84.4678" y="37.3008"/>
      <point x="84.4678" y="51.8984" type="curve" smooth="yes"/>
      <point x="84.4678" y="56.9834"/>
      <point x="84.9668" y="62.0918"/>
      <point x="86" y="67" type="curve" smooth="yes"/>
      <point x="436" y="259" type="line"/>
      <point x="75" y="472" type="line"/>
      <point x="87" y="490"/>
      <point x="98" y="500"/>
      <point x="117" y="506" type="curve"/>
    </contour>
  </outline>
</glyph>
<glyph name="question" format="1">
  <advance width="537"/>
  <unicode hex="003F"/>
  <outline>
    <contour>
      <point x="272" y="-10" type="curve" smooth="yes"/>
      <point x="229" y="-10"/>
      <point x="204" y="17"/>
      <point x="204" y="54" type="curve" smooth="yes"/>
      <point x="204" y="91"/>
      <point x="234" y="122"/>
      <point x="277" y="122" type="curve" smooth="yes"/>
      <point x="318" y="122"/>
      <point x="343" y="88"/>
      <point x="343" y="60" type="curve" smooth="yes"/>
      <point x="343" y="12"/>
      <point x="310" y="-10"/>
    </contour>
    <contour>
      <point x="274" y="714" type="curve" smooth="yes"/>
      <point x="368" y="714"/>
      <point x="435" y="669"/>
      <point x="435" y="586" type="curve" smooth="yes"/>
      <point x="435" y="455"/>
      <point x="290" y="409"/>
      <point x="290" y="269" type="curve" smooth="yes"/>
      <point x="290" y="253"/>
      <point x="295" y="220"/>
      <point x="301" y="201" type="curve"/>
      <point x="289" y="194"/>
      <point x="278" y="193"/>
      <point x="265" y="193" type="curve"/>
      <point x="243" y="208"/>
      <point x="219" y="258"/>
      <point x="219" y="315" type="curve" smooth="yes"/>
      <point x="219" y="448"/>
      <point x="346" y="478"/>
      <point x="346" y="577" type="curve" smooth="yes"/>
      <point x="346" y="634"/>
      <point x="307" y="673"/>
      <point x="265" y="673" type="curve" smooth="yes"/>
      <point x="215" y="673"/>
      <point x="188" y="636"/>
      <point x="177" y="544" type="curve"/>
      <point x="158" y="544"/>
      <point x="133" y="547"/>
      <point x="120" y="554" type="curve"/>
      <point x="122.11" y="578.794"/>
      <point x="123.386" y="598.3"/>
      <point x="123.386" y="617.363" type="curve" smooth="yes"/>
      <point x="123.386" y="634.438"/>
      <point x="122.362" y="651.156"/>
      <point x="120" y="671" type="curve"/>
      <point x="153" y="692"/>
      <point x="199" y="714"/>
    </contour>
  </outline>
</glyph>
<glyph name="at" format="1">
  <advance width="997"/>
  <unicode hex="0040"/>
  <outline>
    <contour>
      <point x="465" y="73" type="curve" smooth="yes"/>
      <point x="498" y="73"/>
      <point x="567" y="162"/>
      <point x="584" y="339" type="curve" smooth="yes"/>
      <point x="584" y="357"/>
      <point x="585" y="376"/>
      <point x="585" y="393" type="curve"/>
      <point x="557" y="413"/>
      <point x="524" y="422"/>
      <point x="496" y="422" type="curve" smooth="yes"/>
      <point x="432" y="422"/>
      <point x="405" y="365"/>
      <point x="405" y="228" type="curve" smooth="yes"/>
      <point x="405" y="112"/>
      <point x="433" y="73"/>
    </contour>
    <contour>
      <point x="822" y="-43" type="curve"/>
      <point x="839" y="-46"/>
      <point x="849" y="-54"/>
      <point x="853" y="-68" type="curve"/>
      <point x="792" y="-153"/>
      <point x="664" y="-202"/>
      <point x="526" y="-202" type="curve" smooth="yes"/>
      <point x="253" y="-202"/>
      <point x="125" y="-21"/>
      <point x="125" y="228" type="curve" smooth="yes"/>
      <point x="125" y="467"/>
      <point x="275" y="660"/>
      <point x="536" y="660" type="curve" smooth="yes"/>
      <point x="761" y="660"/>
      <point x="872" y="524"/>
      <point x="872" y="359" type="curve" smooth="yes"/>
      <point x="872" y="144"/>
      <point x="748" y="-9"/>
      <point x="648" y="-9" type="curve" smooth="yes"/>
      <point x="596" y="-9"/>
      <point x="580" y="28"/>
      <point x="580" y="89" type="curve" smooth="yes"/>
      <point x="580" y="107"/>
      <point x="580" y="133"/>
      <point x="581" y="165" type="curve"/>
      <point x="551" y="62"/>
      <point x="503" y="-9"/>
      <point x="439" y="-9" type="curve" smooth="yes"/>
      <point x="365" y="-9"/>
      <point x="315" y="47"/>
      <point x="315" y="198" type="curve" smooth="yes"/>
      <point x="315" y="356"/>
      <point x="391" y="467"/>
      <point x="502" y="467" type="curve" smooth="yes"/>
      <point x="534" y="467"/>
      <point x="560" y="465"/>
      <point x="592" y="458" type="curve" smooth="yes"/>
      <point x="608" y="458"/>
      <point x="626" y="461"/>
      <point x="643" y="467" type="curve"/>
      <point x="661" y="461"/>
      <point x="665" y="445"/>
      <point x="665" y="371" type="curve" smooth="yes"/>
      <point x="665" y="180" type="line" smooth="yes"/>
      <point x="665" y="81"/>
      <point x="668" y="69"/>
      <point x="701" y="69" type="curve" smooth="yes"/>
      <point x="741" y="69"/>
      <point x="823" y="167"/>
      <point x="823" y="351" type="curve" smooth="yes"/>
      <point x="823" y="495"/>
      <point x="723" y="619"/>
      <point x="526" y="619" type="curve" smooth="yes"/>
      <point x="300" y="619"/>
      <point x="187" y="457"/>
      <point x="187" y="237" type="curve" smooth="yes"/>
      <point x="187" y="28"/>
      <point x="301" y="-157"/>
      <point x="540" y="-157" type="curve" smooth="yes"/>
      <point x="650" y="-157"/>
      <point x="752" y="-122"/>
    </contour>
  </outline>
</glyph>
<glyph name="B" format="1">
  <advance width="665"/>
  <unicode hex="0042"/>
  <outline>
    <contour>
      <point x="311" y="690" type="line" smooth="yes"/>
      <point x="382" y="690"/>
      <point x="548.969" y="665.941"/>
      <point x="545" y="531" type="curve" smooth="yes"/>
      <point x="543" y="463"/>
      <point x="498" y="401"/>
      <point x="425" y="371" type="curve"/>
      <point x="511" y="355"/>
      <point x="588" y="287"/>
      <point x="588" y="185" type="curve" smooth="yes"/>
      <point x="588" y="113"/>
      <point x="552.977" y="59.0488"/>
      <point x="491" y="29" type="curve" smooth="yes"/>
      <point x="458" y="13"/>
      <point x="424" y="0"/>
      <point x="302" y="0" type="curve" smooth="yes"/>
      <point x="240" y="0" type="line"/>
      <point x="158" y="0" type="line"/>
      <point x="97" y="0" type="line"/>
      <point x="92.625" y="5"/>
      <point x="90" y="12"/>
      <point x="90" y="17" type="curve" smooth="yes"/>
      <point x="90" y="23.375"/>
      <point x="93.127" y="34"/>
      <point x="97" y="34" type="curve" smooth="yes"/>
      <point x="148" y="34" type="line" smooth="yes"/>
      <point x="154" y="34"/>
      <point x="158" y="38"/>
      <point x="158" y="44" type="curve" smooth="yes"/>
      <point x="158" y="646" type="line" smooth="yes"/>
      <point x="158" y="652"/>
      <point x="154" y="656"/>
      <point x="148" y="656" type="curve" smooth="yes"/>
      <point x="98" y="656" type="line" smooth="yes"/>
      <point x="94.0684" y="656"/>
      <point x="91" y="666.625"/>
      <point x="91" y="673" type="curve" smooth="yes"/>
      <point x="91" y="678"/>
      <point x="93.625" y="685"/>
      <point x="98" y="690" type="curve"/>
      <point x="158" y="690" type="line"/>
      <point x="240" y="690" type="line"/>
    </contour>
    <contour>
      <point x="240" y="386" type="line"/>
      <point x="336" y="386" type="line" smooth="yes"/>
      <point x="387" y="386"/>
      <point x="455" y="437"/>
      <point x="455" y="521" type="curve" smooth="yes"/>
      <point x="455" y="594"/>
      <point x="395" y="657"/>
      <point x="303" y="657" type="curve"/>
      <point x="240" y="654" type="line"/>
    </contour>
    <contour>
      <point x="240" y="346" type="line"/>
      <point x="240" y="28" type="line"/>
      <point x="303" y="28" type="line" smooth="yes"/>
      <point x="397" y="28"/>
      <point x="499" y="72"/>
      <point x="499" y="183" type="curve" smooth="yes"/>
      <point x="499" y="285"/>
      <point x="431" y="346"/>
      <point x="315" y="346" type="curve" smooth="yes"/>
    </contour>
  </outline>
</glyph>
<glyph name="D" format="1">
  <advance width="780"/>
  <unicode hex="0044"/>
  <outline>
    <contour>
      <point x="98" y="690" type="curve"/>
      <point x="301" y="690" type="line"/>
      <point x="305" y="685"/>
      <point x="308" y="680"/>
      <point x="308" y="673" type="curve" smooth="yes"/>
      <point x="308" y="667"/>
      <point x="305.382" y="656"/>
      <point x="301" y="656" type="curve" smooth="yes"/>
      <point x="250" y="656" type="line" smooth="yes"/>
      <point x="244" y="656"/>
      <point x="240" y="652"/>
      <point x="240" y="646" type="curve" smooth="yes"/>
      <point x="240" y="44" type="line" smooth="yes"/>
      <point x="240" y="38"/>
      <point x="244" y="34"/>
      <point x="250" y="34" type="curve" smooth="yes"/>
      <point x="301" y="34" type="line" smooth="yes"/>
      <point x="305.382" y="34"/>
      <point x="308" y="23"/>
      <point x="308" y="17" type="curve" smooth="yes"/>
      <point x="308" y="10"/>
      <point x="305" y="5"/>
      <point x="301" y="0" type="curve"/>
      <point x="97" y="0" type="line"/>
      <point x="92.625" y="5"/>
      <point x="90" y="12"/>
      <point x="90" y="17" type="curve" smooth="yes"/>
      <point x="90" y="23.375"/>
      <point x="93.1273" y="34"/>
      <point x="97" y="34" type="curve" smooth="yes"/>
      <point x="148" y="34" type="line" smooth="yes"/>
      <point x="154" y="34"/>
      <point x="158" y="38"/>
      <point x="158" y="44" type="curve" smooth="yes"/>
      <point x="158" y="646" type="line" smooth="yes"/>
      <point x="158" y="652"/>
      <point x="154" y="656"/>
      <point x="148" y="656" type="curve" smooth="yes"/>
      <point x="98" y="656" type="line" smooth="yes"/>
      <point x="94.0679" y="656"/>
      <point x="91" y="666.625"/>
      <point x="91" y="673" type="curve" smooth="yes"/>
      <point x="91" y="678"/>
      <point x="93.625" y="685"/>
    </contour>
    <contour>
      <point x="330" y="692" type="curve" smooth="yes"/>
      <point x="507" y="692"/>
      <point x="710" y="641.92"/>
      <point x="710" y="355" type="curve" smooth="yes"/>
      <point x="710" y="31"/>
      <point x="443" y="0"/>
      <point x="330" y="0" type="curve" smooth="yes"/>
      <point x="284.04" y="0"/>
      <point x="219.21" y="0"/>
      <point x="158" y="0" type="curve"/>
      <point x="158" y="690" type="line"/>
      <point x="214.847" y="690"/>
      <point x="273.153" y="692"/>
    </contour>
    <contour>
      <point x="330" y="34" type="line" smooth="yes"/>
      <point x="489" y="34"/>
      <point x="607" y="105.573"/>
      <point x="607" y="340" type="curve" smooth="yes"/>
      <point x="607" y="567.127"/>
      <point x="464" y="654"/>
      <point x="314" y="654" type="curve" smooth="yes"/>
      <point x="290" y="654"/>
      <point x="257" y="650"/>
      <point x="240" y="645" type="curve"/>
      <point x="240" y="44" type="line"/>
      <point x="240" y="38"/>
      <point x="244" y="34"/>
      <point x="250" y="34" type="curve"/>
    </contour>
  </outline>
</glyph>
<glyph name="F" format="1">
  <advance width="677"/>
  <unicode hex="0046"/>
  <outline>
    <contour>
      <point x="484" y="703" type="line"/>
      <point x="505" y="655.001" type="line" smooth="yes"/>
      <point x="526.432" y="606.015"/>
      <point x="536.035" y="579.6"/>
      <point x="536.035" y="566.48" type="curve" smooth="yes"/>
      <point x="536.035" y="557.95"/>
      <point x="531.881" y="555"/>
      <point x="524" y="555" type="curve" smooth="yes"/>
      <point x="514" y="555"/>
      <point x="496.194" y="575.099"/>
      <point x="484" y="599" type="curve" smooth="yes"/>
      <point x="459" y="648"/>
      <point x="439" y="657"/>
      <point x="348" y="657" type="curve" smooth="yes"/>
      <point x="275" y="657"/>
      <point x="246" y="646"/>
      <point x="240" y="623" type="curve"/>
      <point x="240" y="357" type="line"/>
      <point x="359" y="357" type="line" smooth="yes"/>
      <point x="394" y="357"/>
      <point x="396" y="373"/>
      <point x="408" y="398" type="curve"/>
      <point x="412" y="417"/>
      <point x="419" y="424"/>
      <point x="428" y="424" type="curve" smooth="yes"/>
      <point x="440" y="424"/>
      <point x="447" y="421"/>
      <point x="447" y="408" type="curve" smooth="yes"/>
      <point x="447" y="262" type="line" smooth="yes"/>
      <point x="447" y="250"/>
      <point x="440" y="246"/>
      <point x="428" y="246" type="curve" smooth="yes"/>
      <point x="415" y="246"/>
      <point x="412.765" y="258.939"/>
      <point x="408" y="278" type="curve" smooth="yes"/>
      <point x="403" y="298"/>
      <point x="395" y="312"/>
      <point x="359" y="312" type="curve" smooth="yes"/>
      <point x="240" y="312" type="line"/>
      <point x="240" y="70" type="line"/>
      <point x="240" y="44" type="line" smooth="yes"/>
      <point x="240" y="38.0645"/>
      <point x="244" y="34"/>
      <point x="250" y="34" type="curve" smooth="yes"/>
      <point x="301" y="34" type="line" smooth="yes"/>
      <point x="305.382" y="34"/>
      <point x="308" y="23"/>
      <point x="308" y="17" type="curve" smooth="yes"/>
      <point x="308" y="10"/>
      <point x="305" y="5"/>
      <point x="301" y="0" type="curve"/>
      <point x="240" y="0" type="line"/>
      <point x="158" y="0" type="line"/>
      <point x="97" y="0" type="line"/>
      <point x="92.625" y="5"/>
      <point x="90" y="12"/>
      <point x="90" y="17" type="curve" smooth="yes"/>
      <point x="90" y="23.375"/>
      <point x="93.127" y="34"/>
      <point x="97" y="34" type="curve" smooth="yes"/>
      <point x="148" y="34" type="line" smooth="yes"/>
      <point x="154" y="34"/>
      <point x="158" y="38.0645"/>
      <point x="158" y="44" type="curve" smooth="yes"/>
      <point x="158" y="70" type="line"/>
      <point x="158" y="646" type="line" smooth="yes"/>
      <point x="158" y="652"/>
      <point x="154" y="656"/>
      <point x="148" y="656" type="curve" smooth="yes"/>
      <point x="98" y="656" type="line" smooth="yes"/>
      <point x="94.0684" y="656"/>
      <point x="91" y="666.625"/>
      <point x="91" y="673" type="curve" smooth="yes"/>
      <point x="91" y="678"/>
      <point x="93.625" y="685"/>
      <point x="98" y="690" type="curve"/>
      <point x="158" y="690" type="line"/>
      <point x="221" y="690" type="line" smooth="yes"/>
      <point x="253" y="690"/>
      <point x="292" y="695"/>
      <point x="340" y="697" type="curve" smooth="yes"/>
    </contour>
  </outline>
</glyph>
<glyph name="G" format="1">
  <advance width="836"/>
  <unicode hex="0047"/>
  <outline>
    <contour>
      <point x="569" y="327" type="curve"/>
      <point x="772" y="327" type="line"/>
      <point x="776" y="322"/>
      <point x="779" y="317"/>
      <point x="779" y="310" type="curve" smooth="yes"/>
      <point x="779" y="304"/>
      <point x="776.382" y="293"/>
      <point x="772" y="293" type="curve" smooth="yes"/>
      <point x="721" y="293" type="line" smooth="yes"/>
      <point x="715" y="293"/>
      <point x="711" y="289"/>
      <point x="711" y="283" type="curve" smooth="yes"/>
      <point x="711" y="180" type="line"/>
      <point x="629" y="180" type="line"/>
      <point x="629" y="283" type="line" smooth="yes"/>
      <point x="629" y="289"/>
      <point x="625" y="293"/>
      <point x="619" y="293" type="curve" smooth="yes"/>
      <point x="569" y="293" type="line" smooth="yes"/>
      <point x="565.068" y="293"/>
      <point x="562" y="303.625"/>
      <point x="562" y="310" type="curve" smooth="yes"/>
      <point x="562" y="315"/>
      <point x="564.625" y="322"/>
    </contour>
    <contour>
      <point x="90" y="340" type="curve" smooth="yes"/>
      <point x="90" y="589"/>
      <point x="278" y="708"/>
      <point x="444" y="708" type="curve" smooth="yes"/>
      <point x="521" y="708"/>
      <point x="558.789" y="685.144"/>
      <point x="615" y="663" type="curve" smooth="yes"/>
      <point x="630.824" y="656.766"/>
      <point x="640.67" y="652.602"/>
      <point x="647.404" y="652.602" type="curve" smooth="yes"/>
      <point x="654.713" y="652.602"/>
      <point x="658.173" y="657.563"/>
      <point x="662" y="670" type="curve" smooth="yes"/>
      <point x="666" y="683"/>
      <point x="672" y="689"/>
      <point x="678" y="689" type="curve" smooth="yes"/>
      <point x="686" y="689"/>
      <point x="692" y="684"/>
      <point x="692" y="673" type="curve" smooth="yes"/>
      <point x="692" y="514" type="line" smooth="yes"/>
      <point x="692" y="498"/>
      <point x="685" y="499"/>
      <point x="681" y="499" type="curve" smooth="yes"/>
      <point x="676" y="499"/>
      <point x="671.918" y="499.976"/>
      <point x="667" y="517" type="curve" smooth="yes"/>
      <point x="641" y="607"/>
      <point x="564" y="674"/>
      <point x="466" y="674" type="curve" smooth="yes"/>
      <point x="276" y="674"/>
      <point x="187" y="534"/>
      <point x="187" y="355" type="curve" smooth="yes"/>
      <point x="187" y="168"/>
      <point x="290" y="17"/>
      <point x="472" y="17" type="curve" smooth="yes"/>
      <point x="546.543" y="17"/>
      <point x="629" y="70"/>
      <point x="629" y="134" type="curve"/>
      <point x="629" y="180" type="line"/>
      <point x="711" y="180" type="line"/>
      <point x="711" y="134" type="line"/>
      <point x="711" y="42"/>
      <point x="604.073" y="-18"/>
      <point x="459" y="-18" type="curve" smooth="yes"/>
      <point x="220" y="-18"/>
      <point x="90" y="117"/>
    </contour>
  </outline>
</glyph>
<glyph name="J" format="1">
  <advance width="398"/>
  <unicode hex="004A"/>
  <outline>
    <contour>
      <point x="240" y="125" type="line" smooth="yes"/>
      <point x="240" y="-61"/>
      <point x="217.711" y="-156"/>
      <point x="52" y="-249" type="curve"/>
      <point x="46.1765" y="-244"/>
      <point x="42.2941" y="-234"/>
      <point x="41" y="-223" type="curve"/>
      <point x="116" y="-160"/>
      <point x="158" y="-93"/>
      <point x="158" y="34" type="curve" smooth="yes"/>
      <point x="158" y="300" type="line"/>
      <point x="240" y="300" type="line"/>
    </contour>
    <contour>
      <point x="98" y="690" type="curve"/>
      <point x="301" y="690" type="line"/>
      <point x="305" y="685"/>
      <point x="308" y="680"/>
      <point x="308" y="673" type="curve" smooth="yes"/>
      <point x="308" y="667"/>
      <point x="305.382" y="656"/>
      <point x="301" y="656" type="curve" smooth="yes"/>
      <point x="250" y="656" type="line" smooth="yes"/>
      <point x="244" y="656"/>
      <point x="240" y="652"/>
      <point x="240" y="646" type="curve" smooth="yes"/>
      <point x="240" y="300" type="line"/>
      <point x="158" y="300" type="line"/>
      <point x="158" y="646" type="line" smooth="yes"/>
      <point x="158" y="652"/>
      <point x="154" y="656"/>
      <point x="148" y="656" type="curve" smooth="yes"/>
      <point x="98" y="656" type="line" smooth="yes"/>
      <point x="94.0679" y="656"/>
      <point x="91" y="666.625"/>
      <point x="91" y="673" type="curve" smooth="yes"/>
      <point x="91" y="678"/>
      <point x="93.625" y="685"/>
    </contour>
  </outline>
</glyph>
<glyph name="K" format="1">
  <advance width="720"/>
  <unicode hex="004B"/>
  <outline>
    <contour>
      <point x="98" y="690" type="curve"/>
      <point x="301" y="690" type="line"/>
      <point x="305" y="685"/>
      <point x="308" y="680"/>
      <point x="308" y="673" type="curve" smooth="yes"/>
      <point x="308" y="667"/>
      <point x="305.382" y="656"/>
      <point x="301" y="656" type="curve" smooth="yes"/>
      <point x="250" y="656" type="line" smooth="yes"/>
      <point x="244" y="656"/>
      <point x="240" y="652"/>
      <point x="240" y="646" type="curve" smooth="yes"/>
      <point x="240" y="375" type="line"/>
      <point x="270" y="375" type="line"/>
      <point x="408" y="576" type="line" smooth="yes"/>
      <point x="427.152" y="603.896"/>
      <point x="435" y="624"/>
      <point x="435" y="639" type="curve" smooth="yes"/>
      <point x="435" y="646"/>
      <point x="428" y="656"/>
      <point x="409" y="656" type="curve" smooth="yes"/>
      <point x="407" y="656" type="line" smooth="yes"/>
      <point x="401" y="656"/>
      <point x="397" y="667"/>
      <point x="397" y="673" type="curve" smooth="yes"/>
      <point x="397" y="679"/>
      <point x="401" y="687"/>
      <point x="407" y="690" type="curve" smooth="yes"/>
      <point x="588" y="690" type="line" smooth="yes"/>
      <point x="594" y="690"/>
      <point x="598" y="682"/>
      <point x="598" y="673" type="curve" smooth="yes"/>
      <point x="598" y="663"/>
      <point x="594" y="656"/>
      <point x="588" y="656" type="curve" smooth="yes"/>
      <point x="559" y="656" type="line" smooth="yes"/>
      <point x="546" y="656"/>
      <point x="525.835" y="644.178"/>
      <point x="514" y="633" type="curve" smooth="yes"/>
      <point x="496" y="616"/>
      <point x="469.767" y="595.167"/>
      <point x="446" y="562" type="curve" smooth="yes"/>
      <point x="332.673" y="403.849" type="line"/>
      <point x="333" y="404" type="line"/>
      <point x="592" y="44" type="line" smooth="yes"/>
      <point x="595.4" y="39"/>
      <point x="598.8" y="34"/>
      <point x="609" y="34" type="curve" smooth="yes"/>
      <point x="652.999" y="34" type="line"/>
      <point x="653" y="34" type="line" smooth="yes"/>
      <point x="657.382" y="34"/>
      <point x="660" y="23"/>
      <point x="660" y="17" type="curve" smooth="yes"/>
      <point x="660" y="10"/>
      <point x="657" y="5"/>
      <point x="653" y="0" type="curve"/>
      <point x="652.999" y="0" type="line"/>
      <point x="522.999" y="0" type="line"/>
      <point x="454" y="0" type="line"/>
      <point x="449.625" y="5"/>
      <point x="447" y="12"/>
      <point x="447" y="17" type="curve" smooth="yes"/>
      <point x="447" y="23.375"/>
      <point x="450.127" y="34"/>
      <point x="454" y="34" type="curve" smooth="yes"/>
      <point x="483" y="34" type="line" smooth="yes"/>
      <point x="488.899" y="34"/>
      <point x="492.865" y="37.8667"/>
      <point x="492.997" y="43.6992" type="curve" smooth="yes"/>
      <point x="292.999" y="335" type="line"/>
      <point x="240" y="335" type="line"/>
      <point x="240" y="44" type="line" smooth="yes"/>
      <point x="240" y="38"/>
      <point x="244" y="34"/>
      <point x="250" y="34" type="curve" smooth="yes"/>
      <point x="301" y="34" type="line" smooth="yes"/>
      <point x="305.382" y="34"/>
      <point x="308" y="23"/>
      <point x="308" y="17" type="curve" smooth="yes"/>
      <point x="308" y="10"/>
      <point x="305" y="5"/>
      <point x="301" y="0" type="curve"/>
      <point x="97" y="0" type="line"/>
      <point x="92.625" y="5"/>
      <point x="90" y="12"/>
      <point x="90" y="17" type="curve" smooth="yes"/>
      <point x="90" y="23.375"/>
      <point x="93.127" y="34"/>
      <point x="97" y="34" type="curve" smooth="yes"/>
      <point x="148" y="34" type="line" smooth="yes"/>
      <point x="154" y="34"/>
      <point x="158" y="38"/>
      <point x="158" y="44" type="curve" smooth="yes"/>
      <point x="158" y="646" type="line" smooth="yes"/>
      <point x="158" y="652"/>
      <point x="154" y="656"/>
      <point x="148" y="656" type="curve" smooth="yes"/>
      <point x="98" y="656" type="line" smooth="yes"/>
      <point x="94.0684" y="656"/>
      <point x="91" y="666.625"/>
      <point x="91" y="673" type="curve" smooth="yes"/>
      <point x="91" y="678"/>
      <point x="93.625" y="685"/>
    </contour>
  </outline>
</glyph>
<glyph name="L" format="1">
  <advance width="678"/>
  <unicode hex="004C"/>
  <outline>
    <contour>
      <point x="98" y="690" type="curve"/>
      <point x="301" y="690" type="line"/>
      <point x="305" y="685"/>
      <point x="308" y="680"/>
      <point x="308" y="673" type="curve" smooth="yes"/>
      <point x="308" y="667"/>
      <point x="305" y="656"/>
      <point x="301" y="656" type="curve" smooth="yes"/>
      <point x="250" y="656" type="line" smooth="yes"/>
      <point x="244" y="656"/>
      <point x="240" y="652"/>
      <point x="240" y="646" type="curve" smooth="yes"/>
      <point x="240" y="44" type="line"/>
      <point x="158" y="44" type="line"/>
      <point x="158" y="646" type="line" smooth="yes"/>
      <point x="158" y="652"/>
      <point x="154" y="656"/>
      <point x="148" y="656" type="curve" smooth="yes"/>
      <point x="98" y="656" type="line" smooth="yes"/>
      <point x="94" y="656"/>
      <point x="91" y="667"/>
      <point x="91" y="673" type="curve" smooth="yes"/>
      <point x="91" y="678"/>
      <point x="94" y="685"/>
    </contour>
    <contour>
      <point x="98" y="690" type="curve"/>
      <point x="301" y="690" type="line"/>
      <point x="305" y="685"/>
      <point x="308" y="680"/>
      <point x="308" y="673" type="curve" smooth="yes"/>
      <point x="308" y="667"/>
      <point x="305" y="656"/>
      <point x="301" y="656" type="curve" smooth="yes"/>
      <point x="250" y="656" type="line" smooth="yes"/>
      <point x="244" y="656"/>
      <point x="240" y="652"/>
      <point x="240" y="646" type="curve" smooth="yes"/>
      <point x="240" y="44" type="line" smooth="yes"/>
      <point x="240" y="38"/>
      <point x="244" y="34"/>
      <point x="250" y="34" type="curve" smooth="yes"/>
      <point x="301" y="34" type="line" smooth="yes"/>
      <point x="305" y="34"/>
      <point x="308" y="23"/>
      <point x="308" y="17" type="curve" smooth="yes"/>
      <point x="308" y="10"/>
      <point x="305" y="5"/>
      <point x="301" y="0" type="curve"/>
      <point x="97" y="0" type="line"/>
      <point x="93" y="5"/>
      <point x="90" y="12"/>
      <point x="90" y="17" type="curve" smooth="yes"/>
      <point x="90" y="23"/>
      <point x="93" y="34"/>
      <point x="97" y="34" type="curve" smooth="yes"/>
      <point x="148" y="34" type="line" smooth="yes"/>
      <point x="154" y="34"/>
      <point x="158" y="38"/>
      <point x="158" y="44" type="curve" smooth="yes"/>
      <point x="158" y="646" type="line" smooth="yes"/>
      <point x="158" y="652"/>
      <point x="154" y="656"/>
      <point x="148" y="656" type="curve" smooth="yes"/>
      <point x="98" y="656" type="line" smooth="yes"/>
      <point x="94" y="656"/>
      <point x="91" y="667"/>
      <point x="91" y="673" type="curve" smooth="yes"/>
      <point x="91" y="678"/>
      <point x="94" y="685"/>
    </contour>
    <contour>
      <point x="240" y="690" type="line"/>
      <point x="240" y="0" type="line"/>
      <point x="97" y="0" type="line"/>
      <point x="93" y="5"/>
      <point x="90" y="12"/>
      <point x="90" y="17" type="curve" smooth="yes"/>
      <point x="90" y="23"/>
      <point x="93" y="34"/>
      <point x="97" y="34" type="curve" smooth="yes"/>
      <point x="148" y="34" type="line" smooth="yes"/>
      <point x="154" y="34"/>
      <point x="158" y="38"/>
      <point x="158" y="44" type="curve" smooth="yes"/>
      <point x="158" y="690" type="line"/>
    </contour>
    <contour>
      <point x="240" y="34" type="line"/>
      <point x="301" y="34" type="line"/>
      <point x="355" y="37" type="line"/>
      <point x="489" y="46.3023"/>
      <point x="519.842" y="57.9787"/>
      <point x="562" y="117" type="curve" smooth="yes"/>
      <point x="577" y="138"/>
      <point x="595" y="156"/>
      <point x="604" y="156" type="curve" smooth="yes"/>
      <point x="613" y="156"/>
      <point x="618" y="154"/>
      <point x="618" y="148" type="curve" smooth="yes"/>
      <point x="618" y="138"/>
      <point x="606.495" y="117.268"/>
      <point x="582" y="71" type="curve" smooth="yes"/>
      <point x="546" y="3" type="line"/>
      <point x="343" y="0" type="line"/>
      <point x="158" y="0" type="line"/>
      <point x="158" y="690" type="line"/>
      <point x="240" y="690" type="line"/>
    </contour>
  </outline>
</glyph>
<glyph name="M" format="1">
  <advance width="1016"/>
  <unicode hex="004D"/>
  <outline>
    <contour>
      <point x="90" y="17" type="curve" smooth="yes"/>
      <point x="90" y="23"/>
      <point x="93.6865" y="34"/>
      <point x="97" y="34" type="curve" smooth="yes"/>
      <point x="120" y="34" type="line" smooth="yes"/>
      <point x="160" y="34"/>
      <point x="167.016" y="47.4658"/>
      <point x="169.951" y="73" type="curve" smooth="yes"/>
      <point x="175.839" y="124.205"/>
      <point x="179.622" y="216.853"/>
      <point x="182.128" y="321" type="curve" smooth="yes"/>
      <point x="186.228" y="586" type="line" smooth="yes"/>
      <point x="186.228" y="637.736"/>
      <point x="177" y="656"/>
      <point x="123" y="656" type="curve" smooth="yes"/>
      <point x="97" y="656" type="line"/>
      <point x="92.2256" y="661.044"/>
      <point x="90" y="667"/>
      <point x="90" y="673" type="curve" smooth="yes"/>
      <point x="90" y="679"/>
      <point x="93.1924" y="685.479"/>
      <point x="97" y="690" type="curve"/>
      <point x="194" y="690" type="line"/>
      <point x="270" y="690" type="line"/>
      <point x="503.869" y="133" type="line" smooth="yes"/>
      <point x="508.16" y="122.779"/>
      <point x="514.363" y="118.871"/>
      <point x="518" y="118.871" type="curve" smooth="yes"/>
      <point x="522.208" y="118.871"/>
      <point x="528.666" y="122.791"/>
      <point x="532.95" y="134" type="curve" smooth="yes"/>
      <point x="719.468" y="622" type="line" smooth="yes"/>
      <point x="735.847" y="664.853"/>
      <point x="778.308" y="690"/>
      <point x="800" y="690" type="curve" smooth="yes"/>
      <point x="858" y="690" type="line"/>
      <point x="919" y="690" type="line"/>
      <point x="923" y="685"/>
      <point x="926" y="680"/>
      <point x="926" y="673" type="curve" smooth="yes"/>
      <point x="926" y="667"/>
      <point x="923.382" y="656"/>
      <point x="919" y="656" type="curve" smooth="yes"/>
      <point x="868" y="656" type="line" smooth="yes"/>
      <point x="862" y="656"/>
      <point x="858" y="652"/>
      <point x="858" y="646" type="curve" smooth="yes"/>
      <point x="858" y="44" type="line" smooth="yes"/>
      <point x="858" y="38"/>
      <point x="862" y="34"/>
      <point x="868" y="34" type="curve" smooth="yes"/>
      <point x="919" y="34" type="line" smooth="yes"/>
      <point x="923.382" y="34"/>
      <point x="926" y="23"/>
      <point x="926" y="17" type="curve" smooth="yes"/>
      <point x="926" y="10"/>
      <point x="923" y="5"/>
      <point x="919" y="0" type="curve"/>
      <point x="858" y="0" type="line"/>
      <point x="776" y="0" type="line"/>
      <point x="715" y="0" type="line"/>
      <point x="710.625" y="5"/>
      <point x="708" y="12"/>
      <point x="708" y="17" type="curve" smooth="yes"/>
      <point x="708" y="23.375"/>
      <point x="711.127" y="34"/>
      <point x="715" y="34" type="curve" smooth="yes"/>
      <point x="766" y="34" type="line" smooth="yes"/>
      <point x="772" y="34"/>
      <point x="776" y="38"/>
      <point x="776" y="44" type="curve" smooth="yes"/>
      <point x="776" y="641" type="line"/>
      <point x="533.19" y="40" type="line" smooth="yes"/>
      <point x="525.47" y="20.3604"/>
      <point x="506.734" y="15.8613"/>
      <point x="497" y="15.8613" type="curve" smooth="yes"/>
      <point x="487.637" y="15.8613"/>
      <point x="468.104" y="23.7246"/>
      <point x="461.365" y="39" type="curve" smooth="yes"/>
      <point x="220" y="602" type="line"/>
      <point x="220" y="316" type="line" smooth="yes"/>
      <point x="220" y="179.757"/>
      <point x="220.917" y="109.406"/>
      <point x="223" y="73" type="curve" smooth="yes"/>
      <point x="224.531" y="46.2432"/>
      <point x="233" y="34"/>
      <point x="245" y="34" type="curve" smooth="yes"/>
      <point x="269" y="34" type="line" smooth="yes"/>
      <point x="273.972" y="34"/>
      <point x="276" y="23"/>
      <point x="276" y="17" type="curve" smooth="yes"/>
      <point x="276" y="11"/>
      <point x="272.765" y="3.1875"/>
      <point x="269" y="0" type="curve" smooth="yes"/>
      <point x="97" y="0" type="line" smooth="yes"/>
      <point x="93.75" y="3.40039"/>
      <point x="90" y="11"/>
    </contour>
  </outline>
</glyph>
<glyph name="N" format="1">
  <advance width="742"/>
  <unicode hex="004E"/>
  <outline>
    <contour>
      <point x="606" y="676" type="curve" smooth="yes"/>
      <point x="634" y="676"/>
      <point x="674" y="677"/>
      <point x="701" y="679" type="curve"/>
      <point x="701" y="666"/>
      <point x="700" y="650"/>
      <point x="696" y="636" type="curve"/>
      <point x="652" y="636"/>
      <point x="637" y="603"/>
      <point x="637" y="494" type="curve" smooth="yes"/>
      <point x="637" y="0" type="line"/>
      <point x="626" y="-4"/>
      <point x="608" y="-6"/>
      <point x="594" y="-6" type="curve"/>
      <point x="181" y="533" type="line"/>
      <point x="181" y="187" type="line" smooth="yes"/>
      <point x="181" y="74"/>
      <point x="196" y="40"/>
      <point x="250" y="40" type="curve"/>
      <point x="254" y="28"/>
      <point x="255" y="16"/>
      <point x="255" y="-3" type="curve"/>
      <point x="225" y="-1"/>
      <point x="185" y="0"/>
      <point x="156" y="0" type="curve" smooth="yes"/>
      <point x="127" y="0"/>
      <point x="81" y="-1"/>
      <point x="56" y="-3" type="curve"/>
      <point x="56" y="14"/>
      <point x="57" y="28"/>
      <point x="61" y="40" type="curve"/>
      <point x="115" y="40"/>
      <point x="130" y="74"/>
      <point x="130" y="187" type="curve" smooth="yes"/>
      <point x="130" y="600" type="line"/>
      <point x="126" y="605" type="line" smooth="yes"/>
      <point x="107" y="629"/>
      <point x="94" y="633"/>
      <point x="61" y="636" type="curve"/>
      <point x="57" y="650"/>
      <point x="56" y="668"/>
      <point x="56" y="679" type="curve"/>
      <point x="76" y="677"/>
      <point x="105" y="676"/>
      <point x="130" y="676" type="curve" smooth="yes"/>
      <point x="155" y="676"/>
      <point x="179" y="677"/>
      <point x="197" y="679" type="curve"/>
      <point x="586" y="163" type="line"/>
      <point x="586" y="494" type="line" smooth="yes"/>
      <point x="586" y="603"/>
      <point x="571" y="636"/>
      <point x="517" y="636" type="curve"/>
      <point x="513" y="659"/>
      <point x="512" y="667"/>
      <point x="512" y="679" type="curve"/>
      <point x="541" y="677"/>
      <point x="578" y="676"/>
    </contour>
  </outline>
</glyph>
<glyph name="O" format="1">
  <advance width="867"/>
  <unicode hex="004F"/>
  <outline>
    <contour>
      <point x="79.9551" y="345" type="curve" smooth="yes"/>
      <point x="79.9551" y="534.764"/>
      <point x="211.665" y="708"/>
      <point x="438.955" y="708" type="curve" smooth="yes"/>
      <point x="627.196" y="708"/>
      <point x="786.955" y="555.102"/>
      <point x="786.955" y="340" type="curve" smooth="yes"/>
      <point x="786.955" y="147.134"/>
      <point x="654.599" y="-18"/>
      <point x="444.955" y="-18" type="curve" smooth="yes"/>
      <point x="240.851" y="-18"/>
      <point x="79.9551" y="155.415"/>
    </contour>
    <contour>
      <point x="700.954" y="321" type="curve" smooth="yes"/>
      <point x="700.954" y="518"/>
      <point x="628.16" y="672"/>
      <point x="419.955" y="672" type="curve" smooth="yes"/>
      <point x="286.287" y="672"/>
      <point x="165.954" y="520.31"/>
      <point x="165.954" y="367" type="curve" smooth="yes"/>
      <point x="165.954" y="152.903"/>
      <point x="284.52" y="18"/>
      <point x="438.955" y="18" type="curve" smooth="yes"/>
      <point x="613.55" y="18"/>
      <point x="700.954" y="164.452"/>
    </contour>
  </outline>
</glyph>
<glyph name="P" format="1">
  <advance width="940"/>
  <unicode hex="0050"/>
  <outline>
    <contour>
      <point x="268" y="441" type="line" smooth="yes"/>
      <point x="268" y="506"/>
      <point x="246.405" y="529.595"/>
      <point x="200" y="576" type="curve" smooth="yes"/>
      <point x="160" y="616" type="line"/>
      <point x="122" y="592" type="line" smooth="yes"/>
      <point x="99.9521" y="578.075"/>
      <point x="84" y="570"/>
      <point x="74" y="570" type="curve" smooth="yes"/>
      <point x="65" y="570"/>
      <point x="60" y="573"/>
      <point x="60" y="583" type="curve" smooth="yes"/>
      <point x="60" y="596"/>
      <point x="246" y="711"/>
      <point x="267" y="711" type="curve" smooth="yes"/>
      <point x="274" y="711"/>
      <point x="277" y="706"/>
      <point x="277" y="700" type="curve" smooth="yes"/>
      <point x="277" y="692"/>
      <point x="272.15" y="681.809"/>
      <point x="262" y="674" type="curve" smooth="yes"/>
      <point x="257.354" y="670.426"/>
      <point x="254.764" y="666.863"/>
      <point x="254.764" y="662.158" type="curve" smooth="yes"/>
      <point x="254.764" y="653.697"/>
      <point x="263.139" y="641.545"/>
      <point x="283" y="619" type="curve" smooth="yes"/>
      <point x="320" y="577" type="line"/>
      <point x="359" y="611" type="line" smooth="yes"/>
      <point x="423.102" y="666.884"/>
      <point x="461" y="682"/>
      <point x="546" y="682" type="curve" smooth="yes"/>
      <point x="739.543" y="682"/>
      <point x="850" y="524.876"/>
      <point x="850" y="332" type="curve" smooth="yes"/>
      <point x="850" y="125.519"/>
      <point x="734.504" y="-18"/>
      <point x="564" y="-18" type="curve" smooth="yes"/>
      <point x="494.702" y="-18"/>
      <point x="399.946" y="17.8975"/>
      <point x="350" y="57" type="curve"/>
      <point x="350" y="-235" type="line"/>
      <point x="350" y="-297" type="line" smooth="yes"/>
      <point x="350" y="-318"/>
      <point x="356.967" y="-330.312"/>
      <point x="373" y="-332" type="curve" smooth="yes"/>
      <point x="411" y="-336" type="line" smooth="yes"/>
      <point x="415.373" y="-336.46"/>
      <point x="418" y="-347"/>
      <point x="418" y="-353" type="curve" smooth="yes"/>
      <point x="418" y="-360"/>
      <point x="415" y="-365"/>
      <point x="411" y="-370" type="curve"/>
      <point x="207" y="-370" type="line"/>
      <point x="202.625" y="-365"/>
      <point x="200" y="-358"/>
      <point x="200" y="-353" type="curve" smooth="yes"/>
      <point x="200" y="-346.625"/>
      <point x="203.135" y="-336.396"/>
      <point x="207" y="-336" type="curve" smooth="yes"/>
      <point x="246" y="-332" type="line" smooth="yes"/>
      <point x="262.038" y="-330.355"/>
      <point x="268" y="-321"/>
      <point x="268" y="-297" type="curve" smooth="yes"/>
      <point x="268" y="-235" type="line"/>
    </contour>
    <contour>
      <point x="751" y="335" type="curve" smooth="yes"/>
      <point x="751" y="528.555"/>
      <point x="660.467" y="643"/>
      <point x="514" y="643" type="curve" smooth="yes"/>
      <point x="430.527" y="643"/>
      <point x="362.767" y="593"/>
      <point x="350" y="495" type="curve"/>
      <point x="350" y="138" type="line"/>
      <point x="367.037" y="80.0947"/>
      <point x="449.796" y="27"/>
      <point x="531" y="27" type="curve" smooth="yes"/>
      <point x="694.646" y="27"/>
      <point x="751" y="137.449"/>
    </contour>
  </outline>
</glyph>
<glyph name="Q" format="1">
  <advance width="731"/>
  <unicode hex="0051"/>
  <outline>
    <contour>
      <point x="483" y="12" type="curve"/>
      <point x="588.331" y="-20.6246"/>
      <point x="632.841" y="-99.2994"/>
      <point x="741.255" y="-99.2994" type="curve" smooth="yes"/>
      <point x="749.148" y="-99.2994"/>
      <point x="757.381" y="-98.8823"/>
      <point x="766" y="-98" type="curve"/>
      <point x="766" y="-110"/>
      <point x="764" y="-125"/>
      <point x="760" y="-138" type="curve"/>
      <point x="721" y="-150"/>
      <point x="687" y="-161"/>
      <point x="636" y="-184" type="curve"/>
      <point x="506" y="-151"/>
      <point x="515" y="-25"/>
      <point x="365" y="-9" type="curve"/>
      <point x="167" y="-9"/>
      <point x="35" y="141"/>
      <point x="35" y="340" type="curve" smooth="yes"/>
      <point x="35" y="544"/>
      <point x="180" y="685"/>
      <point x="365" y="685" type="curve" smooth="yes"/>
      <point x="556" y="685"/>
      <point x="696" y="545"/>
      <point x="696" y="340" type="curve" smooth="yes"/>
      <point x="696" y="186"/>
      <point x="612" y="60"/>
    </contour>
    <contour>
      <point x="138" y="367" type="curve" smooth="yes"/>
      <point x="138" y="198"/>
      <point x="226" y="40"/>
      <point x="385" y="40" type="curve" smooth="yes"/>
      <point x="515" y="40"/>
      <point x="593" y="161"/>
      <point x="593" y="314" type="curve" smooth="yes"/>
      <point x="593" y="494"/>
      <point x="487" y="637"/>
      <point x="344" y="637" type="curve" smooth="yes"/>
      <point x="226" y="637"/>
      <point x="138" y="529"/>
    </contour>
  </outline>
</glyph>
<glyph name="R" format="1">
  <advance width="684"/>
  <unicode hex="0052"/>
  <outline>
    <contour>
      <point x="224.001" y="353.999" type="line"/>
      <point x="240.001" y="351.999"/>
      <point x="253.001" y="350.999"/>
      <point x="268.001" y="350.999" type="curve" smooth="yes"/>
      <point x="377.001" y="350.999"/>
      <point x="463.001" y="395.999"/>
      <point x="463.001" y="499.999" type="curve" smooth="yes"/>
      <point x="463.001" y="578.999"/>
      <point x="418.001" y="633.999"/>
      <point x="298.001" y="633.999" type="curve" smooth="yes"/>
      <point x="269.001" y="633.999"/>
      <point x="248.001" y="630.999"/>
      <point x="224.001" y="625.999" type="curve"/>
    </contour>
    <contour>
      <point x="523" y="140" type="curve" smooth="yes"/>
      <point x="565" y="69"/>
      <point x="584.001" y="46.999"/>
      <point x="658.001" y="42.999" type="curve"/>
      <point x="658.001" y="26.999"/>
      <point x="658.001" y="13.999"/>
      <point x="654.001" y="-0.000976562" type="curve"/>
      <point x="604.001" y="-0.000976562"/>
      <point x="546.001" y="-1.00098"/>
      <point x="497.001" y="-9.00098" type="curve"/>
      <point x="456.001" y="56.999"/>
      <point x="443.001" y="83.999"/>
      <point x="418.001" y="130.999" type="curve" smooth="yes"/>
      <point x="382.001" y="196.999"/>
      <point x="355.001" y="241.999"/>
      <point x="294.001" y="306.999" type="curve"/>
      <point x="283.231" y="306.585"/>
      <point x="272.977" y="306.343"/>
      <point x="263.165" y="306.343" type="curve" smooth="yes"/>
      <point x="249.29" y="306.343"/>
      <point x="236.302" y="306.828"/>
      <point x="224" y="308" type="curve"/>
      <point x="224" y="127" type="line" smooth="yes"/>
      <point x="224" y="60"/>
      <point x="239" y="43"/>
      <point x="290" y="40" type="curve"/>
      <point x="294" y="28"/>
      <point x="295" y="11"/>
      <point x="295" y="-3" type="curve"/>
      <point x="252" y="0"/>
      <point x="201" y="0"/>
      <point x="176" y="0" type="curve" smooth="yes"/>
      <point x="141" y="0"/>
      <point x="86" y="-1"/>
      <point x="56" y="-3" type="curve"/>
      <point x="56" y="11"/>
      <point x="57" y="27"/>
      <point x="61" y="40" type="curve"/>
      <point x="115" y="43"/>
      <point x="130" y="60"/>
      <point x="130" y="127" type="curve" smooth="yes"/>
      <point x="130" y="549" type="line" smooth="yes"/>
      <point x="130" y="616"/>
      <point x="115" y="636"/>
      <point x="61" y="636" type="curve"/>
      <point x="57" y="649"/>
      <point x="56" y="662"/>
      <point x="56" y="678" type="curve"/>
      <point x="76" y="677"/>
      <point x="129" y="676"/>
      <point x="176" y="676" type="curve" smooth="yes"/>
      <point x="231" y="676"/>
      <point x="287" y="678"/>
      <point x="343" y="678" type="curve" smooth="yes"/>
      <point x="494" y="678"/>
      <point x="561" y="605"/>
      <point x="561" y="510" type="curve" smooth="yes"/>
      <point x="561" y="421"/>
      <point x="497" y="355"/>
      <point x="393" y="328" type="curve"/>
      <point x="443" y="275"/>
      <point x="467" y="235"/>
    </contour>
  </outline>
</glyph>
<glyph name="U" format="1">
  <advance width="675"/>
  <unicode hex="0055"/>
  <outline>
    <contour>
      <point x="570" y="269" type="line" smooth="yes"/>
      <point x="570" y="154"/>
      <point x="559" y="94"/>
      <point x="513" y="48" type="curve" smooth="yes"/>
      <point x="475" y="10"/>
      <point x="419" y="-9"/>
      <point x="351" y="-9" type="curve" smooth="yes"/>
      <point x="165" y="-9"/>
      <point x="106" y="76"/>
      <point x="106" y="231" type="curve" smooth="yes"/>
      <point x="106" y="549" type="line" smooth="yes"/>
      <point x="106" y="620"/>
      <point x="96" y="630"/>
      <point x="47" y="636" type="curve"/>
      <point x="43" y="650"/>
      <point x="42" y="666"/>
      <point x="42" y="679" type="curve"/>
      <point x="69" y="677"/>
      <point x="117" y="676"/>
      <point x="158" y="676" type="curve" smooth="yes"/>
      <point x="199" y="676"/>
      <point x="244" y="677"/>
      <point x="274" y="679" type="curve"/>
      <point x="274" y="666"/>
      <point x="273" y="650"/>
      <point x="269" y="636" type="curve"/>
      <point x="210" y="631"/>
      <point x="200" y="622"/>
      <point x="200" y="549" type="curve" smooth="yes"/>
      <point x="200" y="245" type="line" smooth="yes"/>
      <point x="200" y="132"/>
      <point x="237" y="44"/>
      <point x="370" y="44" type="curve" smooth="yes"/>
      <point x="403" y="44"/>
      <point x="448" y="54"/>
      <point x="476" y="82" type="curve" smooth="yes"/>
      <point x="507" y="113"/>
      <point x="519" y="154"/>
      <point x="519" y="261" type="curve" smooth="yes"/>
      <point x="519" y="509" type="line" smooth="yes"/>
      <point x="519" y="605"/>
      <point x="509" y="631"/>
      <point x="450" y="636" type="curve"/>
      <point x="446" y="656"/>
      <point x="445" y="665"/>
      <point x="445" y="679" type="curve"/>
      <point x="468" y="677"/>
      <point x="509" y="676"/>
      <point x="539" y="676" type="curve" smooth="yes"/>
      <point x="569" y="676"/>
      <point x="608" y="677"/>
      <point x="634" y="679" type="curve"/>
      <point x="634" y="670"/>
      <point x="633" y="658"/>
      <point x="629" y="636" type="curve"/>
      <point x="583" y="631"/>
      <point x="570" y="606"/>
      <point x="570" y="509" type="curve" smooth="yes"/>
    </contour>
  </outline>
</glyph>
<glyph name="V" format="1">
  <advance width="686"/>
  <unicode hex="0056"/>
  <outline>
    <contour>
      <point x="559" y="676" type="curve" smooth="yes"/>
      <point x="590" y="676"/>
      <point x="632" y="677"/>
      <point x="661" y="679" type="curve"/>
      <point x="661" y="664"/>
      <point x="660" y="651"/>
      <point x="656" y="636" type="curve"/>
      <point x="614" y="626"/>
      <point x="595" y="584"/>
      <point x="570" y="518" type="curve" smooth="yes"/>
      <point x="503" y="346"/>
      <point x="433" y="172"/>
      <point x="361" y="-2" type="curve"/>
      <point x="348" y="-5"/>
      <point x="338" y="-6"/>
      <point x="322" y="-6" type="curve"/>
      <point x="250" y="188"/>
      <point x="174" y="382"/>
      <point x="115" y="521" type="curve" smooth="yes"/>
      <point x="73" y="619"/>
      <point x="66" y="632"/>
      <point x="30" y="636" type="curve"/>
      <point x="26" y="652"/>
      <point x="25" y="668"/>
      <point x="25" y="679" type="curve"/>
      <point x="51" y="677"/>
      <point x="104" y="676"/>
      <point x="146" y="676" type="curve" smooth="yes"/>
      <point x="188" y="676"/>
      <point x="229" y="677"/>
      <point x="267" y="679" type="curve"/>
      <point x="267" y="667"/>
      <point x="265" y="650"/>
      <point x="262" y="636" type="curve"/>
      <point x="220.193" y="633.504"/>
      <point x="199.412" y="626.726"/>
      <point x="199.412" y="599.873" type="curve" smooth="yes"/>
      <point x="199.412" y="583.69"/>
      <point x="206.959" y="560.218"/>
      <point x="222" y="526" type="curve" smooth="yes"/>
      <point x="274" y="403"/>
      <point x="322" y="277"/>
      <point x="371" y="142" type="curve"/>
      <point x="425" y="265"/>
      <point x="474" y="385"/>
      <point x="520" y="514" type="curve" smooth="yes"/>
      <point x="528.904" y="540.356"/>
      <point x="533.876" y="562.526"/>
      <point x="533.876" y="580.465" type="curve" smooth="yes"/>
      <point x="533.876" y="612.893"/>
      <point x="517.63" y="631.493"/>
      <point x="479" y="636" type="curve"/>
      <point x="475" y="651"/>
      <point x="474" y="668"/>
      <point x="474" y="679" type="curve"/>
      <point x="503" y="677"/>
      <point x="528" y="676"/>
    </contour>
  </outline>
</glyph>
<glyph name="W" format="1">
  <advance width="1003"/>
  <unicode hex="0057"/>
  <outline>
    <contour>
      <point x="883" y="676" type="curve" smooth="yes"/>
      <point x="914" y="676"/>
      <point x="951" y="677.001"/>
      <point x="978" y="679.001" type="curve"/>
      <point x="978" y="666.001"/>
      <point x="976" y="650.001"/>
      <point x="971" y="636.001" type="curve"/>
      <point x="936" y="628.001"/>
      <point x="922" y="601.001"/>
      <point x="887" y="491.001" type="curve" smooth="yes"/>
      <point x="731" y="-2.99902" type="line"/>
      <point x="720" y="-6.99902"/>
      <point x="706" y="-8.99902"/>
      <point x="691" y="-8.99902" type="curve"/>
      <point x="632" y="158.001"/>
      <point x="560" y="355.001"/>
      <point x="496" y="522.001" type="curve"/>
      <point x="320" y="-2.99902" type="line"/>
      <point x="309" y="-6.99902"/>
      <point x="292" y="-8.99902"/>
      <point x="277" y="-8.99902" type="curve"/>
      <point x="223" y="168.001"/>
      <point x="167" y="346.001"/>
      <point x="109" y="521.001" type="curve" smooth="yes"/>
      <point x="72" y="628.001"/>
      <point x="66" y="632.001"/>
      <point x="30" y="636.001" type="curve"/>
      <point x="26" y="649.001"/>
      <point x="25" y="665.001"/>
      <point x="25" y="679.001" type="curve"/>
      <point x="57" y="677.001"/>
      <point x="107" y="676.001"/>
      <point x="138" y="676.001" type="curve" smooth="yes"/>
      <point x="169" y="676.001"/>
      <point x="222" y="677.001"/>
      <point x="259" y="679.001" type="curve"/>
      <point x="259" y="668.001"/>
      <point x="258" y="652.001"/>
      <point x="254" y="636.001" type="curve"/>
      <point x="209.155" y="633.438"/>
      <point x="189.757" y="628.413"/>
      <point x="189.757" y="601.731" type="curve" smooth="yes"/>
      <point x="189.757" y="586.765"/>
      <point x="195.86" y="564.983"/>
      <point x="207" y="533.001" type="curve" smooth="yes"/>
      <point x="243" y="422.001"/>
      <point x="289" y="278.001"/>
      <point x="324" y="160.001" type="curve"/>
      <point x="500" y="679.001" type="line"/>
      <point x="510" y="683.001"/>
      <point x="523" y="684.001"/>
      <point x="544" y="684.001" type="curve"/>
      <point x="606" y="522.001"/>
      <point x="677" y="325.001"/>
      <point x="735" y="158.001" type="curve"/>
      <point x="841" y="494.001" type="line" smooth="yes"/>
      <point x="851.443" y="527.688"/>
      <point x="856.779" y="553.886"/>
      <point x="856.779" y="574.122" type="curve" smooth="yes"/>
      <point x="856.779" y="613.957"/>
      <point x="836.103" y="630.695"/>
      <point x="793" y="636" type="curve"/>
      <point x="788" y="649"/>
      <point x="786" y="668"/>
      <point x="786" y="679" type="curve"/>
      <point x="814" y="677"/>
      <point x="847" y="676"/>
    </contour>
  </outline>
</glyph>
<glyph name="X" format="1">
  <advance width="667"/>
  <unicode hex="0058"/>
  <outline>
    <contour>
      <point x="621" y="40" type="curve"/>
      <point x="625" y="28"/>
      <point x="627" y="12"/>
      <point x="627" y="-3" type="curve"/>
      <point x="598" y="-1"/>
      <point x="546" y="0"/>
      <point x="505" y="0" type="curve" smooth="yes"/>
      <point x="464" y="0"/>
      <point x="414" y="-1"/>
      <point x="384" y="-2" type="curve"/>
      <point x="384" y="10"/>
      <point x="385" y="26"/>
      <point x="388" y="40" type="curve"/>
      <point x="417.406" y="42.883"/>
      <point x="435.176" y="48.4256"/>
      <point x="435.176" y="69.0878" type="curve" smooth="yes"/>
      <point x="435.176" y="84.2607"/>
      <point x="425.594" y="107.587"/>
      <point x="404" y="144" type="curve" smooth="yes"/>
      <point x="377" y="191"/>
      <point x="348" y="237"/>
      <point x="320" y="284" type="curve"/>
      <point x="232" y="155" type="line" smooth="yes"/>
      <point x="208.578" y="120.557"/>
      <point x="196.335" y="96.0258"/>
      <point x="196.335" y="78.405" type="curve" smooth="yes"/>
      <point x="196.335" y="57.6568"/>
      <point x="213.31" y="46.4891"/>
      <point x="249" y="40" type="curve"/>
      <point x="253" y="26"/>
      <point x="254" y="10"/>
      <point x="254" y="-3" type="curve"/>
      <point x="220" y="-1"/>
      <point x="181" y="0"/>
      <point x="144" y="0" type="curve" smooth="yes"/>
      <point x="107" y="0"/>
      <point x="67" y="-1"/>
      <point x="40" y="-3" type="curve"/>
      <point x="40" y="8"/>
      <point x="41" y="28"/>
      <point x="46" y="42" type="curve"/>
      <point x="78" y="50"/>
      <point x="116" y="76"/>
      <point x="165" y="144" type="curve" smooth="yes"/>
      <point x="293" y="327" type="line"/>
      <point x="253" y="390"/>
      <point x="213" y="453"/>
      <point x="171" y="516" type="curve" smooth="yes"/>
      <point x="100" y="624"/>
      <point x="94" y="629"/>
      <point x="62" y="635" type="curve"/>
      <point x="57" y="651"/>
      <point x="56" y="665"/>
      <point x="56" y="679" type="curve"/>
      <point x="91" y="677"/>
      <point x="140" y="676"/>
      <point x="178" y="676" type="curve" smooth="yes"/>
      <point x="216" y="676"/>
      <point x="268" y="677"/>
      <point x="299" y="678" type="curve"/>
      <point x="299" y="666"/>
      <point x="298" y="651"/>
      <point x="295" y="636" type="curve"/>
      <point x="263.687" y="630.408"/>
      <point x="247.069" y="621.065"/>
      <point x="247.069" y="600.802" type="curve" smooth="yes"/>
      <point x="247.069" y="584.826"/>
      <point x="257.399" y="562.063"/>
      <point x="279" y="529" type="curve" smooth="yes"/>
      <point x="307" y="487"/>
      <point x="334" y="445"/>
      <point x="361" y="403" type="curve"/>
      <point x="434" y="518" type="line" smooth="yes"/>
      <point x="458.31" y="556.717"/>
      <point x="470.055" y="582.868"/>
      <point x="470.055" y="600.65" type="curve" smooth="yes"/>
      <point x="470.055" y="622.367"/>
      <point x="452.538" y="631.602"/>
      <point x="419" y="636" type="curve"/>
      <point x="415" y="651"/>
      <point x="414" y="668"/>
      <point x="414" y="679" type="curve"/>
      <point x="447" y="677"/>
      <point x="486" y="676"/>
      <point x="516" y="676" type="curve" smooth="yes"/>
      <point x="546" y="676"/>
      <point x="590" y="677"/>
      <point x="615" y="679" type="curve"/>
      <point x="615" y="666"/>
      <point x="615" y="651"/>
      <point x="611" y="636" type="curve"/>
      <point x="580" y="628"/>
      <point x="556" y="612"/>
      <point x="496" y="521" type="curve" smooth="yes"/>
      <point x="389" y="358" type="line"/>
      <point x="431" y="291"/>
      <point x="472" y="224"/>
      <point x="512" y="157" type="curve" smooth="yes"/>
      <point x="568" y="64"/>
      <point x="589" y="45"/>
    </contour>
  </outline>
</glyph>
<glyph name="Y" format="1">
  <advance width="630"/>
  <unicode hex="0059"/>
  <outline>
    <contour>
      <point x="519" y="676" type="curve" smooth="yes"/>
      <point x="549" y="676"/>
      <point x="582" y="677.001"/>
      <point x="605" y="678.001" type="curve"/>
      <point x="605" y="664.001"/>
      <point x="604" y="653.001"/>
      <point x="601" y="639.001" type="curve"/>
      <point x="565" y="629.001"/>
      <point x="534" y="599.001"/>
      <point x="500" y="531.001" type="curve" smooth="yes"/>
      <point x="365" y="260.001" type="line"/>
      <point x="365" y="163.001" type="line" smooth="yes"/>
      <point x="365" y="57.001"/>
      <point x="374" y="49.001"/>
      <point x="442" y="40.001" type="curve"/>
      <point x="446" y="28.001"/>
      <point x="448" y="13.001"/>
      <point x="448" y="-2.99902" type="curve"/>
      <point x="404" y="-1.99902"/>
      <point x="358" y="0.000976562"/>
      <point x="321" y="0.000976562" type="curve" smooth="yes"/>
      <point x="277" y="0.000976562"/>
      <point x="213" y="-0.999023"/>
      <point x="185" y="-1.99902" type="curve"/>
      <point x="185" y="12.001"/>
      <point x="187" y="28.001"/>
      <point x="191" y="40.001" type="curve"/>
      <point x="262" y="46.001"/>
      <point x="271" y="56.001"/>
      <point x="271" y="150.001" type="curve" smooth="yes"/>
      <point x="271" y="259.001" type="line"/>
      <point x="105" y="578.001" type="line" smooth="yes"/>
      <point x="84" y="619.001"/>
      <point x="68" y="635.001"/>
      <point x="31" y="637.001" type="curve"/>
      <point x="26" y="652.001"/>
      <point x="25" y="664.001"/>
      <point x="25" y="678.001" type="curve"/>
      <point x="53" y="677.001"/>
      <point x="91" y="676.001"/>
      <point x="129" y="676.001" type="curve" smooth="yes"/>
      <point x="167" y="676.001"/>
      <point x="232" y="676.001"/>
      <point x="263" y="678.001" type="curve"/>
      <point x="263" y="663.001"/>
      <point x="262" y="653.001"/>
      <point x="258" y="639.001" type="curve"/>
      <point x="226.54" y="635.976"/>
      <point x="211.917" y="627.46"/>
      <point x="211.917" y="608.582" type="curve" smooth="yes"/>
      <point x="211.917" y="596.257"/>
      <point x="218.15" y="579.515"/>
      <point x="230" y="557" type="curve" smooth="yes"/>
      <point x="265" y="490"/>
      <point x="307" y="404"/>
      <point x="347" y="314" type="curve"/>
      <point x="388" y="405"/>
      <point x="425" y="482"/>
      <point x="455" y="542" type="curve" smooth="yes"/>
      <point x="469.271" y="569.75"/>
      <point x="476.313" y="589.171"/>
      <point x="476.313" y="603.004" type="curve" smooth="yes"/>
      <point x="476.313" y="624.064"/>
      <point x="459.989" y="632.172"/>
      <point x="428" y="637" type="curve"/>
      <point x="424" y="651"/>
      <point x="421" y="663"/>
      <point x="421" y="678" type="curve"/>
      <point x="445" y="676"/>
      <point x="489" y="676"/>
    </contour>
  </outline>
</glyph>
<glyph name="Z" format="1">
  <advance width="631"/>
  <unicode hex="005A"/>
  <outline>
    <contour>
      <point x="516" y="169" type="curve"/>
      <point x="537" y="167"/>
      <point x="554" y="162"/>
      <point x="568" y="152" type="curve"/>
      <point x="557" y="108"/>
      <point x="551" y="50"/>
      <point x="550" y="-3" type="curve"/>
      <point x="452" y="0"/>
      <point x="381" y="0"/>
      <point x="289" y="0" type="curve" smooth="yes"/>
      <point x="197" y="0"/>
      <point x="107" y="-1"/>
      <point x="66" y="-3" type="curve"/>
      <point x="61" y="7"/>
      <point x="58" y="16"/>
      <point x="58" y="29" type="curve"/>
      <point x="183" y="231"/>
      <point x="307" y="431"/>
      <point x="425" y="636" type="curve"/>
      <point x="283" y="636" type="line" smooth="yes"/>
      <point x="195" y="636"/>
      <point x="161" y="617"/>
      <point x="140" y="508" type="curve"/>
      <point x="123" y="508"/>
      <point x="96" y="510"/>
      <point x="83" y="518" type="curve"/>
      <point x="95" y="560"/>
      <point x="102" y="624"/>
      <point x="102" y="678" type="curve"/>
      <point x="143" y="677"/>
      <point x="280" y="676"/>
      <point x="346" y="676" type="curve" smooth="yes"/>
      <point x="412" y="676"/>
      <point x="467" y="676"/>
      <point x="538" y="678" type="curve"/>
      <point x="544" y="671"/>
      <point x="549" y="658"/>
      <point x="549" y="645" type="curve"/>
      <point x="428" y="434"/>
      <point x="310" y="237"/>
      <point x="185" y="42" type="curve"/>
      <point x="339" y="42" type="line" smooth="yes"/>
      <point x="462" y="42"/>
      <point x="494" y="60"/>
    </contour>
  </outline>
</glyph>
<glyph name="backslash" format="1">
  <advance width="380"/>
  <unicode hex="005C"/>
  <outline>
    <contour>
      <point x="57" y="713" type="curve" smooth="yes"/>
      <point x="68" y="713"/>
      <point x="78.001" y="712"/>
      <point x="84.001" y="709" type="curve"/>
      <point x="347.001" y="0" type="line"/>
      <point x="340.334" y="-2.66699"/>
      <point x="323.445" y="-4.44434"/>
      <point x="310.26" y="-4.44434" type="curve" smooth="yes"/>
      <point x="303.667" y="-4.44434"/>
      <point x="298" y="-4"/>
      <point x="295" y="-3" type="curve" smooth="yes"/>
      <point x="31" y="709" type="line"/>
      <point x="37" y="712"/>
      <point x="47" y="713"/>
    </contour>
  </outline>
</glyph>
<glyph name="bracketright" format="1">
  <advance width="272"/>
  <unicode hex="005D"/>
  <outline>
    <contour>
      <point x="237" y="-269" type="line"/>
      <point x="203" y="-267"/>
      <point x="164" y="-267"/>
      <point x="131" y="-267" type="curve" smooth="yes"/>
      <point x="104" y="-267"/>
      <point x="63" y="-267"/>
      <point x="35" y="-269" type="curve"/>
      <point x="35" y="-250"/>
      <point x="37" y="-239"/>
      <point x="46" y="-229" type="curve"/>
      <point x="127" y="-225"/>
      <point x="167" y="-221"/>
      <point x="167" y="-157" type="curve" smooth="yes"/>
      <point x="167" y="610" type="line" smooth="yes"/>
      <point x="167" y="688"/>
      <point x="142" y="695"/>
      <point x="35" y="704" type="curve"/>
      <point x="35" y="718"/>
      <point x="37" y="734"/>
      <point x="46" y="742" type="curve"/>
      <point x="84" y="740"/>
      <point x="107" y="740"/>
      <point x="142" y="740" type="curve" smooth="yes"/>
      <point x="168" y="740"/>
      <point x="202" y="740"/>
      <point x="237" y="742" type="curve"/>
    </contour>
  </outline>
</glyph>
<glyph name="asciicircum" format="1">
  <advance width="550"/>
  <unicode hex="005E"/>
  <outline>
    <contour>
      <point x="276" y="644" type="line"/>
      <point x="202" y="556"/>
      <point x="125.999" y="462.001"/>
      <point x="68.999" y="383.001" type="curve"/>
      <point x="53.999" y="396.001"/>
      <point x="46.999" y="409.001"/>
      <point x="41.999" y="430.001" type="curve"/>
      <point x="247.999" y="685.001" type="line"/>
      <point x="259.249" y="691.751"/>
      <point x="274.999" y="695.126"/>
      <point x="289.343" y="695.126" type="curve" smooth="yes"/>
      <point x="294.124" y="695.126"/>
      <point x="298.749" y="694.751"/>
      <point x="302.999" y="694.001" type="curve" smooth="yes"/>
      <point x="356.999" y="612.001"/>
      <point x="444.999" y="486.001"/>
      <point x="506.999" y="404.001" type="curve"/>
      <point x="498.1" y="396.584"/>
      <point x="482.049" y="392.468"/>
      <point x="466.599" y="392.468" type="curve" smooth="yes"/>
      <point x="461.217" y="392.468"/>
      <point x="455.908" y="392.967"/>
      <point x="451" y="394" type="curve" smooth="yes"/>
    </contour>
  </outline>
</glyph>
<glyph name="underscore" format="1">
  <advance width="550"/>
  <unicode hex="005F"/>
  <outline>
    <contour>
      <point x="32" y="-143" type="curve"/>
      <point x="32" y="-122"/>
      <point x="35" y="-105"/>
      <point x="44" y="-92" type="curve"/>
      <point x="518" y="-92" type="line"/>
      <point x="518" y="-106"/>
      <point x="513" y="-131"/>
      <point x="506" y="-142" type="curve"/>
      <point x="396" y="-141"/>
      <point x="347" y="-141"/>
      <point x="263" y="-141" type="curve" smooth="yes"/>
      <point x="189" y="-141"/>
      <point x="131" y="-142"/>
    </contour>
  </outline>
</glyph>
<glyph name="grave" format="1">
  <advance width="300"/>
  <unicode hex="0060"/>
  <outline>
    <contour>
      <point x="193" y="535" type="curve"/>
      <point x="147" y="607"/>
      <point x="108" y="659"/>
      <point x="66" y="704" type="curve"/>
      <point x="82.0477" y="712.024"/>
      <point x="102.286" y="715.095"/>
      <point x="123.188" y="715.095" type="curve" smooth="yes"/>
      <point x="136.15" y="715.095"/>
      <point x="149.368" y="713.914"/>
      <point x="162" y="712" type="curve"/>
      <point x="179" y="655"/>
      <point x="201" y="597"/>
      <point x="233" y="537" type="curve"/>
      <point x="227" y="534"/>
      <point x="220.25" y="533"/>
      <point x="213.375" y="533" type="curve" smooth="yes"/>
      <point x="206.5" y="533"/>
      <point x="199.5" y="534"/>
    </contour>
  </outline>
</glyph>
<glyph name="b" format="1">
  <advance width="547"/>
  <unicode hex="0062"/>
  <outline>
    <contour>
      <point x="320" y="467" type="curve" smooth="yes"/>
      <point x="437" y="467"/>
      <point x="507" y="399"/>
      <point x="507" y="245" type="curve" smooth="yes"/>
      <point x="507" y="105"/>
      <point x="408" y="-9"/>
      <point x="258" y="-9" type="curve" smooth="yes"/>
      <point x="167" y="-9"/>
      <point x="103" y="21"/>
      <point x="63" y="59" type="curve"/>
      <point x="77" y="77"/>
      <point x="85" y="107"/>
      <point x="85" y="186" type="curve" smooth="yes"/>
      <point x="85" y="575" type="line" smooth="yes"/>
      <point x="85" y="622"/>
      <point x="78" y="646"/>
      <point x="10" y="646" type="curve"/>
      <point x="10" y="661"/>
      <point x="12" y="672"/>
      <point x="19" y="683" type="curve"/>
      <point x="49" y="683"/>
      <point x="129" y="700"/>
      <point x="153" y="717" type="curve"/>
      <point x="165" y="713"/>
      <point x="175" y="702"/>
      <point x="175" y="677" type="curve" smooth="yes"/>
      <point x="175" y="416" type="line" smooth="yes"/>
      <point x="175" y="398"/>
      <point x="173" y="385"/>
      <point x="171" y="373" type="curve"/>
      <point x="176" y="382"/>
      <point x="180" y="388"/>
      <point x="183" y="393" type="curve" smooth="yes"/>
      <point x="201" y="423"/>
      <point x="253" y="467"/>
    </contour>
    <contour>
      <point x="263" y="37" type="curve" smooth="yes"/>
      <point x="318" y="37"/>
      <point x="408" y="73"/>
      <point x="408" y="232" type="curve" smooth="yes"/>
      <point x="408" y="360"/>
      <point x="340" y="404"/>
      <point x="296" y="404" type="curve" smooth="yes"/>
      <point x="237" y="404"/>
      <point x="175" y="353"/>
      <point x="175" y="213" type="curve" smooth="yes"/>
      <point x="175" y="72" type="line"/>
      <point x="198" y="51"/>
      <point x="224" y="37"/>
    </contour>
  </outline>
</glyph>
<glyph name="d" format="1">
  <advance width="564"/>
  <unicode hex="0064"/>
  <outline>
    <contour>
      <point x="251" y="54" type="curve" smooth="yes"/>
      <point x="310" y="54"/>
      <point x="372" y="105"/>
      <point x="372" y="245" type="curve" smooth="yes"/>
      <point x="372" y="386" type="line"/>
      <point x="349" y="407"/>
      <point x="323" y="421"/>
      <point x="284" y="421" type="curve" smooth="yes"/>
      <point x="229" y="421"/>
      <point x="139" y="385"/>
      <point x="139" y="226" type="curve" smooth="yes"/>
      <point x="139" y="98"/>
      <point x="207" y="54"/>
    </contour>
    <contour>
      <point x="462" y="136" type="line" smooth="yes"/>
      <point x="462" y="89"/>
      <point x="469" y="68"/>
      <point x="524" y="68" type="curve"/>
      <point x="524" y="54"/>
      <point x="523" y="36"/>
      <point x="518" y="22" type="curve"/>
      <point x="485" y="20"/>
      <point x="435" y="8"/>
      <point x="404" y="-9" type="curve"/>
      <point x="390" y="-3"/>
      <point x="379" y="3"/>
      <point x="379" y="49" type="curve" smooth="yes"/>
      <point x="379" y="69"/>
      <point x="382" y="81"/>
      <point x="387" y="107" type="curve"/>
      <point x="377" y="85"/>
      <point x="369" y="73"/>
      <point x="364" y="65" type="curve" smooth="yes"/>
      <point x="346" y="35"/>
      <point x="294" y="-9"/>
      <point x="227" y="-9" type="curve" smooth="yes"/>
      <point x="110" y="-9"/>
      <point x="40" y="59"/>
      <point x="40" y="213" type="curve" smooth="yes"/>
      <point x="40" y="353"/>
      <point x="139" y="467"/>
      <point x="289" y="467" type="curve" smooth="yes"/>
      <point x="322" y="467"/>
      <point x="345" y="462"/>
      <point x="372" y="453" type="curve"/>
      <point x="372" y="575" type="line" smooth="yes"/>
      <point x="372" y="622"/>
      <point x="365" y="646"/>
      <point x="297" y="646" type="curve"/>
      <point x="297" y="661"/>
      <point x="299" y="672"/>
      <point x="306" y="683" type="curve"/>
      <point x="336" y="683"/>
      <point x="416" y="700"/>
      <point x="440" y="717" type="curve"/>
      <point x="452" y="713"/>
      <point x="462" y="702"/>
      <point x="462" y="677" type="curve" smooth="yes"/>
    </contour>
  </outline>
</glyph>
<glyph name="e" format="1">
  <advance width="460"/>
  <unicode hex="0065"/>
  <outline>
    <contour>
      <point x="50" y="183" type="curve" smooth="yes"/>
      <point x="50" y="320.776"/>
      <point x="151" y="394"/>
      <point x="258" y="394" type="curve" smooth="yes"/>
      <point x="338" y="394"/>
      <point x="390" y="333"/>
      <point x="390" y="281" type="curve" smooth="yes"/>
      <point x="390" y="271"/>
      <point x="351.018" y="264.716"/>
      <point x="261" y="259" type="curve" smooth="yes"/>
      <point x="135" y="251" type="line"/>
      <point x="133.38" y="245.121"/>
      <point x="130" y="216.308"/>
      <point x="130" y="205" type="curve" smooth="yes"/>
      <point x="130" y="132.691"/>
      <point x="180" y="42"/>
      <point x="272" y="42" type="curve" smooth="yes"/>
      <point x="317.446" y="42"/>
      <point x="362.712" y="54.8887"/>
      <point x="390" y="85" type="curve" smooth="yes"/>
      <point x="397" y="91.6953"/>
      <point x="403.5" y="96"/>
      <point x="406" y="96" type="curve" smooth="yes"/>
      <point x="410" y="96"/>
      <point x="410" y="93"/>
      <point x="410" y="90" type="curve" smooth="yes"/>
      <point x="410" y="87.9863"/>
      <point x="405.074" y="79.7451"/>
      <point x="398" y="70" type="curve" smooth="yes"/>
      <point x="356.331" y="25.9189"/>
      <point x="303.819" y="-10"/>
      <point x="231" y="-10" type="curve" smooth="yes"/>
      <point x="138.443" y="-10"/>
      <point x="50" y="78"/>
    </contour>
    <contour>
      <point x="310" y="295" type="curve" smooth="yes"/>
      <point x="310" y="328"/>
      <point x="276" y="363"/>
      <point x="243" y="363" type="curve" smooth="yes"/>
      <point x="185.372" y="363"/>
      <point x="139" y="302"/>
      <point x="139" y="276" type="curve"/>
      <point x="225" y="276" type="line" smooth="yes"/>
      <point x="297" y="276"/>
      <point x="310" y="279"/>
    </contour>
  </outline>
</glyph>
<glyph name="f" format="1">
  <advance width="342"/>
  <unicode hex="0066"/>
  <outline>
    <contour>
      <point x="325" y="714" type="curve" smooth="yes"/>
      <point x="377" y="714"/>
      <point x="398" y="702"/>
      <point x="420" y="689" type="curve"/>
      <point x="417" y="647"/>
      <point x="416" y="608"/>
      <point x="416" y="572" type="curve"/>
      <point x="399" y="567"/>
      <point x="377" y="564"/>
      <point x="359" y="564" type="curve"/>
      <point x="359" y="618"/>
      <point x="337" y="659"/>
      <point x="281" y="659" type="curve" smooth="yes"/>
      <point x="227" y="659"/>
      <point x="206" y="608"/>
      <point x="206" y="519" type="curve" smooth="yes"/>
      <point x="206" y="448" type="line"/>
      <point x="308" y="448" type="line"/>
      <point x="308" y="435"/>
      <point x="306" y="416"/>
      <point x="298" y="403" type="curve"/>
      <point x="263" y="403"/>
      <point x="232" y="399"/>
      <point x="206" y="392" type="curve"/>
      <point x="206" y="147" type="line" smooth="yes"/>
      <point x="206" y="60"/>
      <point x="232" y="43"/>
      <point x="295" y="40" type="curve"/>
      <point x="299" y="29"/>
      <point x="300" y="15"/>
      <point x="300" y="-3" type="curve"/>
      <point x="269" y="-1"/>
      <point x="221" y="0"/>
      <point x="174" y="0" type="curve" smooth="yes"/>
      <point x="127" y="0"/>
      <point x="68" y="-1"/>
      <point x="42" y="-3" type="curve"/>
      <point x="42" y="15"/>
      <point x="43" y="29"/>
      <point x="47" y="40" type="curve"/>
      <point x="100" y="43"/>
      <point x="116" y="60"/>
      <point x="116" y="127" type="curve" smooth="yes"/>
      <point x="116" y="395" type="line"/>
      <point x="87" y="401"/>
      <point x="56" y="403"/>
      <point x="36" y="403" type="curve"/>
      <point x="36" y="420"/>
      <point x="40" y="435"/>
      <point x="50" y="448" type="curve"/>
      <point x="116" y="448" type="line"/>
      <point x="116" y="488" type="line" smooth="yes"/>
      <point x="116" y="638"/>
      <point x="221" y="714"/>
    </contour>
  </outline>
</glyph>
<glyph name="g" format="1">
  <advance width="511"/>
  <unicode hex="0067"/>
  <outline>
    <contour>
      <point x="239" y="-196" type="curve" smooth="yes"/>
      <point x="327" y="-196"/>
      <point x="380" y="-144"/>
      <point x="380" y="-87" type="curve" smooth="yes"/>
      <point x="380" y="-36"/>
      <point x="352" y="-17"/>
      <point x="215" y="-17" type="curve" smooth="yes"/>
      <point x="194" y="-17"/>
      <point x="176" y="-16"/>
      <point x="161" y="-15" type="curve"/>
      <point x="135" y="-37"/>
      <point x="127" y="-60"/>
      <point x="127" y="-93" type="curve" smooth="yes"/>
      <point x="127" y="-161"/>
      <point x="157" y="-196"/>
    </contour>
    <contour>
      <point x="227" y="422" type="curve" smooth="yes"/>
      <point x="174" y="422"/>
      <point x="149" y="369"/>
      <point x="149" y="314" type="curve" smooth="yes"/>
      <point x="149" y="231"/>
      <point x="187" y="185"/>
      <point x="251" y="185" type="curve" smooth="yes"/>
      <point x="295" y="185"/>
      <point x="326" y="222"/>
      <point x="326" y="292" type="curve" smooth="yes"/>
      <point x="326" y="363"/>
      <point x="290" y="422"/>
    </contour>
    <contour>
      <point x="282" y="63" type="curve" smooth="yes"/>
      <point x="416" y="63"/>
      <point x="463" y="33"/>
      <point x="463" y="-48" type="curve" smooth="yes"/>
      <point x="463" y="-139"/>
      <point x="359" y="-249"/>
      <point x="215" y="-249" type="curve" smooth="yes"/>
      <point x="92" y="-249"/>
      <point x="41" y="-202"/>
      <point x="41" y="-114" type="curve" smooth="yes"/>
      <point x="41" y="-65"/>
      <point x="67" y="-28"/>
      <point x="115" y="-6" type="curve"/>
      <point x="78" y="7"/>
      <point x="67" y="30"/>
      <point x="67" y="68" type="curve" smooth="yes"/>
      <point x="67" y="106"/>
      <point x="88" y="143"/>
      <point x="120" y="174" type="curve"/>
      <point x="82" y="201"/>
      <point x="57" y="244"/>
      <point x="57" y="301" type="curve" smooth="yes"/>
      <point x="57" y="393"/>
      <point x="118" y="467"/>
      <point x="237" y="467" type="curve" smooth="yes"/>
      <point x="261" y="467"/>
      <point x="282" y="464"/>
      <point x="300" y="458" type="curve"/>
      <point x="464" y="458" type="line"/>
      <point x="469" y="441"/>
      <point x="471" y="417"/>
      <point x="471" y="396" type="curve"/>
      <point x="446" y="402"/>
      <point x="405" y="409"/>
      <point x="374" y="412" type="curve"/>
      <point x="406" y="379"/>
      <point x="420" y="337"/>
      <point x="420" y="307" type="curve" smooth="yes"/>
      <point x="420" y="214"/>
      <point x="357" y="139"/>
      <point x="239" y="139" type="curve" smooth="yes"/>
      <point x="212" y="139"/>
      <point x="186" y="143"/>
      <point x="162" y="152" type="curve"/>
      <point x="144" y="134"/>
      <point x="137" y="118"/>
      <point x="137" y="105" type="curve" smooth="yes"/>
      <point x="137" y="69"/>
      <point x="154" y="63"/>
    </contour>
  </outline>
</glyph>
<glyph name="h" format="1">
  <advance width="596"/>
  <unicode hex="0068"/>
  <outline>
    <contour>
      <point x="555" y="40" type="curve"/>
      <point x="559" y="28"/>
      <point x="560" y="15"/>
      <point x="560" y="-3" type="curve"/>
      <point x="531" y="-1"/>
      <point x="492" y="0"/>
      <point x="451" y="0" type="curve" smooth="yes"/>
      <point x="410" y="0"/>
      <point x="363" y="-2"/>
      <point x="332" y="-3" type="curve"/>
      <point x="332" y="15"/>
      <point x="333" y="29"/>
      <point x="337" y="40" type="curve"/>
      <point x="385" y="40"/>
      <point x="406" y="60"/>
      <point x="406" y="127" type="curve" smooth="yes"/>
      <point x="406" y="279" type="line" smooth="yes"/>
      <point x="406" y="373"/>
      <point x="367" y="401"/>
      <point x="313" y="401" type="curve" smooth="yes"/>
      <point x="261" y="401"/>
      <point x="200" y="356"/>
      <point x="200" y="234" type="curve" smooth="yes"/>
      <point x="200" y="127" type="line" smooth="yes"/>
      <point x="200" y="60"/>
      <point x="217" y="40"/>
      <point x="269" y="40" type="curve"/>
      <point x="273" y="28"/>
      <point x="274" y="15"/>
      <point x="274" y="-3" type="curve"/>
      <point x="246" y="-2"/>
      <point x="196" y="0"/>
      <point x="155" y="0" type="curve" smooth="yes"/>
      <point x="114" y="0"/>
      <point x="65" y="-1"/>
      <point x="36" y="-3" type="curve"/>
      <point x="36" y="15"/>
      <point x="37" y="29"/>
      <point x="41" y="40" type="curve"/>
      <point x="93" y="40"/>
      <point x="110" y="60"/>
      <point x="110" y="127" type="curve" smooth="yes"/>
      <point x="110" y="575" type="line" smooth="yes"/>
      <point x="110" y="622"/>
      <point x="103" y="646"/>
      <point x="35" y="646" type="curve"/>
      <point x="35" y="661"/>
      <point x="37" y="672"/>
      <point x="44" y="683" type="curve"/>
      <point x="74" y="683"/>
      <point x="154" y="700"/>
      <point x="178" y="717" type="curve"/>
      <point x="190" y="713"/>
      <point x="200" y="702"/>
      <point x="200" y="677" type="curve" smooth="yes"/>
      <point x="200" y="423" type="line" smooth="yes"/>
      <point x="200" y="407"/>
      <point x="199" y="387"/>
      <point x="193" y="364" type="curve"/>
      <point x="197" y="371"/>
      <point x="200" y="379"/>
      <point x="208" y="390" type="curve" smooth="yes"/>
      <point x="230" y="421"/>
      <point x="282" y="462"/>
      <point x="353" y="462" type="curve" smooth="yes"/>
      <point x="429" y="462"/>
      <point x="496" y="421"/>
      <point x="496" y="299" type="curve" smooth="yes"/>
      <point x="496" y="127" type="line" smooth="yes"/>
      <point x="496" y="58"/>
      <point x="515" y="40"/>
    </contour>
  </outline>
</glyph>
<glyph name="i" format="1">
  <advance width="301"/>
  <unicode hex="0069"/>
  <outline>
    <contour>
      <point x="37" y="-3" type="curve"/>
      <point x="37" y="10"/>
      <point x="38" y="27"/>
      <point x="42" y="40" type="curve"/>
      <point x="95" y="40"/>
      <point x="111" y="60"/>
      <point x="111" y="127" type="curve" smooth="yes"/>
      <point x="111" y="325" type="line" smooth="yes"/>
      <point x="111" y="372"/>
      <point x="104" y="396"/>
      <point x="36" y="396" type="curve"/>
      <point x="36" y="411"/>
      <point x="38" y="422"/>
      <point x="45" y="433" type="curve"/>
      <point x="75" y="433"/>
      <point x="155" y="450"/>
      <point x="179" y="467" type="curve"/>
      <point x="191" y="463"/>
      <point x="201" y="452"/>
      <point x="201" y="427" type="curve" smooth="yes"/>
      <point x="201" y="127" type="line" smooth="yes"/>
      <point x="201" y="60"/>
      <point x="217" y="40"/>
      <point x="260" y="40" type="curve"/>
      <point x="264" y="26"/>
      <point x="265" y="6"/>
      <point x="265" y="-3" type="curve"/>
      <point x="230" y="-1"/>
      <point x="190" y="0"/>
      <point x="152" y="0" type="curve" smooth="yes"/>
      <point x="114" y="0"/>
      <point x="70" y="-1"/>
    </contour>
    <contour>
      <point x="148" y="580" type="curve" smooth="yes"/>
      <point x="114" y="580"/>
      <point x="89" y="606"/>
      <point x="89" y="638" type="curve" smooth="yes"/>
      <point x="89" y="674"/>
      <point x="117" y="699"/>
      <point x="148" y="699" type="curve" smooth="yes"/>
      <point x="184" y="699"/>
      <point x="208" y="674"/>
      <point x="208" y="638" type="curve" smooth="yes"/>
      <point x="208" y="607"/>
      <point x="181" y="580"/>
    </contour>
  </outline>
</glyph>
<glyph name="j" format="1">
  <advance width="283"/>
  <unicode hex="006A"/>
  <outline>
    <contour>
      <point x="35" y="-249" type="curve"/>
      <point x="25" y="-244"/>
      <point x="15" y="-234"/>
      <point x="13" y="-221" type="curve"/>
      <point x="90" y="-134"/>
      <point x="111" y="-79"/>
      <point x="111" y="19" type="curve" smooth="yes"/>
      <point x="111" y="325" type="line" smooth="yes"/>
      <point x="111" y="372"/>
      <point x="104" y="396"/>
      <point x="36" y="396" type="curve"/>
      <point x="36" y="411"/>
      <point x="38" y="422"/>
      <point x="45" y="433" type="curve"/>
      <point x="75" y="433"/>
      <point x="155" y="450"/>
      <point x="179" y="467" type="curve"/>
      <point x="191" y="463"/>
      <point x="201" y="452"/>
      <point x="201" y="427" type="curve" smooth="yes"/>
      <point x="201" y="33" type="line" smooth="yes"/>
      <point x="201" y="-111"/>
      <point x="115" y="-203"/>
    </contour>
    <contour>
      <point x="148" y="580" type="curve" smooth="yes"/>
      <point x="114" y="580"/>
      <point x="89" y="606"/>
      <point x="89" y="638" type="curve" smooth="yes"/>
      <point x="89" y="674"/>
      <point x="117" y="699"/>
      <point x="148" y="699" type="curve" smooth="yes"/>
      <point x="184" y="699"/>
      <point x="208" y="674"/>
      <point x="208" y="638" type="curve" smooth="yes"/>
      <point x="208" y="607"/>
      <point x="181" y="580"/>
    </contour>
  </outline>
</glyph>
<glyph name="k" format="1">
  <advance width="545"/>
  <unicode hex="006B"/>
  <outline>
    <contour>
      <point x="421" y="106" type="curve" smooth="yes"/>
      <point x="461" y="57"/>
      <point x="479" y="47"/>
      <point x="525" y="43" type="curve"/>
      <point x="525" y="24"/>
      <point x="524" y="11"/>
      <point x="520" y="0" type="curve"/>
      <point x="472" y="0"/>
      <point x="436" y="-2"/>
      <point x="392" y="-9" type="curve"/>
      <point x="351" y="53"/>
      <point x="269" y="154"/>
      <point x="200" y="225" type="curve"/>
      <point x="200" y="127" type="line" smooth="yes"/>
      <point x="200" y="60"/>
      <point x="216" y="40"/>
      <point x="259" y="40" type="curve"/>
      <point x="263" y="26"/>
      <point x="264" y="6"/>
      <point x="264" y="-3" type="curve"/>
      <point x="229" y="-1"/>
      <point x="189" y="0"/>
      <point x="151" y="0" type="curve" smooth="yes"/>
      <point x="113" y="0"/>
      <point x="69" y="-1"/>
      <point x="36" y="-3" type="curve"/>
      <point x="36" y="10"/>
      <point x="37" y="27"/>
      <point x="41" y="40" type="curve"/>
      <point x="94" y="40"/>
      <point x="110" y="60"/>
      <point x="110" y="127" type="curve" smooth="yes"/>
      <point x="110" y="575" type="line" smooth="yes"/>
      <point x="110" y="622"/>
      <point x="103" y="646"/>
      <point x="35" y="646" type="curve"/>
      <point x="35" y="661"/>
      <point x="37" y="672"/>
      <point x="44" y="683" type="curve"/>
      <point x="74" y="683"/>
      <point x="154" y="700"/>
      <point x="178" y="717" type="curve"/>
      <point x="190" y="713"/>
      <point x="200" y="702"/>
      <point x="200" y="677" type="curve" smooth="yes"/>
      <point x="200" y="256" type="line"/>
      <point x="274" y="323" type="line" smooth="yes"/>
      <point x="320" y="364"/>
      <point x="338" y="389"/>
      <point x="338" y="403" type="curve" smooth="yes"/>
      <point x="338" y="414"/>
      <point x="327" y="419"/>
      <point x="309" y="419" type="curve"/>
      <point x="305" y="432"/>
      <point x="303" y="445"/>
      <point x="303" y="460" type="curve"/>
      <point x="346" y="458"/>
      <point x="380" y="458"/>
      <point x="407" y="458" type="curve" smooth="yes"/>
      <point x="429" y="458"/>
      <point x="465" y="458"/>
      <point x="501" y="460" type="curve"/>
      <point x="501" y="447"/>
      <point x="499" y="430"/>
      <point x="494" y="418" type="curve"/>
      <point x="455" y="417"/>
      <point x="422" y="402"/>
      <point x="372" y="357" type="curve" smooth="yes"/>
      <point x="277" y="271" type="line"/>
      <point x="318" y="228"/>
      <point x="360" y="180"/>
    </contour>
  </outline>
</glyph>
<glyph name="l" format="1">
  <advance width="299"/>
  <unicode hex="006C"/>
  <outline>
    <contour>
      <point x="36" y="-3" type="curve"/>
      <point x="36" y="10"/>
      <point x="37" y="27"/>
      <point x="41" y="40" type="curve"/>
      <point x="94" y="40"/>
      <point x="110" y="60"/>
      <point x="110" y="127" type="curve" smooth="yes"/>
      <point x="110" y="575" type="line" smooth="yes"/>
      <point x="110" y="622"/>
      <point x="103" y="646"/>
      <point x="35" y="646" type="curve"/>
      <point x="35" y="661"/>
      <point x="37" y="672"/>
      <point x="44" y="683" type="curve"/>
      <point x="74" y="683"/>
      <point x="154" y="700"/>
      <point x="178" y="717" type="curve"/>
      <point x="190" y="713"/>
      <point x="200" y="702"/>
      <point x="200" y="677" type="curve" smooth="yes"/>
      <point x="200" y="127" type="line" smooth="yes"/>
      <point x="200" y="60"/>
      <point x="216" y="40"/>
      <point x="259" y="40" type="curve"/>
      <point x="263" y="26"/>
      <point x="264" y="6"/>
      <point x="264" y="-3" type="curve"/>
      <point x="229" y="-1"/>
      <point x="189" y="0"/>
      <point x="151" y="0" type="curve" smooth="yes"/>
      <point x="113" y="0"/>
      <point x="69" y="-1"/>
    </contour>
  </outline>
</glyph>
<glyph name="r" format="1">
  <advance width="419"/>
  <unicode hex="0072"/>
  <outline>
    <contour>
      <point x="330" y="458" type="curve" smooth="yes"/>
      <point x="357" y="458"/>
      <point x="378" y="450"/>
      <point x="399" y="434" type="curve"/>
      <point x="394" y="401"/>
      <point x="392" y="351"/>
      <point x="392" y="316" type="curve"/>
      <point x="380" y="312"/>
      <point x="357" y="307"/>
      <point x="335" y="307" type="curve"/>
      <point x="332" y="371"/>
      <point x="312" y="385"/>
      <point x="286" y="385" type="curve" smooth="yes"/>
      <point x="251" y="385"/>
      <point x="201" y="321"/>
      <point x="201" y="243" type="curve" smooth="yes"/>
      <point x="201" y="147" type="line" smooth="yes"/>
      <point x="201" y="60"/>
      <point x="227" y="43"/>
      <point x="290" y="40" type="curve"/>
      <point x="294" y="29"/>
      <point x="295" y="15"/>
      <point x="295" y="-3" type="curve"/>
      <point x="264" y="-1"/>
      <point x="216" y="0"/>
      <point x="169" y="0" type="curve" smooth="yes"/>
      <point x="122" y="0"/>
      <point x="63" y="-1"/>
      <point x="37" y="-3" type="curve"/>
      <point x="37" y="15"/>
      <point x="38" y="29"/>
      <point x="42" y="40" type="curve"/>
      <point x="95" y="43"/>
      <point x="111" y="60"/>
      <point x="111" y="127" type="curve" smooth="yes"/>
      <point x="111" y="325" type="line" smooth="yes"/>
      <point x="111" y="372"/>
      <point x="102" y="394"/>
      <point x="36" y="396" type="curve"/>
      <point x="36" y="411"/>
      <point x="38" y="422"/>
      <point x="45" y="433" type="curve"/>
      <point x="86" y="436"/>
      <point x="148" y="451"/>
      <point x="179" y="467" type="curve"/>
      <point x="191" y="463"/>
      <point x="201" y="452"/>
      <point x="201" y="423" type="curve" smooth="yes"/>
      <point x="201" y="385"/>
      <point x="194" y="355"/>
      <point x="188" y="325" type="curve"/>
      <point x="196" y="348"/>
      <point x="201" y="365"/>
      <point x="209" y="377" type="curve" smooth="yes"/>
      <point x="238" y="423"/>
      <point x="278" y="458"/>
    </contour>
  </outline>
</glyph>
<glyph name="s" format="1">
  <advance width="300"/>
  <unicode hex="0073"/>
  <outline>
    <contour>
      <point x="35" y="100" type="line" smooth="yes"/>
      <point x="35" y="105.424"/>
      <point x="40" y="110"/>
      <point x="46" y="110" type="curve" smooth="yes"/>
      <point x="52" y="110"/>
      <point x="57" y="103"/>
      <point x="57" y="95" type="curve" smooth="yes"/>
      <point x="57" y="71.0469"/>
      <point x="105" y="22"/>
      <point x="128" y="22" type="curve" smooth="yes"/>
      <point x="184.223" y="22"/>
      <point x="206" y="49.2793"/>
      <point x="206" y="84" type="curve" smooth="yes"/>
      <point x="206" y="114"/>
      <point x="187.415" y="143.215"/>
      <point x="145" y="165" type="curve" smooth="yes"/>
      <point x="131.371" y="172" type="line" smooth="yes"/>
      <point x="68.0684" y="204.514"/>
      <point x="37" y="244.056"/>
      <point x="37" y="284" type="curve" smooth="yes"/>
      <point x="37" y="364.914"/>
      <point x="107.452" y="394"/>
      <point x="155" y="394" type="curve" smooth="yes"/>
      <point x="164.181" y="394"/>
      <point x="178.06" y="393.284"/>
      <point x="189" y="390.276" type="curve" smooth="yes"/>
      <point x="197.087" y="388.053"/>
      <point x="203.936" y="388"/>
      <point x="207" y="388" type="curve" smooth="yes"/>
      <point x="216.35" y="388"/>
      <point x="224.874" y="390.5"/>
      <point x="229" y="392" type="curve" smooth="yes"/>
      <point x="231" y="394"/>
      <point x="232" y="394"/>
      <point x="234" y="394" type="curve" smooth="yes"/>
      <point x="239" y="394"/>
      <point x="240.902" y="387.32"/>
      <point x="243" y="374" type="curve" smooth="yes"/>
      <point x="250" y="314" type="line" smooth="yes"/>
      <point x="250.636" y="308.549"/>
      <point x="247.632" y="305"/>
      <point x="241" y="305" type="curve" smooth="yes"/>
      <point x="233.68" y="305"/>
      <point x="228.998" y="314.671"/>
      <point x="223" y="331" type="curve" smooth="yes"/>
      <point x="214.98" y="352.833"/>
      <point x="185" y="365"/>
      <point x="161" y="365" type="curve" smooth="yes"/>
      <point x="128.018" y="365"/>
      <point x="97" y="356.43"/>
      <point x="97" y="305" type="curve" smooth="yes"/>
      <point x="97" y="265.082"/>
      <point x="122.854" y="244.524"/>
      <point x="144" y="228.043" type="curve"/>
      <point x="185" y="208.072" type="line" smooth="yes"/>
      <point x="239.064" y="180.262"/>
      <point x="286" y="150.945"/>
      <point x="286" y="95" type="curve" smooth="yes"/>
      <point x="286" y="39.5908"/>
      <point x="240.735" y="-10"/>
      <point x="137" y="-10" type="curve" smooth="yes"/>
      <point x="124" y="-10"/>
      <point x="112.837" y="-4.68457"/>
      <point x="97" y="4" type="curve" smooth="yes"/>
      <point x="84.8896" y="10.6416"/>
      <point x="74" y="11"/>
      <point x="66" y="11" type="curve" smooth="yes"/>
      <point x="58" y="11"/>
      <point x="51" y="8"/>
      <point x="47" y="4" type="curve" smooth="yes"/>
      <point x="45" y="2"/>
      <point x="44" y="2"/>
      <point x="43" y="2" type="curve" smooth="yes"/>
      <point x="38" y="2"/>
      <point x="35" y="4.75488"/>
      <point x="35" y="11" type="curve" smooth="yes"/>
    </contour>
  </outline>
</glyph>
<glyph name="t" format="1">
  <advance width="351"/>
  <unicode hex="0074"/>
  <outline>
    <contour>
      <point x="208" y="-9" type="curve" smooth="yes"/>
      <point x="129" y="-9"/>
      <point x="92" y="29"/>
      <point x="92" y="120" type="curve" smooth="yes"/>
      <point x="92" y="391" type="line"/>
      <point x="72" y="398"/>
      <point x="53" y="402"/>
      <point x="20" y="404" type="curve"/>
      <point x="20" y="421"/>
      <point x="22" y="432"/>
      <point x="29" y="448" type="curve"/>
      <point x="92" y="448" type="line"/>
      <point x="92" y="580" type="line"/>
      <point x="118" y="587"/>
      <point x="146" y="603"/>
      <point x="166" y="620" type="curve"/>
      <point x="179" y="614"/>
      <point x="182" y="610"/>
      <point x="182" y="568" type="curve" smooth="yes"/>
      <point x="182" y="448" type="line"/>
      <point x="312" y="448" type="line"/>
      <point x="312" y="435"/>
      <point x="309" y="419"/>
      <point x="303" y="404" type="curve"/>
      <point x="255" y="402"/>
      <point x="215" y="398"/>
      <point x="182" y="391" type="curve"/>
      <point x="182" y="141" type="line" smooth="yes"/>
      <point x="182" y="74"/>
      <point x="204" y="45"/>
      <point x="240" y="45" type="curve" smooth="yes"/>
      <point x="268" y="45"/>
      <point x="287" y="53"/>
      <point x="306" y="69" type="curve"/>
      <point x="314" y="60"/>
      <point x="320" y="47"/>
      <point x="321" y="36" type="curve"/>
      <point x="299" y="11"/>
      <point x="250" y="-9"/>
    </contour>
  </outline>
</glyph>
<glyph name="u" format="1">
  <advance width="564"/>
  <unicode hex="0075"/>
  <outline>
    <contour>
      <point x="462" y="136" type="line" smooth="yes"/>
      <point x="462" y="89"/>
      <point x="469" y="68"/>
      <point x="524" y="68" type="curve"/>
      <point x="524" y="54"/>
      <point x="523" y="36"/>
      <point x="518" y="22" type="curve"/>
      <point x="485" y="20"/>
      <point x="435" y="8"/>
      <point x="404" y="-9" type="curve"/>
      <point x="390" y="-3"/>
      <point x="379" y="3"/>
      <point x="379" y="49" type="curve" smooth="yes"/>
      <point x="379" y="58"/>
      <point x="379" y="71"/>
      <point x="382" y="91" type="curve"/>
      <point x="375" y="75"/>
      <point x="364" y="61"/>
      <point x="350" y="47" type="curve" smooth="yes"/>
      <point x="315" y="12"/>
      <point x="279" y="-4"/>
      <point x="225" y="-4" type="curve" smooth="yes"/>
      <point x="135" y="-4"/>
      <point x="82" y="41"/>
      <point x="82" y="174" type="curve" smooth="yes"/>
      <point x="82" y="325" type="line" smooth="yes"/>
      <point x="82" y="372"/>
      <point x="77" y="394"/>
      <point x="16" y="396" type="curve"/>
      <point x="16" y="411"/>
      <point x="17" y="421"/>
      <point x="23" y="433" type="curve"/>
      <point x="64" y="436"/>
      <point x="119" y="451"/>
      <point x="150" y="467" type="curve"/>
      <point x="162" y="463"/>
      <point x="172" y="452"/>
      <point x="172" y="423" type="curve" smooth="yes"/>
      <point x="172" y="196" type="line" smooth="yes"/>
      <point x="172" y="106"/>
      <point x="193" y="57"/>
      <point x="255" y="57" type="curve" smooth="yes"/>
      <point x="321" y="57"/>
      <point x="372" y="112"/>
      <point x="372" y="228" type="curve" smooth="yes"/>
      <point x="372" y="330" type="line" smooth="yes"/>
      <point x="372" y="377"/>
      <point x="363" y="399"/>
      <point x="297" y="401" type="curve"/>
      <point x="297" y="416"/>
      <point x="297" y="426"/>
      <point x="304" y="438" type="curve"/>
      <point x="356" y="441"/>
      <point x="410" y="453"/>
      <point x="440" y="467" type="curve"/>
      <point x="452" y="463"/>
      <point x="462" y="452"/>
      <point x="462" y="423" type="curve" smooth="yes"/>
    </contour>
  </outline>
</glyph>
<glyph name="v" format="1">
  <advance width="528"/>
  <unicode hex="0076"/>
  <outline>
    <contour>
      <point x="420" y="458" type="curve" smooth="yes"/>
      <point x="451" y="458"/>
      <point x="489.001" y="459"/>
      <point x="513.001" y="461" type="curve"/>
      <point x="513.001" y="443"/>
      <point x="510.001" y="430"/>
      <point x="504.001" y="418" type="curve"/>
      <point x="471.001" y="411"/>
      <point x="457.001" y="388"/>
      <point x="424.001" y="309" type="curve" smooth="yes"/>
      <point x="289.001" y="0" type="line"/>
      <point x="277.001" y="-6"/>
      <point x="259.001" y="-9"/>
      <point x="243.001" y="-9" type="curve"/>
      <point x="217.001" y="57"/>
      <point x="103.001" y="312"/>
      <point x="83.001" y="355" type="curve" smooth="yes"/>
      <point x="57.001" y="408"/>
      <point x="48.001" y="415"/>
      <point x="21.001" y="418" type="curve"/>
      <point x="16.001" y="435"/>
      <point x="15.001" y="442"/>
      <point x="15.001" y="461" type="curve"/>
      <point x="43.001" y="459"/>
      <point x="78.001" y="458"/>
      <point x="120.001" y="458" type="curve" smooth="yes"/>
      <point x="162.001" y="458"/>
      <point x="211.001" y="459"/>
      <point x="243.001" y="461" type="curve"/>
      <point x="243.001" y="446"/>
      <point x="240.001" y="432"/>
      <point x="236.001" y="420" type="curve"/>
      <point x="191.783" y="416.7"/>
      <point x="173.698" y="411.223"/>
      <point x="173.698" y="392.357" type="curve" smooth="yes"/>
      <point x="173.698" y="382.637"/>
      <point x="178.499" y="369.362"/>
      <point x="187" y="351" type="curve" smooth="yes"/>
      <point x="204" y="314"/>
      <point x="258" y="187"/>
      <point x="291" y="100" type="curve"/>
      <point x="371" y="300" type="line" smooth="yes"/>
      <point x="383.219" y="331.266"/>
      <point x="388.979" y="354.911"/>
      <point x="388.979" y="372.562" type="curve" smooth="yes"/>
      <point x="388.979" y="404.025"/>
      <point x="370.672" y="416.438"/>
      <point x="338" y="419" type="curve"/>
      <point x="331" y="432"/>
      <point x="327" y="447"/>
      <point x="327" y="461" type="curve"/>
      <point x="353" y="459"/>
      <point x="389" y="458"/>
    </contour>
  </outline>
</glyph>
<glyph name="w" format="1">
  <advance width="774"/>
  <unicode hex="0077"/>
  <outline>
    <contour>
      <point x="671" y="458" type="curve" smooth="yes"/>
      <point x="707" y="458"/>
      <point x="735.999" y="459"/>
      <point x="758.999" y="461" type="curve"/>
      <point x="758.999" y="443"/>
      <point x="756.999" y="431"/>
      <point x="750.999" y="417" type="curve"/>
      <point x="720.999" y="409"/>
      <point x="709.999" y="389"/>
      <point x="676.999" y="291" type="curve" smooth="yes"/>
      <point x="575.999" y="0" type="line"/>
      <point x="563.999" y="-7"/>
      <point x="548.999" y="-9"/>
      <point x="529.999" y="-9" type="curve"/>
      <point x="486.999" y="101"/>
      <point x="435.999" y="224"/>
      <point x="389.999" y="328" type="curve"/>
      <point x="258.999" y="0" type="line"/>
      <point x="247.999" y="-7"/>
      <point x="236.999" y="-9"/>
      <point x="214.999" y="-9" type="curve"/>
      <point x="169.999" y="120"/>
      <point x="125.999" y="238"/>
      <point x="76.999" y="358" type="curve" smooth="yes"/>
      <point x="61.999" y="395"/>
      <point x="49.999" y="408"/>
      <point x="20.999" y="417" type="curve"/>
      <point x="15.999" y="430"/>
      <point x="14.999" y="448"/>
      <point x="14.999" y="460" type="curve"/>
      <point x="40.999" y="459"/>
      <point x="68.999" y="458"/>
      <point x="112.999" y="458" type="curve" smooth="yes"/>
      <point x="156.999" y="458"/>
      <point x="188.999" y="459"/>
      <point x="222.999" y="461" type="curve"/>
      <point x="222.999" y="448"/>
      <point x="221.999" y="427"/>
      <point x="217.999" y="417" type="curve"/>
      <point x="180.239" y="412.954"/>
      <point x="167.031" y="403.907"/>
      <point x="167.031" y="387.101" type="curve" smooth="yes"/>
      <point x="167.031" y="378.981"/>
      <point x="170.113" y="369.052"/>
      <point x="174.999" y="357" type="curve" smooth="yes"/>
      <point x="203.999" y="285"/>
      <point x="235.999" y="194"/>
      <point x="261.999" y="119" type="curve"/>
      <point x="392.999" y="458" type="line"/>
      <point x="402.999" y="461"/>
      <point x="419.999" y="462"/>
      <point x="432.999" y="462" type="curve"/>
      <point x="474.999" y="366"/>
      <point x="525.999" y="240"/>
      <point x="573.999" y="118" type="curve"/>
      <point x="630.999" y="288" type="line" smooth="yes"/>
      <point x="640.83" y="318.761"/>
      <point x="645.331" y="342.381"/>
      <point x="645.331" y="360.487" type="curve" smooth="yes"/>
      <point x="645.331" y="399.479"/>
      <point x="624.461" y="412.902"/>
      <point x="591" y="417" type="curve"/>
      <point x="585" y="431"/>
      <point x="582" y="447"/>
      <point x="582" y="461" type="curve"/>
      <point x="607" y="459"/>
      <point x="642" y="458"/>
    </contour>
  </outline>
</glyph>
<glyph name="x" format="1">
  <advance width="610"/>
  <unicode hex="0078"/>
  <outline>
    <contour>
      <point x="90" y="16" type="curve" smooth="yes"/>
      <point x="90" y="22"/>
      <point x="94" y="32"/>
      <point x="100" y="32" type="curve" smooth="yes"/>
      <point x="122.397" y="32" type="line" smooth="yes"/>
      <point x="140.449" y="32"/>
      <point x="156.426" y="33.9307"/>
      <point x="173.868" y="53.4023" type="curve" smooth="yes"/>
      <point x="183.029" y="63.6289"/>
      <point x="195.148" y="79.0273"/>
      <point x="207.905" y="97.2461" type="curve" smooth="yes"/>
      <point x="266.332" y="180.688" type="line"/>
      <point x="183" y="315" type="line" smooth="yes"/>
      <point x="168.423" y="338.495"/>
      <point x="154" y="352"/>
      <point x="134" y="352" type="curve" smooth="yes"/>
      <point x="120" y="352" type="line" smooth="yes"/>
      <point x="114" y="352"/>
      <point x="110.038" y="362"/>
      <point x="110.038" y="368" type="curve" smooth="yes"/>
      <point x="110.038" y="374"/>
      <point x="114" y="384"/>
      <point x="120" y="384" type="curve" smooth="yes"/>
      <point x="196.732" y="384" type="line" smooth="yes"/>
      <point x="207.956" y="384"/>
      <point x="218.385" y="378.271"/>
      <point x="233" y="356" type="curve" smooth="yes"/>
      <point x="321.157" y="221.668" type="line"/>
      <point x="399.638" y="334.212" type="line" smooth="yes"/>
      <point x="406.242" y="343.684"/>
      <point x="405.402" y="350.624"/>
      <point x="403.654" y="352.424" type="curve" smooth="yes"/>
      <point x="397.072" y="359.202"/>
      <point x="394" y="363.103"/>
      <point x="394" y="368" type="curve" smooth="yes"/>
      <point x="394" y="374"/>
      <point x="397.601" y="384"/>
      <point x="404.004" y="384" type="curve" smooth="yes"/>
      <point x="497" y="384" type="line" smooth="yes"/>
      <point x="503" y="384"/>
      <point x="507" y="374"/>
      <point x="507" y="368" type="curve" smooth="yes"/>
      <point x="507" y="362"/>
      <point x="503" y="352"/>
      <point x="497" y="352" type="curve" smooth="yes"/>
      <point x="488.102" y="352" type="line" smooth="yes"/>
      <point x="464.954" y="352"/>
      <point x="432.365" y="339.622"/>
      <point x="419.466" y="321.352" type="curve" smooth="yes"/>
      <point x="334.539" y="201.062" type="line"/>
      <point x="401.732" y="97.5938" type="line" smooth="yes"/>
      <point x="431.676" y="51.4854"/>
      <point x="447.579" y="32"/>
      <point x="481.95" y="32" type="curve" smooth="yes"/>
      <point x="510" y="32" type="line" smooth="yes"/>
      <point x="516" y="32"/>
      <point x="520" y="22"/>
      <point x="520" y="16" type="curve" smooth="yes"/>
      <point x="520" y="10"/>
      <point x="516" y="0"/>
      <point x="510" y="0" type="curve" smooth="yes"/>
      <point x="384.076" y="0" type="line"/>
      <point x="278.905" y="161.326" type="line"/>
      <point x="230.167" y="91.7197" type="line" smooth="yes"/>
      <point x="216.645" y="72.9922"/>
      <point x="210.328" y="59.8047"/>
      <point x="204.123" y="49.3457" type="curve" smooth="yes"/>
      <point x="199.672" y="38.0713"/>
      <point x="203" y="32"/>
      <point x="209" y="32" type="curve" smooth="yes"/>
      <point x="220" y="32" type="line" smooth="yes"/>
      <point x="226" y="32"/>
      <point x="230" y="22"/>
      <point x="230" y="16" type="curve" smooth="yes"/>
      <point x="230" y="10"/>
      <point x="226" y="0"/>
      <point x="220" y="0" type="curve" smooth="yes"/>
      <point x="152.532" y="0" type="line"/>
      <point x="100" y="0" type="line" smooth="yes"/>
      <point x="94" y="0"/>
      <point x="90" y="10"/>
    </contour>
  </outline>
</glyph>
<glyph name="z" format="1">
  <advance width="501"/>
  <unicode hex="007A"/>
  <outline>
    <contour>
      <point x="448" y="150" type="curve"/>
      <point x="448" y="117"/>
      <point x="450" y="53"/>
      <point x="456" y="17" type="curve"/>
      <point x="451" y="6"/>
      <point x="440" y="-2"/>
      <point x="424" y="-2" type="curve" smooth="yes"/>
      <point x="373" y="-1"/>
      <point x="332" y="0"/>
      <point x="245" y="0" type="curve" smooth="yes"/>
      <point x="157" y="0"/>
      <point x="103" y="-1"/>
      <point x="67" y="-2" type="curve"/>
      <point x="58" y="7"/>
      <point x="51" y="22"/>
      <point x="51" y="38" type="curve"/>
      <point x="117" y="129"/>
      <point x="263" y="334"/>
      <point x="315" y="414" type="curve"/>
      <point x="223" y="414" type="line" smooth="yes"/>
      <point x="151" y="414"/>
      <point x="131" y="396"/>
      <point x="112" y="308" type="curve"/>
      <point x="96" y="308"/>
      <point x="75" y="310"/>
      <point x="60" y="316" type="curve"/>
      <point x="64" y="360"/>
      <point x="67" y="410"/>
      <point x="67" y="461" type="curve"/>
      <point x="108" y="459"/>
      <point x="189" y="458"/>
      <point x="250" y="458" type="curve" smooth="yes"/>
      <point x="309" y="458"/>
      <point x="388" y="459"/>
      <point x="427" y="461" type="curve"/>
      <point x="436" y="450"/>
      <point x="440" y="432"/>
      <point x="440" y="418" type="curve"/>
      <point x="374" y="323"/>
      <point x="241" y="139"/>
      <point x="170" y="45" type="curve"/>
      <point x="297" y="45" type="line" smooth="yes"/>
      <point x="368" y="45"/>
      <point x="388" y="60"/>
      <point x="395" y="156" type="curve"/>
      <point x="411" y="156"/>
      <point x="428" y="155"/>
    </contour>
  </outline>
</glyph>
<glyph name="braceleft" format="1">
  <advance width="327"/>
  <unicode hex="007B"/>
  <outline>
    <contour>
      <point x="286" y="-271" type="curve"/>
      <point x="150" y="-229"/>
      <point x="124" y="-148"/>
      <point x="124" y="-63" type="curve" smooth="yes"/>
      <point x="124" y="-13"/>
      <point x="133" y="38"/>
      <point x="133" y="84" type="curve" smooth="yes"/>
      <point x="133" y="149"/>
      <point x="116" y="202"/>
      <point x="35" y="228" type="curve"/>
      <point x="35" y="240"/>
      <point x="35" y="248"/>
      <point x="40" y="260" type="curve"/>
      <point x="117" y="286"/>
      <point x="135" y="335"/>
      <point x="135" y="394" type="curve" smooth="yes"/>
      <point x="135" y="442"/>
      <point x="123" y="497"/>
      <point x="123" y="549" type="curve" smooth="yes"/>
      <point x="123" y="626"/>
      <point x="149" y="699"/>
      <point x="277" y="741" type="curve"/>
      <point x="283" y="732"/>
      <point x="286" y="723"/>
      <point x="286" y="714" type="curve"/>
      <point x="218" y="691"/>
      <point x="200" y="645"/>
      <point x="200" y="591" type="curve" smooth="yes"/>
      <point x="200" y="529.451"/>
      <point x="223.031" y="458.98"/>
      <point x="223.031" y="394.804" type="curve" smooth="yes"/>
      <point x="223.031" y="327.615"/>
      <point x="198.865" y="270.492"/>
      <point x="96" y="246" type="curve"/>
      <point x="199" y="219"/>
      <point x="224" y="158"/>
      <point x="224" y="86" type="curve" smooth="yes"/>
      <point x="224" y="21"/>
      <point x="204" y="-51"/>
      <point x="204" y="-113" type="curve" smooth="yes"/>
      <point x="204" y="-171"/>
      <point x="222" y="-220"/>
      <point x="292" y="-242" type="curve"/>
      <point x="292" y="-255"/>
      <point x="292" y="-263"/>
    </contour>
  </outline>
</glyph>
<glyph name="bar" format="1">
  <advance width="170"/>
  <unicode hex="007C"/>
  <outline>
    <contour>
      <point x="60" y="-241" type="curve"/>
      <point x="60" y="701" type="line"/>
      <point x="74" y="710"/>
      <point x="90" y="712"/>
      <point x="110" y="712" type="curve"/>
      <point x="110" y="597"/>
      <point x="109" y="416"/>
      <point x="109" y="234" type="curve" smooth="yes"/>
      <point x="109" y="56"/>
      <point x="110" y="-113"/>
      <point x="110" y="-230" type="curve"/>
      <point x="101" y="-236"/>
      <point x="75" y="-241"/>
    </contour>
  </outline>
</glyph>
<glyph name="braceright" format="1">
  <advance width="327"/>
  <unicode hex="007D"/>
  <outline>
    <contour>
      <point x="41" y="-271" type="curve"/>
      <point x="35" y="-263"/>
      <point x="35" y="-255"/>
      <point x="35" y="-242" type="curve"/>
      <point x="105" y="-220"/>
      <point x="123" y="-171"/>
      <point x="123" y="-113" type="curve" smooth="yes"/>
      <point x="123" y="-51"/>
      <point x="103" y="21"/>
      <point x="103" y="86" type="curve" smooth="yes"/>
      <point x="103" y="158"/>
      <point x="128" y="219"/>
      <point x="231" y="246" type="curve"/>
      <point x="128.135" y="270.492"/>
      <point x="103.969" y="327.615"/>
      <point x="103.969" y="394.804" type="curve" smooth="yes"/>
      <point x="103.969" y="458.994"/>
      <point x="127" y="529.437"/>
      <point x="127" y="591" type="curve" smooth="yes"/>
      <point x="127" y="645"/>
      <point x="109" y="691"/>
      <point x="41" y="714" type="curve"/>
      <point x="41" y="723"/>
      <point x="44" y="732"/>
      <point x="50" y="741" type="curve"/>
      <point x="178" y="699"/>
      <point x="204" y="626"/>
      <point x="204" y="549" type="curve" smooth="yes"/>
      <point x="204" y="497"/>
      <point x="192" y="442"/>
      <point x="192" y="394" type="curve" smooth="yes"/>
      <point x="192" y="335"/>
      <point x="210" y="286"/>
      <point x="287" y="260" type="curve"/>
      <point x="292" y="248"/>
      <point x="292" y="240"/>
      <point x="292" y="228" type="curve"/>
      <point x="211" y="202"/>
      <point x="194" y="149"/>
      <point x="194" y="84" type="curve" smooth="yes"/>
      <point x="194" y="38"/>
      <point x="203" y="-13"/>
      <point x="203" y="-63" type="curve" smooth="yes"/>
      <point x="203" y="-148"/>
      <point x="177" y="-229"/>
    </contour>
  </outline>
</glyph>
<glyph name="asciitilde" format="1">
  <advance width="550"/>
  <unicode hex="007E"/>
  <outline>
    <contour>
      <point x="68" y="195" type="curve"/>
      <point x="55" y="201"/>
      <point x="48" y="208"/>
      <point x="46" y="221" type="curve"/>
      <point x="96" y="294"/>
      <point x="141" y="317"/>
      <point x="184" y="317" type="curve" smooth="yes"/>
      <point x="252" y="317"/>
      <point x="314" y="260"/>
      <point x="380" y="260" type="curve" smooth="yes"/>
      <point x="410" y="260"/>
      <point x="440" y="272"/>
      <point x="473" y="305" type="curve"/>
      <point x="486" y="304"/>
      <point x="494" y="301"/>
      <point x="504" y="292" type="curve"/>
      <point x="453" y="220"/>
      <point x="409" y="198"/>
      <point x="371" y="198" type="curve" smooth="yes"/>
      <point x="304" y="198"/>
      <point x="248" y="260"/>
      <point x="180" y="260" type="curve" smooth="yes"/>
      <point x="146" y="260"/>
      <point x="110" y="244"/>
    </contour>
  </outline>
</glyph>
<glyph name="dieresis" format="1">
  <advance width="326"/>
  <unicode hex="00A8"/>
  <outline>
    <contour>
      <point x="226" y="430" type="curve" smooth="yes"/>
      <point x="196" y="430"/>
      <point x="179" y="449"/>
      <point x="179" y="475" type="curve" smooth="yes"/>
      <point x="179" y="501"/>
      <point x="200" y="522"/>
      <point x="230" y="522" type="curve" smooth="yes"/>
      <point x="259" y="522"/>
      <point x="276" y="499"/>
      <point x="276" y="479" type="curve" smooth="yes"/>
      <point x="276" y="445"/>
      <point x="253" y="430"/>
    </contour>
    <contour>
      <point x="97" y="430" type="curve" smooth="yes"/>
      <point x="67" y="430"/>
      <point x="50" y="449"/>
      <point x="50" y="475" type="curve" smooth="yes"/>
      <point x="50" y="501"/>
      <point x="71" y="522"/>
      <point x="101" y="522" type="curve" smooth="yes"/>
      <point x="130" y="522"/>
      <point x="147" y="499"/>
      <point x="147" y="479" type="curve" smooth="yes"/>
      <point x="147" y="445"/>
      <point x="124" y="430"/>
    </contour>
  </outline>
</glyph>
<glyph name="dotlessi" format="1">
  <advance width="332"/>
  <unicode hex="0131"/>
  <outline>
    <contour>
      <point x="100" y="0" type="line" smooth="yes"/>
      <point x="94" y="0"/>
      <point x="90" y="10"/>
      <point x="90" y="16" type="curve" smooth="yes"/>
      <point x="90" y="22"/>
      <point x="94" y="32"/>
      <point x="100" y="32" type="curve" smooth="yes"/>
      <point x="121" y="32" type="line" smooth="yes"/>
      <point x="127" y="32"/>
      <point x="131" y="36"/>
      <point x="131" y="42" type="curve" smooth="yes"/>
      <point x="131" y="354" type="line" smooth="yes"/>
      <point x="131" y="359.996"/>
      <point x="127" y="364"/>
      <point x="121" y="364" type="curve" smooth="yes"/>
      <point x="100" y="364" type="line" smooth="yes"/>
      <point x="94" y="364"/>
      <point x="90" y="374"/>
      <point x="90" y="380" type="curve" smooth="yes"/>
      <point x="90" y="386"/>
      <point x="94" y="396"/>
      <point x="100" y="396" type="curve" smooth="yes"/>
      <point x="191" y="396" type="line"/>
      <point x="197" y="396"/>
      <point x="201" y="392"/>
      <point x="201" y="386" type="curve"/>
      <point x="201" y="42" type="line" smooth="yes"/>
      <point x="201" y="36"/>
      <point x="205" y="32"/>
      <point x="211" y="32" type="curve" smooth="yes"/>
      <point x="232" y="32" type="line" smooth="yes"/>
      <point x="238" y="32"/>
      <point x="242" y="22"/>
      <point x="242" y="16" type="curve" smooth="yes"/>
      <point x="242" y="10"/>
      <point x="238" y="0"/>
      <point x="232" y="0" type="curve" smooth="yes"/>
    </contour>
  </outline>
</glyph>
<glyph name="uni0308" format="1">
  <advance width="0"/>
  <unicode hex="0308"/>
  <outline>
    <contour>
      <point x="-110" y="430" type="curve" smooth="yes"/>
      <point x="-140" y="430"/>
      <point x="-157" y="449"/>
      <point x="-157" y="475" type="curve" smooth="yes"/>
      <point x="-157" y="501"/>
      <point x="-136" y="522"/>
      <point x="-106" y="522" type="curve" smooth="yes"/>
      <point x="-77" y="522"/>
      <point x="-60" y="499"/>
      <point x="-60" y="479" type="curve" smooth="yes"/>
      <point x="-60" y="445"/>
      <point x="-83" y="430"/>
    </contour>
    <contour>
      <point x="-239" y="430" type="curve" smooth="yes"/>
      <point x="-269" y="430"/>
      <point x="-286" y="449"/>
      <point x="-286" y="475" type="curve" smooth="yes"/>
      <point x="-286" y="501"/>
      <point x="-265" y="522"/>
      <point x="-235" y="522" type="curve" smooth="yes"/>
      <point x="-206" y="522"/>
      <point x="-189" y="499"/>
      <point x="-189" y="479" type="curve" smooth="yes"/>
      <point x="-189" y="445"/>
      <point x="-212" y="430"/>
    </contour>
  </outline>
</glyph>
<glyph name="uni0410" format="1">
  <advance width="834"/>
  <unicode hex="0410"/>
  <outline>
    <contour>
      <point x="509" y="301" type="line"/>
      <point x="414" y="542" type="line"/>
      <point x="404" y="542" type="line"/>
      <point x="293" y="301" type="line"/>
    </contour>
    <contour>
      <point x="60" y="0" type="line" smooth="yes"/>
      <point x="54" y="0"/>
      <point x="50" y="13"/>
      <point x="50" y="19" type="curve" smooth="yes"/>
      <point x="50" y="25.7059"/>
      <point x="54" y="38"/>
      <point x="60" y="38" type="curve" smooth="yes"/>
      <point x="81" y="38" type="line" smooth="yes"/>
      <point x="91" y="38"/>
      <point x="99.5167" y="38.7582"/>
      <point x="109" y="46" type="curve" smooth="yes"/>
      <point x="114" y="49.8182"/>
      <point x="123.573" y="59.5998"/>
      <point x="137" y="88" type="curve" smooth="yes"/>
      <point x="380" y="602" type="line" smooth="yes"/>
      <point x="395.309" y="634.381"/>
      <point x="413" y="676"/>
      <point x="422" y="700" type="curve"/>
      <point x="442" y="700" type="line"/>
      <point x="450" y="676"/>
      <point x="462.332" y="643.717"/>
      <point x="480" y="602" type="curve" smooth="yes"/>
      <point x="696" y="92" type="line" smooth="yes"/>
      <point x="718.344" y="39.2442"/>
      <point x="731" y="38"/>
      <point x="751" y="38" type="curve" smooth="yes"/>
      <point x="774" y="38" type="line" smooth="yes"/>
      <point x="780" y="38"/>
      <point x="784" y="25"/>
      <point x="784" y="19" type="curve" smooth="yes"/>
      <point x="784" y="13"/>
      <point x="780" y="0"/>
      <point x="774" y="0" type="curve" smooth="yes"/>
      <point x="634" y="0" type="line"/>
      <point x="520" y="270" type="line"/>
      <point x="278" y="270" type="line"/>
      <point x="180" y="63" type="line" smooth="yes"/>
      <point x="176.791" y="56.2228"/>
      <point x="174" y="48.975"/>
      <point x="174" y="46" type="curve" smooth="yes"/>
      <point x="174" y="40.9091"/>
      <point x="178.267" y="38"/>
      <point x="182" y="38" type="curve" smooth="yes"/>
      <point x="219" y="38" type="line" smooth="yes"/>
      <point x="225" y="38"/>
      <point x="229" y="25"/>
      <point x="229" y="19" type="curve" smooth="yes"/>
      <point x="229" y="13"/>
      <point x="225" y="-7.34764e-016"/>
      <point x="219" y="0" type="curve" smooth="yes"/>
    </contour>
  </outline>
</glyph>
<glyph name="uni0411" format="1">
  <advance width="831"/>
  <unicode hex="0411"/>
  <outline>
    <contour>
      <point x="669" y="319" type="curve" smooth="yes"/>
      <point x="669" y="470.613"/>
      <point x="586.371" y="643"/>
      <point x="428" y="643" type="curve" smooth="yes"/>
      <point x="271" y="643"/>
      <point x="185" y="484.355"/>
      <point x="185" y="329" type="curve" smooth="yes"/>
      <point x="185" y="195.896"/>
      <point x="259" y="24"/>
      <point x="429" y="24" type="curve" smooth="yes"/>
      <point x="596.213" y="24"/>
      <point x="669" y="152.791"/>
    </contour>
    <contour>
      <point x="80" y="340" type="curve" smooth="yes"/>
      <point x="80" y="611"/>
      <point x="178.359" y="816.126"/>
      <point x="343" y="909" type="curve" smooth="yes"/>
      <point x="382" y="931"/>
      <point x="412.685" y="943"/>
      <point x="450" y="943" type="curve" smooth="yes"/>
      <point x="485" y="943"/>
      <point x="517.938" y="931.892"/>
      <point x="558" y="909" type="curve" smooth="yes"/>
      <point x="593" y="889"/>
      <point x="620" y="866"/>
      <point x="640" y="866" type="curve" smooth="yes"/>
      <point x="679.178" y="866"/>
      <point x="690.055" y="903.573"/>
      <point x="699" y="931" type="curve" smooth="yes"/>
      <point x="702.701" y="942.349"/>
      <point x="711" y="943"/>
      <point x="721" y="943" type="curve" smooth="yes"/>
      <point x="728" y="943"/>
      <point x="738" y="937"/>
      <point x="738" y="922" type="curve" smooth="yes"/>
      <point x="738" y="885"/>
      <point x="713.764" y="825.274"/>
      <point x="693" y="804" type="curve" smooth="yes"/>
      <point x="675.191" y="785.754"/>
      <point x="638" y="773"/>
      <point x="618" y="773" type="curve" smooth="yes"/>
      <point x="571.945" y="773"/>
      <point x="537.911" y="799.502"/>
      <point x="500.725" y="824.979" type="curve" smooth="yes"/>
      <point x="456.3" y="855.417"/>
      <point x="426.275" y="867.021"/>
      <point x="391.275" y="867.021" type="curve" smooth="yes"/>
      <point x="346.275" y="867.021"/>
      <point x="308.935" y="827.043"/>
      <point x="277" y="778" type="curve" smooth="yes"/>
      <point x="249" y="735"/>
      <point x="207" y="577"/>
      <point x="207" y="552" type="curve"/>
      <point x="258.616" y="622.686"/>
      <point x="343" y="685"/>
      <point x="460" y="685" type="curve" smooth="yes"/>
      <point x="651" y="685"/>
      <point x="774" y="541.363"/>
      <point x="774" y="323" type="curve" smooth="yes"/>
      <point x="774" y="129"/>
      <point x="634.287" y="-18"/>
      <point x="425" y="-18" type="curve" smooth="yes"/>
      <point x="242" y="-18"/>
      <point x="80" y="127"/>
    </contour>
  </outline>
</glyph>
<glyph name="uni0413" format="1">
  <advance width="627"/>
  <unicode hex="0413"/>
  <outline>
    <contour>
      <point x="544" y="709" type="curve" smooth="yes"/>
      <point x="559" y="709"/>
      <point x="562.765" y="694.941"/>
      <point x="577" y="638" type="curve" smooth="yes"/>
      <point x="584.735" y="607.059"/>
      <point x="588.395" y="581.798"/>
      <point x="588.395" y="566" type="curve" smooth="yes"/>
      <point x="588.395" y="554.487"/>
      <point x="586.604" y="548"/>
      <point x="583.12" y="548" type="curve" smooth="yes"/>
      <point x="577.171" y="548"/>
      <point x="566.965" y="556.338"/>
      <point x="552" y="584" type="curve" smooth="yes"/>
      <point x="522.438" y="638.646"/>
      <point x="499.225" y="650"/>
      <point x="397" y="650" type="curve" smooth="yes"/>
      <point x="240" y="650" type="line"/>
      <point x="240" y="73" type="line" smooth="yes"/>
      <point x="240" y="52.5615"/>
      <point x="246.964" y="39.6445"/>
      <point x="263" y="38" type="curve" smooth="yes"/>
      <point x="302" y="34" type="line" smooth="yes"/>
      <point x="306.364" y="33.5527"/>
      <point x="309" y="23"/>
      <point x="309" y="17" type="curve" smooth="yes"/>
      <point x="309" y="10"/>
      <point x="306" y="5"/>
      <point x="302" y="0" type="curve"/>
      <point x="240" y="0" type="line"/>
      <point x="158" y="0" type="line"/>
      <point x="97" y="0" type="line"/>
      <point x="92.625" y="5"/>
      <point x="90" y="12"/>
      <point x="90" y="17" type="curve" smooth="yes"/>
      <point x="90" y="23.375"/>
      <point x="93.127" y="34"/>
      <point x="97" y="34" type="curve" smooth="yes"/>
      <point x="148" y="34" type="line" smooth="yes"/>
      <point x="154" y="34"/>
      <point x="158" y="38"/>
      <point x="158" y="44" type="curve" smooth="yes"/>
      <point x="158" y="646" type="line" smooth="yes"/>
      <point x="158" y="652"/>
      <point x="154" y="656"/>
      <point x="148" y="656" type="curve" smooth="yes"/>
      <point x="98" y="656" type="line" smooth="yes"/>
      <point x="94.0684" y="656"/>
      <point x="91" y="666.625"/>
      <point x="91" y="673" type="curve" smooth="yes"/>
      <point x="91" y="678"/>
      <point x="93.625" y="685"/>
      <point x="98" y="690" type="curve"/>
      <point x="158" y="690" type="line"/>
      <point x="238" y="690" type="line" smooth="yes"/>
      <point x="397" y="690"/>
      <point x="485.733" y="691.578"/>
      <point x="529" y="706" type="curve" smooth="yes"/>
      <point x="535" y="708"/>
      <point x="540" y="709"/>
    </contour>
  </outline>
</glyph>
<glyph name="uni0414" format="1">
  <advance width="737"/>
  <unicode hex="0414"/>
  <outline>
    <contour>
      <point x="436" y="700" type="curve"/>
      <point x="649" y="700" type="line"/>
      <point x="653" y="695"/>
      <point x="656" y="690"/>
      <point x="656" y="683" type="curve" smooth="yes"/>
      <point x="656" y="677"/>
      <point x="653" y="665"/>
      <point x="649" y="665" type="curve" smooth="yes"/>
      <point x="598" y="665" type="line" smooth="yes"/>
      <point x="592" y="665"/>
      <point x="588" y="661"/>
      <point x="588" y="655" type="curve" smooth="yes"/>
      <point x="588" y="38" type="line"/>
      <point x="707" y="38" type="line"/>
      <point x="707" y="-8" type="line" smooth="yes"/>
      <point x="707" y="-29"/>
      <point x="681.634" y="-60.8393"/>
      <point x="659" y="-88" type="curve" smooth="yes"/>
      <point x="644" y="-106"/>
      <point x="620" y="-134"/>
      <point x="612" y="-134" type="curve" smooth="yes"/>
      <point x="603" y="-134"/>
      <point x="598" y="-124"/>
      <point x="598" y="-119" type="curve" smooth="yes"/>
      <point x="598" y="-113"/>
      <point x="608" y="-98"/>
      <point x="627" y="-73" type="curve" smooth="yes"/>
      <point x="639.764" y="-56.2049"/>
      <point x="653" y="-28"/>
      <point x="653" y="-18" type="curve" smooth="yes"/>
      <point x="653" y="-8"/>
      <point x="649" y="-1.46953e-015"/>
      <point x="637" y="0" type="curve" smooth="yes"/>
      <point x="141" y="0" type="line" smooth="yes"/>
      <point x="114" y="0"/>
      <point x="106" y="-6"/>
      <point x="106" y="-23" type="curve" smooth="yes"/>
      <point x="106" y="-55"/>
      <point x="135" y="-89"/>
      <point x="162" y="-119" type="curve"/>
      <point x="161.345" y="-124.716"/>
      <point x="148" y="-134"/>
      <point x="144" y="-134" type="curve"/>
      <point x="110" y="-108"/>
      <point x="50" y="-62"/>
      <point x="50" y="11" type="curve" smooth="yes"/>
      <point x="50" y="34"/>
      <point x="64" y="38"/>
      <point x="74" y="38" type="curve" smooth="yes"/>
      <point x="147" y="38" type="line" smooth="yes"/>
      <point x="175" y="38"/>
      <point x="176.957" y="52.5651"/>
      <point x="211" y="97" type="curve" smooth="yes"/>
      <point x="496" y="469" type="line"/>
      <point x="496" y="655" type="line" smooth="yes"/>
      <point x="496" y="661"/>
      <point x="492" y="665"/>
      <point x="486" y="665" type="curve" smooth="yes"/>
      <point x="436" y="665" type="line" smooth="yes"/>
      <point x="432" y="665"/>
      <point x="429" y="677"/>
      <point x="429" y="683" type="curve" smooth="yes"/>
      <point x="429" y="688"/>
      <point x="432" y="695"/>
    </contour>
    <contour>
      <point x="496" y="405" type="line"/>
      <point x="231" y="56" type="line" smooth="yes"/>
      <point x="224.953" y="48.0359"/>
      <point x="229" y="38"/>
      <point x="236" y="38" type="curve" smooth="yes"/>
      <point x="474" y="38" type="line" smooth="yes"/>
      <point x="490" y="38"/>
      <point x="496" y="41"/>
      <point x="496" y="65" type="curve" smooth="yes"/>
    </contour>
  </outline>
</glyph>
<glyph name="uni0417" format="1">
  <advance width="585"/>
  <unicode hex="0417"/>
  <outline>
    <contour>
      <point x="176" y="21" type="curve" smooth="yes"/>
      <point x="159" y="32"/>
      <point x="147" y="38.002"/>
      <point x="139" y="38.002" type="curve" smooth="yes"/>
      <point x="129" y="38.002"/>
      <point x="125" y="31.002"/>
      <point x="125" y="16.002" type="curve" smooth="yes"/>
      <point x="125" y="3.00195"/>
      <point x="117" y="-5.99805"/>
      <point x="108" y="-5.99805" type="curve" smooth="yes"/>
      <point x="94" y="-5.99805"/>
      <point x="91" y="11.002"/>
      <point x="91" y="84.002" type="curve" smooth="yes"/>
      <point x="91" y="134.002"/>
      <point x="90" y="178.002"/>
      <point x="90" y="183.002" type="curve" smooth="yes"/>
      <point x="90" y="188.002"/>
      <point x="95" y="195.002"/>
      <point x="101" y="195.002" type="curve" smooth="yes"/>
      <point x="107" y="195.002"/>
      <point x="116" y="185.002"/>
      <point x="120" y="167.002" type="curve" smooth="yes"/>
      <point x="133" y="112.002"/>
      <point x="163" y="71.002"/>
      <point x="206" y="49.002" type="curve" smooth="yes"/>
      <point x="234" y="35.002"/>
      <point x="263" y="28.002"/>
      <point x="290" y="28.002" type="curve" smooth="yes"/>
      <point x="367" y="28.002"/>
      <point x="430" y="84.5352"/>
      <point x="430" y="172.002" type="curve" smooth="yes"/>
      <point x="430" y="231.573"/>
      <point x="380" y="279.464"/>
      <point x="299" y="311.002" type="curve" smooth="yes"/>
      <point x="196" y="347.761"/>
      <point x="125" y="387.67"/>
      <point x="125" y="520.002" type="curve" smooth="yes"/>
      <point x="125" y="641.463"/>
      <point x="203" y="708.002"/>
      <point x="308" y="708.002" type="curve" smooth="yes"/>
      <point x="329" y="708.002"/>
      <point x="350" y="705.002"/>
      <point x="371" y="699.002" type="curve" smooth="yes"/>
      <point x="382" y="696.002"/>
      <point x="392" y="695.002"/>
      <point x="399" y="695.002" type="curve" smooth="yes"/>
      <point x="407" y="695.002"/>
      <point x="412" y="696.002"/>
      <point x="414" y="699.002" type="curve" smooth="yes"/>
      <point x="418" y="705.002"/>
      <point x="427" y="709.002"/>
      <point x="436" y="709.002" type="curve" smooth="yes"/>
      <point x="449" y="709.002"/>
      <point x="453" y="691.002"/>
      <point x="453" y="624.002" type="curve" smooth="yes"/>
      <point x="453" y="564.002"/>
      <point x="449" y="542.002"/>
      <point x="440" y="542.002" type="curve" smooth="yes"/>
      <point x="433" y="542.002"/>
      <point x="425" y="556.002"/>
      <point x="423" y="568.002" type="curve" smooth="yes"/>
      <point x="412" y="643.002"/>
      <point x="377" y="678.002"/>
      <point x="312" y="678.002" type="curve" smooth="yes"/>
      <point x="234" y="678.002"/>
      <point x="180" y="617.521"/>
      <point x="180" y="543.002" type="curve" smooth="yes"/>
      <point x="180" y="455.573"/>
      <point x="237" y="430.748"/>
      <point x="302" y="407.002" type="curve" smooth="yes"/>
      <point x="340" y="392.573"/>
      <point x="438" y="347.067"/>
      <point x="464" y="306.001" type="curve" smooth="yes"/>
      <point x="486" y="272.281"/>
      <point x="495" y="227.685"/>
      <point x="495" y="182" type="curve" smooth="yes"/>
      <point x="495" y="62.6279"/>
      <point x="413.032" y="-18"/>
      <point x="304" y="-18" type="curve" smooth="yes"/>
      <point x="256" y="-18"/>
      <point x="203" y="3"/>
    </contour>
  </outline>
</glyph>
<glyph name="uni0418" format="1">
  <advance width="408"/>
  <unicode hex="0418"/>
  <outline>
    <contour>
      <point x="98" y="700" type="curve"/>
      <point x="311" y="700" type="line"/>
      <point x="315" y="694.412"/>
      <point x="318" y="688.824"/>
      <point x="318" y="681" type="curve" smooth="yes"/>
      <point x="318" y="674.294"/>
      <point x="315.382" y="662"/>
      <point x="311" y="662" type="curve" smooth="yes"/>
      <point x="260" y="662" type="line" smooth="yes"/>
      <point x="254" y="662"/>
      <point x="250" y="658"/>
      <point x="250" y="652" type="curve" smooth="yes"/>
      <point x="250" y="48" type="line" smooth="yes"/>
      <point x="250" y="42"/>
      <point x="254" y="38"/>
      <point x="260" y="38" type="curve" smooth="yes"/>
      <point x="311" y="38" type="line" smooth="yes"/>
      <point x="315.382" y="38"/>
      <point x="318" y="25.7059"/>
      <point x="318" y="19" type="curve" smooth="yes"/>
      <point x="318" y="11.1765"/>
      <point x="315" y="5.58824"/>
      <point x="311" y="0" type="curve"/>
      <point x="97" y="0" type="line"/>
      <point x="92.625" y="5.58824"/>
      <point x="90" y="13.4118"/>
      <point x="90" y="19" type="curve" smooth="yes"/>
      <point x="90" y="26.125"/>
      <point x="93.1273" y="38"/>
      <point x="97" y="38" type="curve" smooth="yes"/>
      <point x="148" y="38" type="line" smooth="yes"/>
      <point x="154" y="38"/>
      <point x="158" y="42"/>
      <point x="158" y="48" type="curve" smooth="yes"/>
      <point x="158" y="652" type="line" smooth="yes"/>
      <point x="158" y="658"/>
      <point x="154" y="662"/>
      <point x="148" y="662" type="curve" smooth="yes"/>
      <point x="98" y="662" type="line" smooth="yes"/>
      <point x="94.0679" y="662"/>
      <point x="91" y="673.875"/>
      <point x="91" y="681" type="curve" smooth="yes"/>
      <point x="91" y="686.588"/>
      <point x="93.625" y="694.412"/>
    </contour>
  </outline>
</glyph>
<glyph name="uni041A" format="1">
  <advance width="836"/>
  <unicode hex="041A"/>
  <outline>
    <contour>
      <point x="98" y="700" type="curve"/>
      <point x="311" y="700" type="line"/>
      <point x="315" y="694"/>
      <point x="318" y="689"/>
      <point x="318" y="681" type="curve" smooth="yes"/>
      <point x="318" y="674"/>
      <point x="315" y="662"/>
      <point x="311" y="662" type="curve" smooth="yes"/>
      <point x="260" y="662" type="line" smooth="yes"/>
      <point x="254" y="662"/>
      <point x="250" y="658"/>
      <point x="250" y="652" type="curve" smooth="yes"/>
      <point x="250" y="48" type="line" smooth="yes"/>
      <point x="250" y="42"/>
      <point x="254" y="38"/>
      <point x="260" y="38" type="curve" smooth="yes"/>
      <point x="311" y="38" type="line" smooth="yes"/>
      <point x="315" y="38"/>
      <point x="318" y="26"/>
      <point x="318" y="19" type="curve" smooth="yes"/>
      <point x="318" y="11"/>
      <point x="315" y="6"/>
      <point x="311" y="0" type="curve"/>
      <point x="97" y="0" type="line"/>
      <point x="93" y="6"/>
      <point x="90" y="13"/>
      <point x="90" y="19" type="curve" smooth="yes"/>
      <point x="90" y="26"/>
      <point x="93" y="38"/>
      <point x="97" y="38" type="curve" smooth="yes"/>
      <point x="148" y="38" type="line" smooth="yes"/>
      <point x="154" y="38"/>
      <point x="158" y="42"/>
      <point x="158" y="48" type="curve" smooth="yes"/>
      <point x="158" y="652" type="line" smooth="yes"/>
      <point x="158" y="658"/>
      <point x="154" y="662"/>
      <point x="148" y="662" type="curve" smooth="yes"/>
      <point x="98" y="662" type="line" smooth="yes"/>
      <point x="94" y="662"/>
      <point x="91" y="674"/>
      <point x="91" y="681" type="curve" smooth="yes"/>
      <point x="91" y="687"/>
      <point x="94" y="694"/>
    </contour>
    <contour>
      <point x="254" y="335" type="line"/>
      <point x="208" y="335" type="line"/>
      <point x="208" y="380" type="line"/>
      <point x="295" y="380" type="line" smooth="yes"/>
      <point x="370" y="380"/>
      <point x="459" y="292"/>
      <point x="504" y="216" type="curve" smooth="yes"/>
      <point x="522" y="185"/>
      <point x="538" y="155"/>
      <point x="563" y="125" type="curve" smooth="yes"/>
      <point x="591" y="91"/>
      <point x="631" y="59"/>
      <point x="684" y="59" type="curve" smooth="yes"/>
      <point x="752" y="59"/>
      <point x="756" y="82"/>
      <point x="769" y="82" type="curve" smooth="yes"/>
      <point x="779" y="82"/>
      <point x="786" y="78"/>
      <point x="786" y="70" type="curve" smooth="yes"/>
      <point x="786" y="67"/>
      <point x="786" y="60"/>
      <point x="782" y="55" type="curve" smooth="yes"/>
      <point x="759" y="28"/>
      <point x="697" y="0"/>
      <point x="630" y="0" type="curve" smooth="yes"/>
      <point x="585" y="0"/>
      <point x="540" y="18"/>
      <point x="502" y="52" type="curve" smooth="yes"/>
      <point x="463" y="87"/>
      <point x="432" y="138"/>
      <point x="408" y="182" type="curve" smooth="yes"/>
      <point x="373" y="246"/>
      <point x="304" y="335"/>
      <point x="254" y="335" type="curve"/>
    </contour>
    <contour>
      <point x="471" y="562" type="curve" smooth="yes"/>
      <point x="295" y="380" type="line"/>
      <point x="254" y="335" type="line"/>
      <point x="208" y="335" type="line"/>
      <point x="208" y="380" type="line"/>
      <point x="240" y="380" type="line"/>
      <point x="433" y="576" type="line" smooth="yes"/>
      <point x="459" y="602"/>
      <point x="476" y="624"/>
      <point x="476" y="639" type="curve" smooth="yes"/>
      <point x="476" y="646"/>
      <point x="473" y="666"/>
      <point x="454" y="666" type="curve" smooth="yes"/>
      <point x="436" y="666" type="line" smooth="yes"/>
      <point x="430" y="666"/>
      <point x="426" y="677"/>
      <point x="426" y="683" type="curve" smooth="yes"/>
      <point x="426" y="689"/>
      <point x="430" y="697"/>
      <point x="436" y="700" type="curve" smooth="yes"/>
      <point x="630" y="700" type="line" smooth="yes"/>
      <point x="636" y="700"/>
      <point x="640" y="692"/>
      <point x="640" y="683" type="curve" smooth="yes"/>
      <point x="640" y="673"/>
      <point x="636" y="666"/>
      <point x="630" y="666" type="curve" smooth="yes"/>
      <point x="594" y="666" type="line" smooth="yes"/>
      <point x="581" y="666"/>
      <point x="559" y="648"/>
      <point x="546" y="637" type="curve" smooth="yes"/>
      <point x="525" y="620"/>
      <point x="499" y="594"/>
    </contour>
  </outline>
</glyph>
<glyph name="uni041B" format="1">
  <advance width="891"/>
  <unicode hex="041B"/>
  <outline>
    <contour>
      <point x="64" y="3" type="curve" smooth="yes"/>
      <point x="54" y="13"/>
      <point x="50" y="25"/>
      <point x="50" y="35" type="curve" smooth="yes"/>
      <point x="50" y="57"/>
      <point x="70" y="75"/>
      <point x="99" y="75" type="curve" smooth="yes"/>
      <point x="104" y="75"/>
      <point x="109" y="74"/>
      <point x="114" y="73" type="curve" smooth="yes"/>
      <point x="120" y="72"/>
      <point x="127" y="72"/>
      <point x="132" y="72" type="curve" smooth="yes"/>
      <point x="146" y="72"/>
      <point x="156" y="77"/>
      <point x="166" y="88" type="curve" smooth="yes"/>
      <point x="190" y="115"/>
      <point x="244" y="223"/>
      <point x="340" y="440" type="curve" smooth="yes"/>
      <point x="385" y="541"/>
      <point x="405" y="593"/>
      <point x="405" y="621" type="curve" smooth="yes"/>
      <point x="405" y="645"/>
      <point x="390" y="651"/>
      <point x="361" y="656" type="curve" smooth="yes"/>
      <point x="344" y="659"/>
      <point x="325" y="668"/>
      <point x="325" y="677" type="curve" smooth="yes"/>
      <point x="325" y="686.223"/>
      <point x="331.039" y="689.406"/>
      <point x="355.972" y="689.406" type="curve" smooth="yes"/>
      <point x="366.184" y="689.406"/>
      <point x="379.565" y="688.872"/>
      <point x="397" y="688" type="curve" smooth="yes"/>
      <point x="475" y="685" type="line"/>
      <point x="698" y="169" type="line" smooth="yes"/>
      <point x="756" y="34"/>
      <point x="763" y="23"/>
      <point x="787" y="23" type="curve" smooth="yes"/>
      <point x="804" y="23" type="line" smooth="yes"/>
      <point x="830" y="23"/>
      <point x="841" y="19"/>
      <point x="841" y="13" type="curve" smooth="yes"/>
      <point x="841" y="5"/>
      <point x="817" y="-6"/>
      <point x="778" y="-8" type="curve" smooth="yes"/>
      <point x="765" y="-9"/>
      <point x="754" y="-9"/>
      <point x="744" y="-9" type="curve" smooth="yes"/>
      <point x="680" y="-9"/>
      <point x="668" y="13"/>
      <point x="614" y="143" type="curve" smooth="yes"/>
      <point x="494" y="431"/>
      <point x="446" y="548"/>
      <point x="446" y="551" type="curve" smooth="yes"/>
      <point x="446" y="553"/>
      <point x="443" y="555"/>
      <point x="438" y="555" type="curve" smooth="yes"/>
      <point x="433" y="555"/>
      <point x="414" y="520"/>
      <point x="396" y="478" type="curve" smooth="yes"/>
      <point x="325" y="311"/>
      <point x="197" y="61"/>
      <point x="165" y="26" type="curve" smooth="yes"/>
      <point x="143" y="2"/>
      <point x="118" y="-10"/>
      <point x="97" y="-10" type="curve" smooth="yes"/>
      <point x="85" y="-10"/>
      <point x="73" y="-6"/>
    </contour>
  </outline>
</glyph>
<glyph name="uni041C" format="1">
  <advance width="952"/>
  <unicode hex="041C"/>
  <outline>
    <contour>
      <point x="50" y="19" type="line"/>
      <point x="50" y="25.7061"/>
      <point x="53.6865" y="38"/>
      <point x="57" y="38" type="curve" smooth="yes"/>
      <point x="82" y="38" type="line" smooth="yes"/>
      <point x="97.6045" y="38"/>
      <point x="113.312" y="50.0488"/>
      <point x="115.951" y="73" type="curve" smooth="yes"/>
      <point x="121.839" y="124.205"/>
      <point x="125.509" y="216.859"/>
      <point x="128.128" y="321" type="curve" smooth="yes"/>
      <point x="136.228" y="643" type="line" smooth="yes"/>
      <point x="136.521" y="654.996"/>
      <point x="133" y="662"/>
      <point x="123" y="662" type="curve" smooth="yes"/>
      <point x="85" y="662" type="line"/>
      <point x="80.2256" y="667.638"/>
      <point x="78" y="674.294"/>
      <point x="78" y="681" type="curve" smooth="yes"/>
      <point x="78" y="687.706"/>
      <point x="81.1924" y="694.947"/>
      <point x="85" y="700" type="curve"/>
      <point x="212" y="700" type="line"/>
      <point x="462" y="333" type="line"/>
      <point x="706.369" y="691.574" type="line" smooth="yes"/>
      <point x="710.075" y="697.012"/>
      <point x="715.889" y="700"/>
      <point x="723.969" y="700" type="curve" smooth="yes"/>
      <point x="855" y="700" type="line"/>
      <point x="859" y="694.412"/>
      <point x="862" y="688.823"/>
      <point x="862" y="681" type="curve" smooth="yes"/>
      <point x="862" y="674.294"/>
      <point x="859.382" y="662"/>
      <point x="855" y="662" type="curve" smooth="yes"/>
      <point x="810" y="662" type="line" smooth="yes"/>
      <point x="804" y="662"/>
      <point x="800" y="658"/>
      <point x="800" y="652" type="curve" smooth="yes"/>
      <point x="800" y="48" type="line" smooth="yes"/>
      <point x="800" y="42"/>
      <point x="804.003" y="38.1172"/>
      <point x="810" y="38" type="curve" smooth="yes"/>
      <point x="855" y="38" type="line" smooth="yes"/>
      <point x="859.38" y="37.9092"/>
      <point x="862" y="25.7061"/>
      <point x="862" y="19" type="curve" smooth="yes"/>
      <point x="862" y="11.1768"/>
      <point x="859" y="5.58789"/>
      <point x="855" y="0" type="curve"/>
      <point x="665" y="0" type="line"/>
      <point x="660.625" y="5.58789"/>
      <point x="658" y="13.4121"/>
      <point x="658" y="19" type="curve" smooth="yes"/>
      <point x="658" y="26.125"/>
      <point x="661.128" y="38"/>
      <point x="665" y="38" type="curve" smooth="yes"/>
      <point x="708" y="38" type="line" smooth="yes"/>
      <point x="714" y="38"/>
      <point x="718" y="42"/>
      <point x="718" y="48" type="curve" smooth="yes"/>
      <point x="718" y="651" type="line"/>
      <point x="433" y="230" type="line"/>
      <point x="164" y="626" type="line"/>
      <point x="162" y="316" type="line" smooth="yes"/>
      <point x="161.121" y="179.753"/>
      <point x="159" y="90"/>
      <point x="159" y="73" type="curve" smooth="yes"/>
      <point x="159" y="48.9385"/>
      <point x="167" y="38"/>
      <point x="179" y="38" type="curve" smooth="yes"/>
      <point x="211" y="38" type="line" smooth="yes"/>
      <point x="215.972" y="38"/>
      <point x="218" y="25.7061"/>
      <point x="218" y="19" type="curve" smooth="yes"/>
      <point x="218" y="12.2939"/>
      <point x="214.765" y="0"/>
      <point x="211" y="0" type="curve" smooth="yes"/>
      <point x="57" y="0" type="line" smooth="yes"/>
      <point x="53.75" y="0"/>
      <point x="50" y="12.2939"/>
      <point x="50" y="19" type="curve"/>
    </contour>
  </outline>
</glyph>
<glyph name="uni041D" format="1">
  <advance width="922"/>
  <unicode hex="041D"/>
  <outline>
    <contour>
      <point x="98" y="700" type="curve"/>
      <point x="311" y="700" type="line"/>
      <point x="315" y="694.412"/>
      <point x="318" y="688.823"/>
      <point x="318" y="681" type="curve" smooth="yes"/>
      <point x="318" y="674.294"/>
      <point x="315.382" y="662"/>
      <point x="311" y="662" type="curve" smooth="yes"/>
      <point x="260" y="662" type="line" smooth="yes"/>
      <point x="254" y="662"/>
      <point x="250" y="658"/>
      <point x="250" y="652" type="curve" smooth="yes"/>
      <point x="250" y="48" type="line" smooth="yes"/>
      <point x="250" y="42"/>
      <point x="254" y="38"/>
      <point x="260" y="38" type="curve" smooth="yes"/>
      <point x="311" y="38" type="line" smooth="yes"/>
      <point x="315.382" y="38"/>
      <point x="318" y="25.7061"/>
      <point x="318" y="19" type="curve" smooth="yes"/>
      <point x="318" y="11.1768"/>
      <point x="315" y="5.58789"/>
      <point x="311" y="0" type="curve"/>
      <point x="97" y="0" type="line"/>
      <point x="92.625" y="5.58789"/>
      <point x="90" y="13.4121"/>
      <point x="90" y="19" type="curve" smooth="yes"/>
      <point x="90" y="26.125"/>
      <point x="93.127" y="38"/>
      <point x="97" y="38" type="curve" smooth="yes"/>
      <point x="148" y="38" type="line" smooth="yes"/>
      <point x="154" y="38"/>
      <point x="158" y="42"/>
      <point x="158" y="48" type="curve" smooth="yes"/>
      <point x="158" y="652" type="line" smooth="yes"/>
      <point x="158" y="658"/>
      <point x="154" y="662"/>
      <point x="148" y="662" type="curve" smooth="yes"/>
      <point x="98" y="662" type="line" smooth="yes"/>
      <point x="94.0684" y="662"/>
      <point x="91" y="673.875"/>
      <point x="91" y="681" type="curve" smooth="yes"/>
      <point x="91" y="686.588"/>
      <point x="93.625" y="694.412"/>
    </contour>
    <contour>
      <point x="612" y="700" type="curve"/>
      <point x="825" y="700" type="line"/>
      <point x="829" y="694.412"/>
      <point x="832" y="688.823"/>
      <point x="832" y="681" type="curve" smooth="yes"/>
      <point x="832" y="674.294"/>
      <point x="829.382" y="662"/>
      <point x="825" y="662" type="curve" smooth="yes"/>
      <point x="774" y="662" type="line" smooth="yes"/>
      <point x="768" y="662"/>
      <point x="764" y="658"/>
      <point x="764" y="652" type="curve" smooth="yes"/>
      <point x="764" y="48" type="line" smooth="yes"/>
      <point x="764" y="42"/>
      <point x="768" y="38"/>
      <point x="774" y="38" type="curve" smooth="yes"/>
      <point x="825" y="38" type="line" smooth="yes"/>
      <point x="829.382" y="38"/>
      <point x="832" y="25.7061"/>
      <point x="832" y="19" type="curve" smooth="yes"/>
      <point x="832" y="11.1768"/>
      <point x="829" y="5.58789"/>
      <point x="825" y="0" type="curve"/>
      <point x="611" y="0" type="line"/>
      <point x="606.625" y="5.58789"/>
      <point x="604" y="13.4121"/>
      <point x="604" y="19" type="curve" smooth="yes"/>
      <point x="604" y="26.125"/>
      <point x="607.127" y="38"/>
      <point x="611" y="38" type="curve" smooth="yes"/>
      <point x="662" y="38" type="line" smooth="yes"/>
      <point x="668" y="38"/>
      <point x="672" y="42"/>
      <point x="672" y="48" type="curve" smooth="yes"/>
      <point x="672" y="652" type="line" smooth="yes"/>
      <point x="672" y="658"/>
      <point x="668" y="662"/>
      <point x="662" y="662" type="curve" smooth="yes"/>
      <point x="612" y="662" type="line" smooth="yes"/>
      <point x="608.068" y="662"/>
      <point x="605" y="673.875"/>
      <point x="605" y="681" type="curve" smooth="yes"/>
      <point x="605" y="686.588"/>
      <point x="607.625" y="694.412"/>
    </contour>
    <contour>
      <point x="210" y="360" type="line"/>
      <point x="704" y="360" type="line"/>
      <point x="704" y="322" type="line"/>
      <point x="210" y="322" type="line"/>
    </contour>
  </outline>
</glyph>
<glyph name="uni041E" format="1">
  <advance width="841"/>
  <unicode hex="041E"/>
  <outline>
    <contour>
      <point x="691" y="338" type="curve" smooth="yes"/>
      <point x="691" y="538.518"/>
      <point x="596.342" y="680"/>
      <point x="414" y="680" type="curve" smooth="yes"/>
      <point x="261" y="680"/>
      <point x="165" y="541.351"/>
      <point x="165" y="366" type="curve" smooth="yes"/>
      <point x="165" y="148.862"/>
      <point x="272" y="20"/>
      <point x="426" y="20" type="curve" smooth="yes"/>
      <point x="600.342" y="20"/>
      <point x="691" y="178.492"/>
    </contour>
    <contour>
      <point x="60" y="341" type="curve" smooth="yes"/>
      <point x="60" y="522.823"/>
      <point x="176" y="718"/>
      <point x="426" y="718" type="curve" smooth="yes"/>
      <point x="614" y="718"/>
      <point x="781" y="585.325"/>
      <point x="781" y="357" type="curve" smooth="yes"/>
      <point x="781" y="164"/>
      <point x="644" y="-18"/>
      <point x="432" y="-18" type="curve" smooth="yes"/>
      <point x="190" y="-18"/>
      <point x="60" y="151"/>
    </contour>
  </outline>
</glyph>
